<?xml version="1.0" encoding="UTF-8"?>
<!-- Generator: Adobe Illustrator 26.0.2, SVG Export Plug-In . SVG Version: 6.00 Build 0)  -->
<svg xmlns="http://www.w3.org/2000/svg" xmlns:xlink="http://www.w3.org/1999/xlink" version="1.1" id="Capa_1" x="0px" y="0px" viewBox="0 0 512 512" style="enable-background:new 0 0 512 512;" xml:space="preserve" width="512" height="512">
<g>
	<g>
		<path style="fill:#241726;" d="M25.981,394.377c-0.767,0-1.494,0-3.516-8.053c-6.826-1.315-7.424-2.116-7.624-2.386    c-0.193-0.258-0.276-0.733-0.189-1.044c0.124-0.437,0.409-1.45,8.209-4.594c2.8-7.3,3.749-7.3,4.38-7.3    c0.328,0,0.779,0.235,0.975,0.499c0.502,0.672,0.957,2.42,1.645,5.219c0.215,0.876,0.474,1.932,0.624,2.397    c0.409,0.182,1.312,0.506,2.062,0.774c4.009,1.438,5.043,1.928,5.231,2.884c0.071,0.359-0.112,0.883-0.384,1.127    c-0.815,0.731-4.69,2.169-6.722,2.892c-3.303,7.513-4.008,7.549-4.632,7.583C26.022,394.377,25.999,394.377,25.981,394.377z     M17.481,383.045c1.363,0.393,3.85,0.958,6.02,1.362c0.4,0.075,0.72,0.377,0.817,0.772c0.554,2.247,1.28,4.808,1.802,6.268    c0.756-1.36,1.901-3.769,2.83-5.899c0.116-0.263,0.335-0.468,0.607-0.563c1.854-0.652,3.948-1.453,5.251-2.024    c-0.913-0.384-2.156-0.83-2.96-1.119c-2.29-0.821-2.722-0.998-3.017-1.395c-0.257-0.345-0.417-0.92-0.985-3.235    c-0.214-0.871-0.543-2.207-0.835-3.208c-0.68,1.297-1.632,3.504-2.371,5.457c-0.103,0.272-0.316,0.488-0.586,0.596    C21.646,381.019,18.913,382.243,17.481,383.045z"/>
	</g>
	<g>
		<path style="fill:#241726;" d="M314.967,69.56c-0.768,0-1.495,0-3.517-8.054c-6.825-1.312-7.402-2.088-7.623-2.385    c-0.193-0.258-0.276-0.734-0.189-1.044c0.125-0.438,0.41-1.451,8.209-4.594c2.8-7.301,3.749-7.301,4.38-7.301    c0.328,0,0.779,0.235,0.975,0.499c0.502,0.673,0.956,2.42,1.644,5.218c0.215,0.876,0.475,1.933,0.625,2.398    c0.409,0.182,1.312,0.507,2.06,0.775c4.011,1.437,5.045,1.927,5.233,2.884c0.07,0.359-0.112,0.882-0.384,1.126    c-0.815,0.731-4.69,2.17-6.724,2.894c-3.301,7.513-4.007,7.549-4.631,7.583C315.009,69.56,314.985,69.56,314.967,69.56z     M306.467,58.228c1.364,0.393,3.85,0.958,6.02,1.362c0.4,0.075,0.72,0.377,0.817,0.772c0.554,2.248,1.28,4.809,1.802,6.269    c0.756-1.36,1.901-3.769,2.83-5.897c0.116-0.265,0.335-0.469,0.607-0.565c1.854-0.653,3.948-1.453,5.251-2.024    c-0.913-0.385-2.156-0.831-2.961-1.12c-2.289-0.82-2.72-0.998-3.015-1.394c-0.257-0.346-0.417-0.922-0.986-3.237    c-0.214-0.871-0.542-2.206-0.835-3.206c-0.68,1.297-1.631,3.504-2.37,5.457c-0.103,0.272-0.316,0.489-0.587,0.596    C310.632,56.203,307.899,57.427,306.467,58.228z"/>
	</g>
	<g>
		<g>
			<g>
				<path style="fill:#F3BE00;" d="M54.307,59.03c-13.955,7.714-8.321,26.916-4.036,37.131l7.921-3.639      c0,0-9.589-23.024,2.542-25.985c12.13-2.961,21.231,15.265,21.231,15.265l9.958-3.975C85.849,68.227,71.298,49.637,54.307,59.03      z"/>
			</g>
			<g>
				<path style="fill:#E17B8D;" d="M45.11,40.334c40.777-19.602,61.567,15.997,67.64,29.178l6.808-2.718      c0,0-28.156-56.463-75.241-37.564c-47.085,18.899-20.609,79.133-20.609,79.133l7.36-3.381      C24.808,90.74,13.416,55.569,45.11,40.334z"/>
			</g>
			<g>
				<path style="fill:#B1739A;" d="M45.11,40.334C13.416,55.569,24.808,90.74,31.068,104.982l9.695-4.454      c-6.488-14.927-15.223-45.553,16.695-54.875c20.918-6.109,38.185,16.375,45.413,27.802l9.879-3.943      C106.677,56.33,85.887,20.732,45.11,40.334z"/>
			</g>
			<g>
				<path style="fill:#E47E0E;" d="M57.458,45.654c-31.918,9.322-23.184,39.948-16.695,54.875l9.508-4.368      c-4.286-10.215-9.919-29.416,4.036-37.131c16.991-9.393,31.542,9.197,37.617,18.796l10.948-4.37      C95.643,62.029,78.376,39.545,57.458,45.654z"/>
			</g>
		</g>
		<g>
			<path style="fill:#241726;" d="M31.068,106.021c-0.403,0-0.786-0.236-0.955-0.63c-0.494-1.156-11.972-28.562-2.484-49.691     c4.219-9.395,11.98-16.044,23.068-19.759c43.296-14.511,62.212,32.006,62.399,32.477c0.21,0.533-0.052,1.136-0.585,1.346     c-0.53,0.214-1.135-0.051-1.346-0.584c-0.046-0.115-4.62-11.517-14.287-21.012c-12.851-12.624-28.166-16.077-45.522-10.26     C40.844,41.431,33.5,47.7,29.527,56.542c-9.118,20.293,2.379,47.759,2.496,48.033c0.225,0.528-0.02,1.137-0.547,1.362     C31.343,105.994,31.204,106.021,31.068,106.021z"/>
		</g>
		<g>
			<path style="fill:#241726;" d="M40.764,101.566c-0.397,0-0.775-0.228-0.948-0.613c-0.393-0.877-9.551-21.664-2.991-38.587     c2.875-7.416,8.365-12.927,16.318-16.38c26.897-11.671,50.382,26.545,50.615,26.931c0.297,0.491,0.14,1.129-0.351,1.425     c-0.493,0.296-1.13,0.139-1.425-0.351c-0.225-0.372-22.789-37.061-48.012-26.102c-7.426,3.224-12.543,8.347-15.21,15.228     c-6.249,16.122,2.857,36.78,2.949,36.986c0.235,0.523,0.001,1.137-0.522,1.371C41.05,101.537,40.906,101.566,40.764,101.566z"/>
		</g>
		<g>
			<path style="fill:#241726;" d="M50.271,97.198c-0.402,0-0.785-0.236-0.955-0.63c-0.311-0.729-7.575-17.997-2.647-30.184     c1.785-4.415,4.962-7.609,9.443-9.495c8.242-3.47,17.233-0.994,26.003,7.16c6.494,6.04,10.538,12.965,10.707,13.256     c0.288,0.496,0.118,1.131-0.378,1.418c-0.493,0.289-1.13,0.12-1.418-0.378c-0.159-0.272-15.994-27.165-34.109-19.543     c-3.951,1.663-6.751,4.475-8.321,8.356c-4.606,11.383,2.557,28.423,2.63,28.595c0.225,0.527-0.02,1.137-0.547,1.362     C50.545,97.172,50.408,97.198,50.271,97.198z"/>
		</g>
	</g>
	<g>
		<g>
			<g>
				<path style="fill:#FFFFFF;" d="M362.178,474.324c0,0,8.716-11.128,1.378-16.281c-7.339-5.153-12.481,15.29-6.827,12.446      c2.44-1.228-5.577-12.229-11.108-8.801C340.089,465.115,353.172,484.913,362.178,474.324z"/>
			</g>
			<g>
				<path style="fill:#241726;" d="M356.253,478.447h-0.001c-6.021-0.001-11.276-6.762-12.607-11.434      c-0.818-2.875-0.298-5.137,1.428-6.207c0.872-0.541,1.837-0.815,2.869-0.815c2.572,0,4.873,1.644,6.358,3.032      c1.32-3.633,3.77-6.855,6.867-6.855c1.01,0,2.015,0.346,2.984,1.026c1.86,1.305,2.965,3.062,3.285,5.22      c0.847,5.718-4.225,12.273-4.442,12.549C361.021,477.285,358.762,478.447,356.253,478.447z M347.943,462.067      c-0.649,0-1.229,0.164-1.776,0.503c-1.25,0.774-0.783,2.967-0.525,3.875c1.18,4.145,5.787,9.926,10.611,9.927l0,0      c1.872,0,3.599-0.915,5.133-2.719c0.02-0.028,4.716-6.103,3.996-10.938c-0.237-1.593-1.03-2.843-2.423-3.822      c-0.613-0.431-1.216-0.649-1.792-0.649c-2.208,0-4.296,3.27-5.253,6.517c1.344,1.67,2.554,3.831,2.254,5.337      c-0.118,0.594-0.464,1.061-0.975,1.319c-1.281,0.644-2.468,0.44-3.175-0.473c-1.107-1.429-0.725-4.124-0.385-5.649      C352.124,463.668,349.936,462.067,347.943,462.067z M355.377,467.595c-0.076,1.122,0.086,1.823,0.283,2.077      c0.149,0.05,0.31,0.038,0.602-0.11C356.242,469.435,356.029,468.683,355.377,467.595z"/>
			</g>
		</g>
		<g>
			<g>
				<path style="fill:#FFFFFF;" d="M367.402,480.914c0,0,13.713,3.43,11.085,12.004c-2.627,8.574-19.24-4.403-13.031-5.63      c2.68-0.53,3.108,13.077-3.362,13.768C355.623,501.746,353.791,478.087,367.402,480.914z"/>
			</g>
			<g>
				<path style="fill:#241726;" d="M361.817,502.107c-3.698,0-5.694-5.391-5.694-10.464c0-3.094,0.718-5.947,2.021-8.034      c2.026-3.241,5.364-4.559,9.469-3.711c0.381,0.095,8.409,2.153,11.253,7.187c1.073,1.899,1.279,3.965,0.613,6.138      c-0.72,2.35-2.464,3.646-4.911,3.646c-1.906,0-4.227-0.802-6.441-2.193c-0.567,3.594-2.339,7.03-5.923,7.413      C362.073,502.1,361.944,502.107,361.817,502.107z M365.244,481.716c-2.304,0-4.1,1.006-5.339,2.992      c-1.101,1.761-1.707,4.224-1.707,6.934c0,4.469,1.691,8.389,3.618,8.389l0.166-0.008c2.728-0.292,3.96-3.697,4.221-6.734      c-1.355-1.118-3.563-3.284-3.105-5.232c0.125-0.533,0.572-1.476,2.156-1.789c0.067-0.012,0.285-0.034,0.353-0.034      c0.36,0,0.894,0.11,1.395,0.636c1.033,1.087,1.363,3.426,1.33,5.438c2.131,1.539,4.484,2.482,6.236,2.482      c1.542,0,2.472-0.692,2.927-2.178c0.5-1.629,0.357-3.102-0.434-4.506c-2.401-4.257-9.836-6.168-9.911-6.187      C366.51,481.788,365.855,481.716,365.244,481.716z M365.469,488.275c-0.2,0.106-0.343,0.223-0.351,0.257      c-0.059,0.252,0.23,0.944,1.039,1.855C365.99,489.134,365.656,488.407,365.469,488.275z"/>
			</g>
		</g>
		<g>
			<path style="fill:#F2BD00;" d="M353.049,480.041c0,0-6.645-4.688-12.168-0.621c-5.522,4.066-9.284,10.646-5.503,13.853     c3.781,3.207,11.667,4.601,16.343-0.615C356.396,487.441,355.176,481.191,353.049,480.041z"/>
		</g>
		<g>
			<g>
				<path style="fill:#FFFFFF;" d="M346.305,477.766c0,0,5.054,11.522,7.025,12.679"/>
			</g>
			<g>
				<path style="fill:#241726;" d="M353.329,491.483c-0.178,0-0.359-0.046-0.524-0.143c-2.098-1.23-6.233-10.381-7.45-13.157      c-0.23-0.525,0.009-1.137,0.534-1.367c0.527-0.226,1.138,0.011,1.367,0.534c2.365,5.393,5.562,11.591,6.599,12.2      c0.495,0.29,0.66,0.926,0.37,1.42C354.031,491.3,353.684,491.483,353.329,491.483z"/>
			</g>
		</g>
		<g>
			<g>
				<path style="fill:#FFFFFF;" d="M340.52,479.961c0,0,6.307,13.269,8.827,14.718"/>
			</g>
			<g>
				<path style="fill:#241726;" d="M349.346,495.717c-0.175,0-0.354-0.045-0.517-0.138c-2.664-1.533-8.17-12.908-9.246-15.172      c-0.246-0.518-0.025-1.137,0.492-1.383c0.52-0.246,1.136-0.024,1.383,0.492c2.561,5.389,6.863,13.376,8.407,14.264      c0.497,0.286,0.668,0.92,0.382,1.418C350.054,495.53,349.705,495.717,349.346,495.717z"/>
			</g>
		</g>
		<g>
			<g>
				<path style="fill:#FFFFFF;" d="M365.459,475.32c0,0,7.777-3.095,7.235-11.893"/>
			</g>
			<g>
				<path style="fill:#241726;" d="M365.46,476.358c-0.411,0-0.801-0.246-0.963-0.652c-0.213-0.531,0.046-1.135,0.576-1.349      c0.289-0.118,7.073-2.952,6.586-10.866c-0.035-0.572,0.4-1.064,0.972-1.1c0.577-0.028,1.066,0.4,1.1,0.972      c0.582,9.438-7.803,12.887-7.887,12.92C365.717,476.335,365.588,476.358,365.46,476.358z"/>
			</g>
		</g>
		<g>
			<g>
				<path style="fill:#FFFFFF;" d="M337.173,484.49c0,0,3.841,10.043,6.966,11.627"/>
			</g>
			<g>
				<path style="fill:#241726;" d="M344.138,497.155c-0.158,0-0.318-0.035-0.468-0.113c-3.385-1.715-7.059-11.115-7.466-12.181      c-0.205-0.535,0.063-1.135,0.598-1.34c0.532-0.206,1.135,0.063,1.34,0.598c1.431,3.739,4.452,10.051,6.467,11.072      c0.511,0.258,0.716,0.883,0.456,1.395C344.882,496.947,344.517,497.155,344.138,497.155z"/>
			</g>
		</g>
		<g>
			<g>
				<path style="fill:#FFFFFF;" d="M380.299,478.449c0,0-5.34-5.794-14.277-0.701"/>
			</g>
			<g>
				<path style="fill:#241726;" d="M380.299,479.486c-0.278,0-0.555-0.111-0.76-0.331l0,0c-0.198-0.21-4.94-5.104-13.003-0.506      c-0.498,0.282-1.132,0.108-1.416-0.388c-0.284-0.498-0.109-1.132,0.388-1.416c9.545-5.433,15.495,0.837,15.554,0.9      c0.388,0.422,0.362,1.078-0.06,1.467C380.802,479.395,380.55,479.486,380.299,479.486z"/>
			</g>
		</g>
	</g>
	<g>
		<g>
			<g>
				<path style="fill:#FFFFFF;" d="M146.398,33.661c0,0-13.216,5.015-9.6,13.221c3.615,8.207,18.591-6.63,12.281-7.12      c-2.723-0.212-1.552,13.351,4.954,13.278C160.539,52.967,159.583,29.257,146.398,33.661z"/>
			</g>
			<g>
				<path style="fill:#241726;" d="M153.98,54.078c-3.568,0-5.712-3.194-6.69-6.672c-1.986,1.593-4.543,2.983-6.892,2.983      c-2.087,0-3.661-1.067-4.551-3.088c-0.916-2.08-0.954-4.155-0.11-6.167c2.233-5.333,9.965-8.319,10.293-8.442      c1.229-0.411,2.383-0.613,3.467-0.613c6.474,0,9.462,6.802,9.497,13.121c0.029,5.277-1.96,8.846-4.951,8.879      C154.041,54.078,153.984,54.078,153.98,54.078z M149.038,45.81c0.612,2.966,2.222,6.192,4.942,6.192v1.038l0.042-1.038      c1.673-0.018,2.919-2.938,2.898-6.791c-0.025-4.445-2.022-11.057-7.422-11.057c-0.86,0-1.793,0.165-2.771,0.492      c-0.031,0.013-7.192,2.784-9.077,7.294c-0.621,1.486-0.589,2.965,0.097,4.524c0.556,1.262,1.399,1.85,2.651,1.85      c1.791,0,4.266-1.254,6.412-3.227c-0.28-2.074-0.209-4.506,0.772-5.667c0.379-0.449,0.888-0.696,1.432-0.696      c1.753,0.13,2.307,1.013,2.494,1.528C152.192,42.131,150.254,44.541,149.038,45.81z M148.998,40.798      c-0.05,0.119-0.255,0.871-0.26,2.136c0.702-1.005,0.91-1.729,0.821-1.974C149.546,40.927,149.392,40.828,148.998,40.798z"/>
			</g>
		</g>
		<g>
			<g>
				<path style="fill:#FFFFFF;" d="M145.336,25.319c0,0-9.962-10.028-3.278-16.007c6.684-5.979,14.189,13.72,8.24,11.559      c-2.567-0.933,4.104-12.799,9.999-10.044C166.192,13.583,155.522,34.779,145.336,25.319z"/>
			</g>
			<g>
				<path style="fill:#241726;" d="M150.794,28.771c-2.166,0-4.24-0.906-6.164-2.693c-0.277-0.278-6.084-6.191-5.914-11.969      c0.065-2.181,0.956-4.055,2.649-5.57c1.038-0.928,2.17-1.4,3.364-1.4c2.867,0,5.476,2.822,7.101,6.031      c2.753-3.264,6.158-4.57,8.907-3.285c2.016,0.943,2.746,3.402,2.002,6.749C161.608,21.723,156.828,28.771,150.794,28.771z       M144.729,9.215c-0.677,0-1.325,0.285-1.979,0.871c-1.27,1.136-1.91,2.47-1.959,4.08c-0.146,4.885,5.228,10.367,5.282,10.422      c1.497,1.388,3.095,2.108,4.721,2.108c4.468,0,8.813-5.54,9.918-10.511c0.507-2.28,0.187-3.931-0.854-4.418      c-2.413-1.128-5.336,1.169-7.096,3.582c0.534,1.521,1.248,4.248,0.204,5.775c-0.42,0.613-1.072,0.951-1.839,0.951h-0.001      c-0.365,0-0.762-0.077-1.181-0.229c-0.536-0.195-0.935-0.618-1.122-1.194c-0.475-1.46,0.473-3.749,1.612-5.564      C149.156,12.093,146.867,9.215,144.729,9.215z M151.299,17.863c-0.502,1.154-0.592,1.946-0.501,2.155      c0.09-0.038,0.241-0.02,0.326-0.019l0,0C151.376,19.72,151.494,18.992,151.299,17.863z"/>
			</g>
		</g>
		<g>
			<path style="fill:#F2BD00;" d="M157.168,33.49c0,0,3.263,7.449,10.092,6.826c6.829-0.624,13.453-4.309,11.876-9.009     c-1.577-4.701-7.605-9.973-14.305-7.927C158.131,25.426,155.942,31.406,157.168,33.49z"/>
		</g>
		<g>
			<g>
				<path style="fill:#FFFFFF;" d="M161.763,38.925c0,0,1.634-12.476,0.546-14.485"/>
			</g>
			<g>
				<path style="fill:#241726;" d="M161.765,39.963c-0.045,0-0.09-0.003-0.136-0.009c-0.569-0.074-0.969-0.595-0.894-1.163      c0.764-5.84,1.234-12.798,0.662-13.856c-0.274-0.505-0.086-1.134,0.418-1.407c0.503-0.274,1.134-0.085,1.407,0.418      c1.159,2.139-0.034,12.11-0.429,15.115C162.725,39.583,162.279,39.963,161.765,39.963z"/>
			</g>
		</g>
		<g>
			<g>
				<path style="fill:#FFFFFF;" d="M167.849,40.039c0,0,1.465-14.618,0.059-17.162"/>
			</g>
			<g>
				<path style="fill:#241726;" d="M167.85,41.077c-0.034,0-0.069-0.002-0.104-0.005c-0.571-0.058-0.986-0.566-0.929-1.136      c0.595-5.937,1.045-14.999,0.183-16.556c-0.278-0.502-0.095-1.133,0.405-1.411c0.505-0.277,1.133-0.095,1.411,0.405      c1.488,2.692,0.316,15.273,0.066,17.768C168.828,40.678,168.377,41.077,167.85,41.077z"/>
			</g>
		</g>
		<g>
			<g>
				<path style="fill:#FFFFFF;" d="M144.105,31.111c0,0-8.257-1.374-12.343,6.436"/>
			</g>
			<g>
				<path style="fill:#241726;" d="M131.76,38.584c-0.162,0-0.326-0.037-0.48-0.119c-0.508-0.266-0.704-0.893-0.438-1.401      c4.384-8.376,13.344-6.994,13.433-6.978c0.565,0.093,0.945,0.626,0.852,1.191c-0.092,0.565-0.628,0.946-1.19,0.857      c-0.311-0.056-7.582-1.133-11.257,5.892C132.495,38.381,132.134,38.584,131.76,38.584z"/>
			</g>
		</g>
		<g>
			<g>
				<path style="fill:#FFFFFF;" d="M173.057,37.894c0,0,1.908-10.582,0.052-13.554"/>
			</g>
			<g>
				<path style="fill:#241726;" d="M173.057,38.932c-0.061,0-0.123-0.005-0.185-0.016c-0.563-0.102-0.938-0.642-0.837-1.206      c0.71-3.939,1.391-10.904,0.194-12.82c-0.303-0.485-0.155-1.126,0.331-1.43c0.484-0.302,1.126-0.155,1.43,0.331      c2.01,3.218,0.291,13.163,0.088,14.287C173.987,38.58,173.55,38.932,173.057,38.932z"/>
			</g>
		</g>
		<g>
			<g>
				<path style="fill:#FFFFFF;" d="M133.023,20.757c0,0,1.573,7.721,11.856,7.985"/>
			</g>
			<g>
				<path style="fill:#241726;" d="M144.88,29.78c-0.009,0-0.018,0-0.027,0c-10.981-0.283-12.829-8.729-12.846-8.815      c-0.115-0.561,0.247-1.109,0.81-1.223c0.558-0.112,1.108,0.246,1.223,0.807c0.068,0.314,1.606,6.918,10.866,7.156      c0.574,0.015,1.026,0.492,1.011,1.064C145.902,29.333,145.441,29.78,144.88,29.78z"/>
			</g>
		</g>
	</g>
	<g>
		<g>
			<path style="fill:#869638;" d="M133.259,489.029c0,0-99.154-3.367-100.71-5.919c-1.556-2.552,16.205-28.44,18.317-26.389     c2.111,2.052,4.393,12.847,7.614,13.899c3.222,1.051,9.408-14.902,11.934-15.695s11.863,14.519,13.197,15.295     c1.333,0.776,10.71-20.524,14.461-16.489s10.81,18.434,10.81,18.434s7.102-18.293,12.406-15.626     C125.748,458.782,133.259,489.029,133.259,489.029z"/>
		</g>
		<g>
			<path style="fill:#241726;" d="M125.868,486.238c-0.393,0-0.769-0.224-0.945-0.605c-2.861-6.232-7.685-15.428-9.45-16.363     c-0.764,0.183-2.529,3.737-3.583,5.859c-2.062,4.157-3.665,7.464-5.911,7.117c-2.275-0.331-4.427-3.951-7.45-9.433     c-1.126-2.041-2.192-3.975-2.932-4.866c-1.041,0.499-3.479,4.257-4.961,6.542c-3.103,4.784-5.102,7.719-7.002,7.779     c-0.024,0-0.049,0.001-0.073,0.001c-2.659,0-6.146-4.492-10.42-10.355c-1.013-1.392-1.89-2.592-2.523-3.346     c-0.007,0-0.014-0.001-0.021-0.001c-1.562,0-4.801,4.471-6.74,7.147c-2.071,2.859-3.291,4.503-4.295,5.047     c-3.073,1.67-8.263-6.055-11.171-10.969c-1.287,0.421-5.074,4.328-8.552,8.861c-0.347,0.456-0.997,0.543-1.454,0.192     c-0.455-0.349-0.541-1-0.192-1.454c2.278-2.972,7.933-9.857,10.491-9.706c0.585,0.035,1.071,0.334,1.37,0.842     c3.624,6.162,7.483,10.587,8.536,10.403c0.621-0.34,2.265-2.609,3.587-4.433c3.505-4.837,5.969-8.015,8.212-8.096     c0.687-0.044,1.338,0.261,1.818,0.831c0.679,0.808,1.574,2.036,2.611,3.459c2.261,3.102,7,9.502,8.75,9.501     c0.992-0.154,3.704-4.335,5.325-6.833c3.058-4.714,4.875-7.387,6.661-7.529c0.549-0.034,1.086,0.168,1.477,0.602     c0.902,1.001,2.021,3.029,3.315,5.378c1.685,3.057,4.507,8.173,5.933,8.382c0.844-0.131,2.735-3.939,3.752-5.986     c1.96-3.949,3.266-6.383,4.873-6.9c0.528-0.171,1.061-0.125,1.539,0.129c3.027,1.602,9.166,14.719,10.366,17.332     c0.239,0.521,0.01,1.137-0.511,1.376C126.16,486.208,126.013,486.238,125.868,486.238z"/>
		</g>
	</g>
	<g>
		<path style="fill:#241726;" d="M30.37,428.816h-0.03c-3.957-0.016-7.161-3.249-7.145-7.208c0.016-3.94,3.235-7.145,7.176-7.145    c1.948,0.008,3.748,0.762,5.098,2.124c1.348,1.36,2.088,3.166,2.08,5.082C37.53,425.609,34.309,428.816,30.37,428.816z     M30.393,416.538c-2.824,0-5.11,2.278-5.122,5.078c-0.012,2.813,2.266,5.112,5.078,5.124l0.022,1.038v-1.038    c2.799,0,5.088-2.278,5.102-5.08c0.006-1.362-0.519-2.645-1.48-3.612C33.034,417.079,31.755,416.544,30.393,416.538z"/>
	</g>
	<g>
		<path style="fill:#241726;" d="M445.262,231.44h-0.03c-3.957-0.016-7.161-3.249-7.145-7.208c0.016-3.94,3.235-7.145,7.176-7.145    c1.948,0.008,3.748,0.762,5.098,2.124c1.348,1.36,2.088,3.166,2.08,5.082C452.421,228.233,449.201,231.44,445.262,231.44z     M445.284,219.163c-2.824,0-5.11,2.278-5.122,5.078c-0.012,2.813,2.266,5.112,5.078,5.124l0.022,1.038v-1.038    c2.799,0,5.088-2.278,5.102-5.08c0.006-1.362-0.519-2.645-1.48-3.612C447.926,219.704,446.647,219.169,445.284,219.163z"/>
	</g>
	<g>
		<path style="fill:#241726;" d="M358.086,38.415h-0.03c-3.957-0.016-7.161-3.249-7.145-7.208c0.016-3.94,3.235-7.145,7.176-7.145    c1.948,0.008,3.748,0.762,5.098,2.124c1.348,1.36,2.088,3.166,2.08,5.082C365.245,35.208,362.024,38.415,358.086,38.415z     M358.108,26.137c-2.824,0-5.11,2.278-5.122,5.078c-0.012,2.813,2.266,5.112,5.078,5.124l0.022,1.038v-1.038    c2.799,0,5.088-2.278,5.102-5.08c0.006-1.362-0.519-2.645-1.48-3.612C360.749,26.679,359.47,26.143,358.108,26.137z"/>
	</g>
	<g>
		<path style="fill:#241726;" d="M18.212,182.014h-0.03c-3.957-0.016-7.161-3.249-7.145-7.208c0.016-3.94,3.235-7.145,7.176-7.145    c1.948,0.008,3.748,0.762,5.098,2.124c1.348,1.36,2.088,3.166,2.08,5.082C25.371,178.807,22.151,182.014,18.212,182.014z     M18.234,169.737c-2.824,0-5.11,2.278-5.122,5.078c-0.012,2.813,2.266,5.112,5.078,5.124l0.022,1.038v-1.038    c2.799,0,5.088-2.278,5.102-5.08c0.006-1.362-0.519-2.645-1.48-3.612C20.876,170.278,19.597,169.743,18.234,169.737z"/>
	</g>
	<g>
		<path style="fill:#241726;" d="M382.043,456.536h-0.03c-3.957-0.016-7.161-3.249-7.145-7.208c0.016-3.94,3.235-7.145,7.176-7.145    c1.948,0.008,3.748,0.762,5.098,2.124c1.348,1.36,2.088,3.166,2.08,5.082C389.202,453.329,385.981,456.536,382.043,456.536z     M382.065,444.259c-2.824,0-5.11,2.278-5.122,5.078c-0.012,2.813,2.266,5.112,5.078,5.124l0.022,1.038v-1.038    c2.799,0,5.088-2.278,5.102-5.08c0.006-1.362-0.519-2.645-1.48-3.612C384.706,444.8,383.427,444.265,382.065,444.259z"/>
	</g>
	<g>
		<g>
			<path style="fill:#241726;" d="M101.643,125.401h-0.006c-0.574-0.004-1.036-0.47-1.032-1.044l0.103-17.466     c0.004-0.572,0.468-1.032,1.038-1.032h0.006c0.574,0.004,1.036,0.47,1.032,1.044l-0.103,17.466     C102.676,124.94,102.212,125.401,101.643,125.401z"/>
		</g>
		<g>
			<path style="fill:#241726;" d="M94.601,121.588c-0.326,0-0.649-0.154-0.851-0.444c-0.328-0.47-0.213-1.117,0.257-1.445     l14.424-10.056c0.464-0.324,1.115-0.215,1.445,0.257c0.328,0.47,0.213,1.117-0.257,1.445l-14.424,10.056     C95.014,121.527,94.808,121.588,94.601,121.588z"/>
		</g>
		<g>
			<path style="fill:#241726;" d="M107.265,122.322c-0.276,0-0.549-0.109-0.754-0.324l-10.905-11.523     c-0.393-0.416-0.375-1.074,0.041-1.468c0.418-0.395,1.072-0.373,1.468,0.041l10.905,11.523c0.393,0.416,0.375,1.074-0.041,1.468     C107.778,122.228,107.521,122.322,107.265,122.322z"/>
		</g>
		<g>
			<path style="fill:#241726;" d="M92.629,116.482c-0.57,0-1.032-0.458-1.038-1.028c-0.006-0.574,0.454-1.042,1.028-1.048l16.8-0.16     h0.006c0.574,0,1.036,0.458,1.042,1.028c0.006,0.574-0.454,1.042-1.028,1.048l-16.8,0.16H92.629z"/>
		</g>
	</g>
	<g>
		<g>
			<path style="fill:#241726;" d="M338.844,201.534h-0.006c-0.574-0.004-1.036-0.47-1.032-1.044l0.103-17.466     c0.004-0.572,0.468-1.032,1.038-1.032h0.006c0.574,0.004,1.036,0.47,1.032,1.044l-0.103,17.466     C339.878,201.074,339.413,201.534,338.844,201.534z"/>
		</g>
		<g>
			<path style="fill:#241726;" d="M331.802,197.721c-0.326,0-0.649-0.154-0.851-0.444c-0.328-0.47-0.213-1.117,0.257-1.445     l14.424-10.056c0.464-0.324,1.115-0.215,1.445,0.257c0.328,0.47,0.213,1.117-0.257,1.445l-14.424,10.056     C332.216,197.66,332.009,197.721,331.802,197.721z"/>
		</g>
		<g>
			<path style="fill:#241726;" d="M344.467,198.455c-0.276,0-0.549-0.109-0.754-0.324l-10.905-11.523     c-0.393-0.416-0.375-1.074,0.041-1.468c0.418-0.395,1.072-0.373,1.468,0.041l10.905,11.523c0.393,0.416,0.375,1.074-0.041,1.468     C344.979,198.362,344.722,198.455,344.467,198.455z"/>
		</g>
		<g>
			<path style="fill:#241726;" d="M329.83,192.615c-0.57,0-1.032-0.458-1.038-1.028c-0.006-0.574,0.454-1.042,1.028-1.048l16.8-0.16     h0.006c0.574,0,1.036,0.458,1.042,1.028c0.006,0.574-0.454,1.042-1.028,1.048l-16.8,0.16H329.83z"/>
		</g>
	</g>
	<g>
		<g>
			<path style="fill:#241726;" d="M401.113,485.895h-0.006c-0.574-0.004-1.036-0.47-1.032-1.044l0.103-17.466     c0.004-0.572,0.468-1.032,1.038-1.032h0.006c0.574,0.004,1.036,0.47,1.032,1.044l-0.103,17.466     C402.146,485.435,401.682,485.895,401.113,485.895z"/>
		</g>
		<g>
			<path style="fill:#241726;" d="M394.071,482.082c-0.326,0-0.649-0.154-0.851-0.444c-0.328-0.47-0.213-1.117,0.257-1.445     l14.424-10.056c0.464-0.324,1.115-0.215,1.445,0.257c0.328,0.47,0.213,1.117-0.257,1.445l-14.424,10.056     C394.484,482.021,394.278,482.082,394.071,482.082z"/>
		</g>
		<g>
			<path style="fill:#241726;" d="M406.735,482.816c-0.276,0-0.549-0.109-0.754-0.324l-10.905-11.523     c-0.393-0.416-0.375-1.074,0.041-1.468c0.418-0.395,1.072-0.373,1.468,0.041l10.905,11.523c0.393,0.416,0.375,1.074-0.041,1.468     C407.248,482.723,406.991,482.816,406.735,482.816z"/>
		</g>
		<g>
			<path style="fill:#241726;" d="M392.099,476.976c-0.57,0-1.032-0.458-1.038-1.028c-0.006-0.574,0.454-1.042,1.028-1.048     l16.8-0.16h0.006c0.574,0,1.036,0.458,1.042,1.028c0.006,0.574-0.454,1.042-1.028,1.048l-16.8,0.16H392.099z"/>
		</g>
	</g>
	<g>
		<g>
			<path style="fill:#FFFFFF;" d="M42.587,134.159c0,0-2.048-15.547,12.917-10.517s10.089,19.265,4.384,14.394     s4.999-21.392,16.451-14.035s8.89,21.631,0.767,22.684c-8.123,1.053,4.917-16.62,15.15-5.705s-12.108,30.815-21.245,23.499     s-1.986-19.126,0.205-11.929s-3.719,14.255-19.923,13.976c-16.205-0.279-8.829-25.209-3.164-17.953s-3.739,15.447-15.17,6.898     S34.567,129.248,42.587,134.159z"/>
		</g>
		<g>
			<path style="fill:#241726;" d="M52.214,167.572l-0.94-0.008c-5.312-0.091-9.05-2.812-10.367-7.502     c-2.795-0.353-5.741-1.643-8.571-3.759c-4.48-3.351-5.997-8.435-4.161-13.952c1.879-5.65,6.886-10.077,11.397-10.077     c0.65,0,1.279,0.087,1.882,0.26c-0.019-2.164,0.314-5.847,2.508-8.348c2.453-2.796,6.487-3.336,11.872-1.527     c2.077,0.698,3.896,1.604,5.422,2.701c2.575-2.716,5.861-4.256,9.144-4.256c2.223,0,4.41,0.681,6.5,2.023     c4.95,3.18,7.954,8.069,8.2,13.246c2.905,0.082,5.565,1.392,7.913,3.897c3.185,3.398,3.773,7.964,1.653,12.857     c-3.223,7.44-12.024,13.966-18.835,13.966c-2.133,0.001-3.973-0.607-5.469-1.805c-0.715-0.572-1.361-1.191-1.93-1.848     C64.855,166.147,59.281,167.572,52.214,167.572z M43.107,160.143c0.925,2.62,3.122,5.258,8.203,5.345l0.903,0.008     c8.148,0,12.599-1.911,14.987-3.727c-2.281-3.692-2.106-7.727-0.836-10.226c0.733-1.444,1.798-2.272,2.921-2.272     c0.753,0,2.134,0.387,2.923,2.977c1.098,3.604,0.284,7.129-2.229,9.81c0.492,0.571,1.054,1.11,1.679,1.611     c1.119,0.895,2.522,1.35,4.172,1.349c5.978,0,14.047-6.061,16.93-12.715c1.253-2.891,2.05-7.079-1.263-10.613     c-1.951-2.081-4.12-3.17-6.45-3.241c-0.49,4.971-3.6,8.72-7.809,9.266c-2.743,0.359-3.659-1.076-3.712-2.406     c-0.119-2.928,4.103-7.849,9.501-8.784c-0.198-4.524-2.857-8.827-7.251-11.65c-4.321-2.776-9.273-1.952-12.917,1.81     c3.535,3.365,4.193,7.503,3.207,10.266c-0.687,1.927-2.162,3.124-3.846,3.125h-0.001c-1.01,0-2.05-0.432-3.007-1.249     c-3.149-2.688-2.131-7.938,0.712-11.865c-1.334-0.937-2.928-1.721-4.753-2.334c-4.524-1.521-7.763-1.224-9.651,0.927     c-2.596,2.96-1.912,8.414-1.905,8.469c0.053,0.397-0.128,0.788-0.463,1.006c-0.336,0.217-0.765,0.223-1.108,0.014     c-0.752-0.46-1.585-0.694-2.474-0.694c-3.611,0-7.84,3.884-9.427,8.657c-0.726,2.182-1.845,7.684,3.435,11.634     c2.308,1.726,4.67,2.836,6.909,3.255c-0.46-4.027,0.771-7.95,2.396-9.967c0.906-1.124,1.962-1.718,3.057-1.718     c0.758,0,1.894,0.299,3.006,1.723c2.013,2.578,2.47,5.486,1.254,7.977C49.001,158.369,46.318,159.954,43.107,160.143z      M69.286,151.347c-0.191,0-0.651,0.309-1.07,1.136c-0.929,1.829-1.082,4.933,0.539,7.832c1.786-2.094,2.309-4.703,1.468-7.463     C69.889,151.755,69.471,151.347,69.286,151.347z M45.94,148.287c-0.438,0-0.95,0.335-1.44,0.945     c-1.383,1.717-2.398,5.388-1.893,8.853c2.63-0.042,4.816-1.215,5.728-3.084c0.854-1.75,0.48-3.86-1.025-5.789     C46.981,148.79,46.476,148.287,45.94,148.287z M82.935,138.656c-4.351,0.967-7.398,4.963-7.334,6.569     c0.008,0.198,0.019,0.468,0.847,0.468c0.16,0,0.335-0.012,0.524-0.036C80.087,145.253,82.423,142.445,82.935,138.656z      M61.529,128.282c-2.454,3.419-2.923,7.296-0.967,8.965c1.473,1.262,2.91,0.799,3.552-0.994     C64.86,134.162,64.306,130.984,61.529,128.282z"/>
		</g>
	</g>
	<g>
		<g>
			<path style="fill:#FFFFFF;" d="M408.511,411.948c0,0-2.048-15.547,12.917-10.517c14.965,5.03,10.089,19.265,4.384,14.394     c-5.705-4.871,4.999-21.392,16.451-14.035c11.452,7.356,8.89,21.631,0.767,22.684c-8.123,1.053,4.917-16.62,15.15-5.705     c10.232,10.915-12.108,30.815-21.245,23.499c-9.137-7.317-1.986-19.126,0.205-11.929c2.192,7.197-3.719,14.255-19.923,13.976     c-16.204-0.279-8.829-25.209-3.164-17.953s-3.739,15.447-15.17,6.898C387.45,424.711,400.491,407.037,408.511,411.948z"/>
		</g>
		<g>
			<path style="fill:#241726;" d="M418.137,445.36l-0.939-0.008c-5.312-0.091-9.05-2.812-10.367-7.502     c-2.795-0.353-5.741-1.643-8.57-3.759c-4.48-3.351-5.997-8.435-4.162-13.952c1.879-5.65,6.886-10.077,11.397-10.077     c0.65,0,1.279,0.087,1.882,0.26c-0.019-2.164,0.314-5.847,2.508-8.348c2.452-2.794,6.486-3.337,11.873-1.527     c2.077,0.698,3.896,1.604,5.422,2.701c2.574-2.716,5.86-4.256,9.143-4.256c2.223,0,4.41,0.681,6.5,2.023     c4.95,3.18,7.954,8.069,8.2,13.246c2.905,0.082,5.565,1.392,7.913,3.897c3.185,3.398,3.773,7.964,1.653,12.857     c-3.223,7.44-12.024,13.966-18.835,13.966c-2.133,0.001-3.973-0.607-5.469-1.805c-0.715-0.572-1.361-1.191-1.93-1.848     C430.778,443.935,425.204,445.36,418.137,445.36z M409.031,437.931c0.925,2.62,3.122,5.258,8.203,5.345l0.903,0.008     c8.148,0,12.599-1.911,14.987-3.727c-2.281-3.692-2.106-7.727-0.836-10.226c0.733-1.444,1.798-2.272,2.921-2.272     c0.753,0,2.134,0.387,2.923,2.977c1.098,3.605,0.284,7.129-2.229,9.81c0.492,0.571,1.054,1.11,1.679,1.611     c1.119,0.895,2.522,1.35,4.172,1.349c5.978,0,14.047-6.061,16.93-12.715c1.253-2.891,2.05-7.079-1.263-10.613     c-1.951-2.081-4.12-3.17-6.45-3.241c-0.488,4.971-3.599,8.721-7.809,9.266c-2.733,0.359-3.659-1.076-3.712-2.406     c-0.119-2.928,4.103-7.849,9.501-8.784c-0.197-4.524-2.857-8.827-7.25-11.65c-4.318-2.775-9.273-1.953-12.917,1.81     c3.535,3.365,4.193,7.503,3.207,10.266c-0.687,1.927-2.162,3.124-3.846,3.125h-0.001c-1.01,0-2.05-0.432-3.007-1.249     c-3.149-2.688-2.131-7.939,0.712-11.866c-1.334-0.936-2.927-1.72-4.752-2.333c-4.526-1.522-7.763-1.225-9.652,0.927     c-2.596,2.961-1.912,8.414-1.905,8.469c0.053,0.397-0.128,0.788-0.463,1.006c-0.336,0.217-0.764,0.223-1.108,0.014     c-0.752-0.46-1.585-0.694-2.474-0.694c-3.611,0-7.839,3.884-9.427,8.656c-0.726,2.183-1.845,7.685,3.436,11.635     c2.308,1.726,4.669,2.836,6.908,3.255c-0.46-4.027,0.771-7.95,2.396-9.967c0.906-1.124,1.962-1.718,3.057-1.718     c0.758,0,1.894,0.299,3.006,1.723c2.013,2.578,2.47,5.486,1.254,7.977C414.924,436.158,412.242,437.743,409.031,437.931z      M435.209,429.135c-0.191,0-0.651,0.309-1.07,1.136c-0.929,1.829-1.082,4.933,0.539,7.832c1.786-2.094,2.309-4.703,1.468-7.463     C435.812,429.544,435.395,429.135,435.209,429.135z M411.864,426.076c-0.438,0-0.95,0.335-1.44,0.945     c-1.383,1.717-2.398,5.388-1.893,8.853c2.63-0.042,4.816-1.215,5.728-3.084c0.854-1.75,0.48-3.86-1.025-5.789     C412.905,426.578,412.4,426.076,411.864,426.076z M448.859,416.444c-4.352,0.967-7.399,4.963-7.335,6.569     c0.008,0.198,0.019,0.468,0.847,0.468c0.16,0,0.335-0.012,0.524-0.036C446.01,423.041,448.346,420.234,448.859,416.444z      M427.452,406.07c-2.453,3.418-2.923,7.296-0.967,8.965c1.474,1.26,2.91,0.8,3.551-0.994     C430.783,411.951,430.229,408.772,427.452,406.07z"/>
		</g>
	</g>
	<g>
		<g>
			<path style="fill:#859538;" d="M414.58,361.885c0,0-27.04-28.512-21.69-37.731c11.818-20.364,24.079,27.386,24.079,27.386     s14.65-33.966,26.371-21.886C455.061,341.734,414.58,361.885,414.58,361.885z"/>
		</g>
		<g>
			<path style="fill:#859538;" d="M422.521,321.234c0,0-44.297-5.201-28.724-26.281c7.84-10.612,25.967,18.317,25.967,18.317     s8.282-34.984,20.042-28.245C459.624,296.382,422.521,321.234,422.521,321.234z"/>
		</g>
		<g>
			<path style="fill:#241726;" d="M404.111,379.651c-0.213,0-0.427-0.065-0.612-0.201c-0.462-0.339-0.562-0.987-0.224-1.45     c0.398-0.545,39.441-55.248-0.322-115.179c-0.317-0.477-0.186-1.122,0.291-1.438c0.476-0.32,1.121-0.186,1.438,0.291     c40.58,61.161,0.676,116.996,0.268,117.553C404.747,379.504,404.432,379.651,404.111,379.651z"/>
		</g>
		<g>
			<path style="fill:none;stroke:#241726;stroke-linecap:round;stroke-linejoin:round;stroke-miterlimit:10;" d="M408.358,269.319"/>
		</g>
		<g>
			<g>
				<path style="fill:#F4BF00;" d="M393.892,231.241c0,0-2.268-17.82,5.488-17.41c7.756,0.41,8.572,18.187,8.572,18.187      s17.228-15.554,20.745-5.981c3.517,9.573-9.163,17.056-9.163,17.056s21.314,0.645,20.963,10.335      c-0.352,9.69-17.798,8.928-17.798,8.928s11.898,9.319,2.384,14.77s-19.517-5.216-19.517-5.216s-4.024,16.255-11.116,16.469      c-7.092,0.215-5.685-17.251-5.685-17.251s-17.212,6.975-18.755-1.367c-1.543-8.342,8.635-13.168,8.635-13.168      s-15.024-5.998-13.891-11.194c1.133-5.197,15.414-2.403,15.414-2.403s-12.438-13.732-6.187-20.374      S393.892,231.241,393.892,231.241z"/>
			</g>
			<g>
				<circle style="fill:#E57F0D;" cx="402.01" cy="250.4" r="11.933"/>
			</g>
			<g>
				<path style="fill:#241726;" d="M396.069,257.392c-0.007,0-0.015,0-0.023,0c-0.573-0.013-1.027-0.487-1.014-1.061      c0.095-4.273,6.17-13.3,6.862-14.316c0.322-0.475,0.968-0.594,1.442-0.273c0.473,0.323,0.596,0.969,0.273,1.442      c-1.785,2.618-6.433,10.092-6.502,13.193C397.094,256.942,396.632,257.392,396.069,257.392z"/>
			</g>
			<g>
				<path style="fill:#241726;" d="M401.072,259.176c-0.018,0-0.038,0-0.056-0.001c-0.573-0.03-1.011-0.519-0.982-1.092      c0.144-2.717,5.572-11.448,6.659-13.171c0.307-0.485,0.951-0.63,1.431-0.324c0.485,0.306,0.63,0.947,0.324,1.431      c-2.404,3.813-6.251,10.489-6.34,12.174C402.078,258.746,401.62,259.176,401.072,259.176z"/>
			</g>
			<g>
				<path style="fill:#241726;" d="M405.728,256.67c-0.352,0-0.695-0.178-0.89-0.502c-1.342-2.227-9.359-5.65-14.096-7.285      c-0.542-0.188-0.829-0.777-0.643-1.32c0.185-0.541,0.776-0.829,1.32-0.643c1.327,0.458,13.026,4.577,15.196,8.175      c0.296,0.492,0.138,1.129-0.353,1.425C406.095,256.622,405.91,256.67,405.728,256.67z"/>
			</g>
			<g>
				<path style="fill:#241726;" d="M408.594,251.851c-0.385,0-0.754-0.215-0.934-0.584c-1.549-3.181-8.701-6.665-11.326-7.738      c-0.53-0.217-0.784-0.823-0.568-1.353c0.217-0.53,0.827-0.783,1.353-0.569c0.416,0.17,10.195,4.208,12.407,8.751      c0.25,0.515,0.036,1.136-0.479,1.387C408.901,251.817,408.746,251.851,408.594,251.851z"/>
			</g>
			<g>
				<path style="fill:#241726;" d="M416.837,268.379c-0.47,0-0.896-0.322-1.009-0.8c-0.039-0.16-0.96-3.77-5.13-5.33      c-0.537-0.201-0.809-0.799-0.608-1.336c0.201-0.536,0.802-0.807,1.336-0.608c5.248,1.963,6.379,6.605,6.425,6.802      c0.129,0.558-0.219,1.116-0.777,1.246C416.993,268.371,416.915,268.379,416.837,268.379z"/>
			</g>
			<g>
				<path style="fill:#241726;" d="M425.881,254.552c-0.231,0-0.464-0.077-0.657-0.234c-0.05-0.041-4.891-3.931-9.341-2.109      c-0.534,0.218-1.136-0.034-1.354-0.566c-0.218-0.531,0.035-1.137,0.566-1.354c5.612-2.301,11.211,2.231,11.447,2.424      c0.442,0.364,0.505,1.017,0.142,1.459C426.479,254.423,426.181,254.552,425.881,254.552z"/>
			</g>
			<g>
				<path style="fill:#241726;" d="M409.971,240.487c-0.055,0-0.11-0.004-0.166-0.011c-0.569-0.077-0.945-0.678-0.868-1.246      c0.061-0.444,0.244-1.793,8.705-6.81c0.493-0.293,1.128-0.13,1.422,0.364c0.292,0.493,0.13,1.129-0.364,1.422      c-3.394,2.013-7.322,4.672-7.749,5.458C410.882,240.176,410.468,240.487,409.971,240.487z"/>
			</g>
			<g>
				<path style="fill:#241726;" d="M399.535,236.853c-0.44,0-0.848-0.281-0.989-0.723c-1.024-3.211,0.29-9.323,0.347-9.582      c0.122-0.56,0.674-0.914,1.234-0.793c0.559,0.122,0.915,0.675,0.794,1.234c-0.352,1.612-1.107,6.284-0.396,8.509      c0.173,0.546-0.128,1.13-0.674,1.304C399.745,236.838,399.639,236.853,399.535,236.853z"/>
			</g>
			<g>
				<path style="fill:#241726;" d="M390.184,240.578c-0.381,0-0.748-0.211-0.929-0.575c-0.966-1.936-4.48-3.397-5.753-3.797      c-0.546-0.172-0.85-0.754-0.679-1.301c0.17-0.546,0.748-0.856,1.301-0.679c0.554,0.174,5.461,1.79,6.987,4.851      c0.256,0.513,0.048,1.136-0.465,1.392C390.497,240.543,390.339,240.578,390.184,240.578z"/>
			</g>
			<g>
				<path style="fill:#241726;" d="M388.15,251.609c-0.221,0-0.443-0.07-0.631-0.215c-1.439-1.109-7.356-0.967-11.095-0.509      c-0.571,0.068-1.086-0.336-1.156-0.905c-0.069-0.57,0.336-1.086,0.905-1.156c1.648-0.199,9.987-1.093,12.611,0.924      c0.455,0.35,0.539,1.001,0.191,1.455C388.769,251.47,388.461,251.609,388.15,251.609z"/>
			</g>
			<g>
				<path style="fill:#241726;" d="M384.191,262.915c-0.265,0-0.528-0.1-0.731-0.301c-0.406-0.403-0.409-1.06-0.006-1.468      c0.461-0.465,4.612-4.5,7.552-4.383c0.572,0.03,1.011,0.519,0.982,1.092c-0.03,0.572-0.507,0.994-1.092,0.982      c-1.494-0.158-4.479,2.269-5.968,3.771C384.725,262.813,384.458,262.915,384.191,262.915z"/>
			</g>
			<g>
				<path style="fill:#241726;" d="M396.566,273.725c-0.057,0-0.116-0.005-0.173-0.014c-0.566-0.095-0.947-0.631-0.851-1.196      c0.501-2.965,1.513-8.088,2.676-9.078c0.436-0.371,1.092-0.319,1.464,0.118c0.371,0.437,0.318,1.092-0.118,1.464      c-0.475,0.571-1.415,4.525-1.974,7.841C397.503,273.366,397.064,273.725,396.566,273.725z"/>
			</g>
		</g>
		<g>
			<path style="fill:#241726;" d="M420.812,319.142c-0.464,0-0.888-0.314-1.005-0.785c-0.14-0.556,0.198-1.12,0.754-1.259     c4.271-1.071,10.265-13.987,12.215-18.873c0.213-0.534,0.822-0.794,1.348-0.58c0.533,0.212,0.793,0.816,0.58,1.348     c-0.757,1.899-7.574,18.598-13.638,20.118C420.98,319.132,420.896,319.142,420.812,319.142z"/>
		</g>
		<g>
			<path style="fill:#241726;" d="M419.7,318.094c-0.113,0-0.229-0.018-0.343-0.059c-4.837-1.694-15.639-9.959-16.096-10.31     c-0.455-0.349-0.541-1-0.192-1.454c0.348-0.453,0.998-0.542,1.454-0.192c0.109,0.083,10.993,8.413,15.519,9.998     c0.541,0.189,0.826,0.781,0.636,1.322C420.53,317.827,420.129,318.094,419.7,318.094z"/>
		</g>
		<g>
			<path style="fill:#241726;" d="M415.982,355.374c-0.299,0-0.593-0.129-0.796-0.37c-2.819-3.357-9.791-14.482-10.087-14.954     c-0.304-0.485-0.157-1.126,0.329-1.43c0.484-0.306,1.125-0.159,1.43,0.329c0.067,0.107,6.349,10.129,9.372,14.039     c5.774-3.396,12.036-7.5,12.597-8.551c0.267-0.504,0.896-0.704,1.399-0.443c0.506,0.262,0.709,0.874,0.453,1.381     c-1.075,2.122-11.122,8.082-14.176,9.857C416.34,355.328,416.16,355.374,415.982,355.374z"/>
		</g>
	</g>
	<g>
		<g>
			<path style="fill:#859538;" d="M31.052,339.475c0,0,27.04-28.512,21.69-37.731c-11.818-20.363-24.079,27.386-24.079,27.386     s-14.65-33.966-26.371-21.886C-9.429,319.324,31.052,339.475,31.052,339.475z"/>
		</g>
		<g>
			<path style="fill:#859538;" d="M23.111,298.824c0,0,44.297-5.201,28.724-26.281c-7.84-10.612-25.967,18.317-25.967,18.317     s-8.282-34.984-20.042-28.245C-13.992,273.972,23.111,298.824,23.111,298.824z"/>
		</g>
		<g>
			<path style="fill:#241726;" d="M41.52,357.24c-0.319,0-0.635-0.147-0.838-0.425c-0.408-0.556-40.313-56.392,0.268-117.552     c0.314-0.477,0.959-0.611,1.438-0.291c0.477,0.316,0.608,0.961,0.291,1.438C2.89,300.38,41.957,355.044,42.357,355.589     c0.339,0.462,0.238,1.112-0.224,1.45C41.948,357.176,41.733,357.24,41.52,357.24z"/>
		</g>
		<g>
			<path style="fill:none;stroke:#241726;stroke-linecap:round;stroke-linejoin:round;stroke-miterlimit:10;" d="M37.274,246.909"/>
		</g>
		<g>
			<g>
				<path style="fill:#F4BF00;" d="M51.74,208.831c0,0,2.268-17.82-5.488-17.41c-7.756,0.41-8.572,18.187-8.572,18.187      s-17.228-15.554-20.745-5.981s9.163,17.056,9.163,17.056s-21.314,0.645-20.963,10.335c0.352,9.69,17.798,8.928,17.798,8.928      s-11.898,9.319-2.384,14.77s19.517-5.216,19.517-5.216s4.024,16.254,11.116,16.469c7.092,0.215,5.685-17.251,5.685-17.251      s17.212,6.975,18.755-1.367s-8.635-13.168-8.635-13.168s15.024-5.998,13.891-11.194s-15.414-2.403-15.414-2.403      s12.438-13.732,6.187-20.374C65.399,193.569,51.74,208.831,51.74,208.831z"/>
			</g>
			<g>
				<circle style="fill:#E57F0D;" cx="43.622" cy="227.99" r="11.933"/>
			</g>
			<g>
				<path style="fill:#241726;" d="M49.562,234.982c-0.562,0-1.025-0.45-1.038-1.014c-0.069-3.102-4.717-10.575-6.502-13.193      c-0.323-0.473-0.201-1.119,0.273-1.442c0.475-0.321,1.12-0.202,1.442,0.273c0.692,1.016,6.767,10.043,6.862,14.316      c0.012,0.574-0.442,1.048-1.015,1.061C49.578,234.982,49.57,234.982,49.562,234.982z"/>
			</g>
			<g>
				<path style="fill:#241726;" d="M44.56,236.767c-0.548,0-1.006-0.43-1.036-0.983c-0.089-1.686-3.935-8.362-6.339-12.174      c-0.306-0.484-0.161-1.125,0.324-1.431c0.484-0.303,1.126-0.159,1.431,0.324c1.086,1.722,6.514,10.453,6.658,13.171      c0.029,0.573-0.409,1.061-0.982,1.092C44.597,236.767,44.578,236.767,44.56,236.767z"/>
			</g>
			<g>
				<path style="fill:#241726;" d="M39.904,234.26c-0.182,0-0.367-0.048-0.535-0.149c-0.491-0.296-0.649-0.933-0.353-1.425      c2.17-3.598,13.87-7.717,15.196-8.175c0.54-0.186,1.133,0.099,1.32,0.643c0.186,0.542-0.1,1.132-0.643,1.32      c-4.737,1.635-12.754,5.058-14.096,7.285C40.599,234.081,40.256,234.26,39.904,234.26z"/>
			</g>
			<g>
				<path style="fill:#241726;" d="M37.039,229.44c-0.152,0-0.307-0.033-0.453-0.104c-0.516-0.251-0.73-0.873-0.479-1.387      c2.212-4.543,11.991-8.581,12.406-8.751c0.527-0.219,1.135,0.038,1.353,0.568c0.217,0.531-0.037,1.137-0.568,1.354      c-2.625,1.073-9.776,4.557-11.325,7.738C37.793,229.225,37.424,229.44,37.039,229.44z"/>
			</g>
			<g>
				<path style="fill:#241726;" d="M28.795,245.966c-0.079,0-0.159-0.009-0.239-0.028c-0.555-0.132-0.901-0.685-0.772-1.242      c0.046-0.197,1.177-4.837,6.423-6.801c0.537-0.199,1.134,0.071,1.336,0.608c0.201,0.537-0.071,1.135-0.608,1.336      c-4.174,1.562-5.093,5.177-5.13,5.33C29.69,245.645,29.264,245.966,28.795,245.966z"/>
			</g>
			<g>
				<path style="fill:#241726;" d="M19.751,232.141c-0.3,0-0.598-0.13-0.803-0.379c-0.363-0.443-0.3-1.096,0.142-1.459      c0.236-0.195,5.843-4.718,11.446-2.425c0.531,0.218,0.784,0.824,0.568,1.354c-0.219,0.532-0.826,0.786-1.354,0.568      c-4.451-1.826-9.294,2.069-9.342,2.108C20.215,232.064,19.982,232.141,19.751,232.141z"/>
			</g>
			<g>
				<path style="fill:#241726;" d="M35.664,217.998c-0.512,0-0.957-0.378-1.028-0.899c-0.384-0.631-4.311-3.29-7.706-5.302      c-0.494-0.293-0.656-0.929-0.364-1.422c0.292-0.494,0.929-0.656,1.422-0.364c8.462,5.017,8.645,6.366,8.705,6.81      c0.077,0.568-0.321,1.091-0.89,1.168C35.758,217.995,35.71,217.998,35.664,217.998z"/>
			</g>
			<g>
				<path style="fill:#241726;" d="M46.098,214.443c-0.104,0-0.211-0.015-0.315-0.049c-0.546-0.174-0.847-0.758-0.674-1.304      c0.711-2.23-0.045-6.899-0.396-8.509c-0.122-0.559,0.233-1.113,0.794-1.235c0.558-0.124,1.113,0.233,1.235,0.794      c0.056,0.258,1.368,6.371,0.346,9.582C46.947,214.161,46.538,214.443,46.098,214.443z"/>
			</g>
			<g>
				<path style="fill:#241726;" d="M55.449,218.168c-0.155,0-0.313-0.034-0.462-0.109c-0.513-0.255-0.722-0.879-0.465-1.392      c1.526-3.061,6.432-4.677,6.986-4.852c0.547-0.174,1.129,0.132,1.3,0.678c0.172,0.546-0.131,1.129-0.677,1.302      c-1.274,0.402-4.79,1.869-5.753,3.798C56.197,217.958,55.83,218.168,55.449,218.168z"/>
			</g>
			<g>
				<path style="fill:#241726;" d="M57.482,229.199c-0.312,0-0.619-0.14-0.824-0.405c-0.35-0.455-0.264-1.106,0.191-1.455      c2.627-2.019,10.965-1.123,12.611-0.923c0.569,0.07,0.974,0.587,0.904,1.155c-0.069,0.569-0.598,0.975-1.154,0.906      c-3.741-0.455-9.659-0.596-11.096,0.508C57.925,229.129,57.702,229.199,57.482,229.199z"/>
			</g>
			<g>
				<path style="fill:#241726;" d="M61.441,240.505c-0.268,0-0.534-0.102-0.737-0.307c-1.49-1.501-4.467-3.902-5.968-3.77      c-0.568,0.009-1.061-0.41-1.092-0.982c-0.029-0.573,0.409-1.061,0.982-1.092c2.95-0.082,7.09,3.918,7.552,4.382      c0.403,0.407,0.4,1.064-0.006,1.468C61.969,240.404,61.705,240.505,61.441,240.505z"/>
			</g>
			<g>
				<path style="fill:#241726;" d="M49.066,251.315c-0.498,0-0.936-0.359-1.023-0.866c-0.559-3.316-1.499-7.271-2.005-7.871      c-0.437-0.372-0.473-1.011-0.101-1.448c0.37-0.438,1.041-0.474,1.479-0.102c1.161,0.989,2.174,6.111,2.675,9.077      c0.095,0.565-0.286,1.101-0.851,1.196C49.181,251.309,49.123,251.315,49.066,251.315z"/>
			</g>
		</g>
		<g>
			<path style="fill:#241726;" d="M24.82,296.732c-0.084,0-0.168-0.01-0.253-0.031c-6.063-1.52-12.88-18.218-13.638-20.118     c-0.213-0.532,0.047-1.136,0.58-1.348c0.528-0.214,1.135,0.047,1.348,0.58c1.95,4.886,7.945,17.802,12.215,18.873     c0.556,0.139,0.894,0.703,0.754,1.259C25.708,296.418,25.284,296.732,24.82,296.732z"/>
		</g>
		<g>
			<path style="fill:#241726;" d="M25.933,295.685c-0.429,0-0.83-0.268-0.979-0.694c-0.19-0.541,0.095-1.133,0.635-1.323     c4.527-1.586,15.41-9.915,15.52-9.998c0.457-0.35,1.108-0.263,1.454,0.192c0.35,0.454,0.264,1.106-0.192,1.454     c-0.457,0.352-11.259,8.616-16.095,10.31C26.163,295.667,26.046,295.685,25.933,295.685z"/>
		</g>
		<g>
			<path style="fill:#241726;" d="M29.65,332.963c-0.177,0-0.358-0.046-0.521-0.141c-3.054-1.776-13.1-7.735-14.176-9.856     c-0.259-0.511-0.055-1.136,0.456-1.395c0.507-0.262,1.135-0.056,1.395,0.456c0.56,1.051,6.824,5.154,12.598,8.55     c3.023-3.91,9.304-13.93,9.371-14.038c0.304-0.485,0.946-0.633,1.43-0.329c0.486,0.304,0.633,0.945,0.329,1.43     c-0.296,0.472-7.268,11.596-10.086,14.953C30.243,332.835,29.949,332.963,29.65,332.963z"/>
		</g>
	</g>
	<g>
		<g>
			<g>
				<circle style="fill:#397691;" cx="226.417" cy="308.231" r="119.958"/>
			</g>
			<g>
				<path style="fill:#52AFA6;" d="M150.089,216.161c0,0,10.112,2.974,18.439,10.112c8.327,7.138,11.301,4.758,20.223,7.138      c8.922,2.379,25.577,7.732,18.439,14.87s-22.603,3.569-32.714,10.112c-10.112,6.543,7.732,3.569,12.491,11.896      c4.758,8.327-14.275,13.681-13.086,22.603c1.19,8.922,3.569,13.086,2.974,22.008s-23.198-5.353-27.361-9.517      c-4.164-4.164-8.922,8.922,1.784,16.655c10.707,7.733,31.525,4.164,42.826,5.948c11.301,1.784,4.164,6.543,22.603,13.086      c18.439,6.543,11.301,14.87,7.732,26.172s-17.249,24.387-17.844,33.904c-0.595,9.517,3.924,18.297-7.732,17.844      c-11.657-0.453-30.93-14.275-30.93-20.223s9.517-11.301-5.353-20.818s-24.982-12.491-20.818-23.792      c4.164-11.301,8.922-11.301,6.543-17.844c-2.379-6.543-14.87-3.569-17.249-14.275c-2.379-10.707,3.569-18.439-1.784-21.413      c-5.353-2.974-19.034,6.543-23.198,3.569C101.91,301.218,114.401,241.737,150.089,216.161z"/>
			</g>
			<g>
				<path style="fill:#52AFA6;" d="M301.17,215.566c0,0-15.465,1.784-19.629,5.948s0.595,9.517-7.733,15.465      c-8.327,5.948-15.465,10.707-10.112,17.249c5.353,6.543,9.517,6.543,19.034,10.707c9.517,4.164,14.87,0.595,16.655,5.353      c1.784,4.758,4.758,8.327,12.491,10.707c7.733,2.379,7.138-4.164,11.896,2.379c4.758,6.543,9.517,10.112,12.491,3.569      s-11.301-17.844-11.896-22.603s14.275,4.164,14.87,2.379C339.833,264.935,317.825,219.729,301.17,215.566z"/>
			</g>
			<g>
				<path style="fill:#52AFA6;" d="M266.077,225.677c0,0,2.379,5.353,0,8.327c-2.379,2.974-4.758,5.353-11.301,8.327      c-6.543,2.974-8.922-4.164-3.569-13.681s8.922-13.086,11.896-11.896C266.077,217.945,266.077,222.109,266.077,225.677z"/>
			</g>
			<g>
				<path style="fill:#52AFA6;" d="M345.781,300.623c0,0-24.387-13.086-30.93-14.275c-6.543-1.19-17.249-8.922-23.792-2.379      c-6.543,6.543-11.896,2.974-13.086,7.732c-1.19,4.758,0,11.301-2.379,19.629c-2.379,8.327-5.948,13.681-0.595,21.413      c0,0,3.569,8.327,11.896,10.707s11.301,1.19,13.086,5.948c1.784,4.758-5.948,10.707-4.164,19.034s11.896,24.387,16.655,23.198      c4.758-1.19,18.439-17.844,19.629-22.008c1.19-4.164-3.569-14.275-0.595-20.223c2.974-5.948,14.275-14.275,14.87-26.172      C346.971,311.33,345.781,300.623,345.781,300.623z"/>
			</g>
			<g>
				<path style="fill:#52AFA6;" d="M172.097,219.729c0,0,2.379,2.974,8.327,4.758s10.112,2.379,14.275,2.379s0-6.543-4.758-9.517      c-4.758-2.974-11.896-6.543-14.87-6.543S168.528,215.566,172.097,219.729z"/>
			</g>
			<g>
				<path style="fill:#52AFA6;" d="M169.718,203.075c0,0,4.164,2.974,13.086,5.353c8.922,2.379,12.491,7.733,16.655,6.543      c4.164-1.19,2.379-9.517-1.784-11.896c-4.164-2.379-4.758-1.784-4.758-5.353s-10.112-0.595-10.112-0.595      S173.287,199.506,169.718,203.075z"/>
			</g>
			<g>
				<path style="fill:#52AFA6;" d="M158.416,209.618c0,0,2.379,0.595,5.353,2.974c2.974,2.379,4.164-7.733,2.379-8.327      S158.416,209.618,158.416,209.618z"/>
			</g>
		</g>
		<g>
			<path style="fill:#B1739A;" d="M223.968,426.284c0,0-19.718-17.643-37.361,5.189c-17.643,22.832-33.21,33.21-17.643,41.513     c15.567,8.302,64.344-6.227,66.42-17.643C237.459,443.927,223.968,426.284,223.968,426.284z"/>
		</g>
		<g>
			<path style="fill:#E17B8D;" d="M242.332,394.377c0,0,73.376-37.152,113.074-41.375c33.233-3.535,41.388,60.814-5.068,80.241     c-14.234,5.952-68.569,22.365-89.325,14.062C240.256,439.003,242.332,394.377,242.332,394.377z"/>
		</g>
		<g>
			<path style="fill:#B45036;" d="M175.989,126.679c7.363-3.433,9.087,4.577,9.421,10.283c6.714-15.117,16.717-34.361,55.088-22.643     c0,0,17.332,4.775,20.791,34.721c2.298,19.897-17.735,59.192-38.673,60.633c-7.488,0.516-18.205,2.411-22.256-1.252     c-16.626-15.034-31.473-3.939-35.055-10.787c-7.679-14.681,11.702-37.686,11.702-37.686s0.827-2.925,2.333-7.356     c-3.119,3.489-7.268,5.605-12.044,1.713C158.584,147.208,164.961,131.821,175.989,126.679z"/>
		</g>
		<g>
			<path style="fill:#241726;" d="M224.893,182.845c-0.232,0-0.497-0.051-0.792-0.189c-3.469-1.617-12.036-3.62-12.122-3.64     c-0.558-0.13-0.906-0.687-0.775-1.246c0.13-0.558,0.69-0.915,1.246-0.775c0.348,0.08,8.274,1.935,12.123,3.598     c0.344-2.325-1.725-11.428-4.029-19.203c-0.162-0.549,0.151-1.127,0.7-1.29c0.55-0.165,1.128,0.152,1.29,0.7     c2.645,8.927,5.375,19.934,3.355,21.674C225.732,182.61,225.389,182.845,224.893,182.845z"/>
		</g>
		<g>
			<path style="fill:#241726;" d="M174.374,148.255c-0.096,0-0.194-0.013-0.29-0.041c-0.55-0.16-0.868-0.736-0.708-1.286     c1.389-4.799,2.125-9.701,1.575-10.491c-0.398-0.306-2.671,0.953-4.677,2.915c-0.409,0.402-1.067,0.393-1.468-0.016     c-0.401-0.41-0.393-1.067,0.016-1.468c1.176-1.15,5.184-4.767,7.437-3.034c1.979,1.52,0.293,8.591-0.889,12.672     C175.238,147.96,174.824,148.255,174.374,148.255z"/>
		</g>
		<g>
			<path style="fill:#241726;" d="M204.624,162.106c-0.524,0-1.049-0.151-1.556-0.45c-5.257-3.1-2.829-14.086-2.534-15.329     c0.131-0.557,0.683-0.909,1.249-0.77c0.557,0.132,0.902,0.69,0.771,1.249c-0.699,2.963-1.782,11.088,1.568,13.063     c0.394,0.231,0.644,0.174,0.856,0.074c2.316-1.073,4.493-9.158,5.321-14.001c0.096-0.563,0.634-0.947,1.197-0.848     c0.566,0.096,0.946,0.632,0.848,1.197c-0.387,2.271-2.523,13.694-6.492,15.536C205.449,162.013,205.037,162.106,204.624,162.106z     "/>
		</g>
		<g>
			<path style="fill:#241726;" d="M236.653,178.11c-0.495,0-0.974-0.108-1.434-0.325c-4.954-2.338-0.284-13.491,0.703-15.702     c0.234-0.523,0.85-0.759,1.37-0.525c0.523,0.233,0.758,0.846,0.525,1.37c-2.107,4.731-4.033,11.885-1.713,12.98     c0.355,0.166,0.727,0.168,1.177,0.001c2.802-1.04,6.157-7.413,7.213-9.78c0.233-0.522,0.849-0.761,1.37-0.525     c0.524,0.233,0.759,0.847,0.525,1.37c-0.425,0.953-4.271,9.355-8.387,10.881C237.542,178.025,237.091,178.11,236.653,178.11z"/>
		</g>
		<g>
			<path style="fill:#241726;" d="M204.422,195.972c-0.736,0-1.406-0.161-2.012-0.481c-5.278-2.792-2.469-16.682-2.131-18.257     c0.121-0.559,0.666-0.921,1.232-0.797c0.559,0.12,0.917,0.672,0.797,1.232c-1.146,5.355-1.869,14.431,1.073,15.987     c1.262,0.666,4.595,0.505,12.775-8.069c0.396-0.415,1.055-0.429,1.468-0.034c0.415,0.396,0.43,1.053,0.034,1.468     C211.937,193.016,207.576,195.972,204.422,195.972z"/>
		</g>
		<g>
			<path style="fill:#B1739A;" d="M256.798,405.37c0,0,24.066-7.867,36.32,5.068c15.204,16.048,40.543,37.164,30.407,51.523     c-10.136,14.359-49.834-9.291-67.571-10.136C238.216,450.981,256.798,405.37,256.798,405.37z"/>
		</g>
		<g>
			<path style="fill:#E17B8D;" d="M91.248,363.138c0,0,49.834-5.068,165.55,28.718c15.207,4.44,0.555,43.536-4.223,65.038     c-3.379,15.204-175.565-3.28-180.754-21.961C66.632,416.252,68.416,362.1,91.248,363.138z"/>
		</g>
		<g>
			<path style="fill:#241726;" d="M307.478,463.843c-0.363,0-0.715-0.191-0.905-0.529c-4.96-8.816-21.494-13.61-33.567-17.111     c-5.894-1.709-10.55-3.059-12.588-4.514c-0.466-0.333-0.575-0.981-0.241-1.447c0.333-0.465,0.983-0.574,1.447-0.241     c1.749,1.249,6.48,2.621,11.959,4.209c12.417,3.6,29.422,8.531,34.797,18.087c0.282,0.5,0.104,1.132-0.395,1.413     C307.825,463.801,307.651,463.843,307.478,463.843z"/>
		</g>
		<g>
			<path style="fill:#241726;" d="M272.847,457.086c-0.359,0-0.706-0.185-0.899-0.518c-0.288-0.496-0.119-1.131,0.378-1.418     c4.187-2.424,6.541-5.406,6.997-8.862c0.877-6.649-5.458-13.092-5.523-13.157c-0.404-0.405-0.403-1.062,0.002-1.467     c0.406-0.405,1.062-0.403,1.467,0c0.291,0.291,7.118,7.217,6.113,14.885c-0.541,4.132-3.239,7.631-8.017,10.396     C273.203,457.042,273.024,457.086,272.847,457.086z"/>
		</g>
		<g>
			<path style="fill:#241726;" d="M288.896,459.62c-0.353,0-0.696-0.179-0.891-0.504c-0.295-0.492-0.136-1.129,0.356-1.424     c2.49-1.494,1.708-13.117,0.356-20.893c-0.098-0.565,0.28-1.102,0.845-1.2c0.56-0.091,1.102,0.281,1.2,0.845     c0.585,3.361,3.267,20.268-1.333,23.027C289.262,459.572,289.077,459.62,288.896,459.62z"/>
		</g>
		<g>
			<path style="fill:#241726;" d="M314.234,444.417c-0.411,0-0.802-0.246-0.964-0.653c-4.905-12.263-29.824-31.465-30.075-31.657     c-0.455-0.349-0.541-1-0.193-1.455c0.351-0.452,1.001-0.539,1.455-0.193c1.044,0.801,25.624,19.748,30.74,32.535     c0.213,0.532-0.047,1.136-0.579,1.349C314.494,444.393,314.363,444.417,314.234,444.417z"/>
		</g>
		<g>
			<path style="fill:#241726;" d="M242.439,453.707c-0.207,0-0.416-0.062-0.598-0.19c-0.468-0.331-0.58-0.978-0.249-1.447     c9.819-13.909,8.274-53.02,8.258-53.413c-0.024-0.573,0.42-1.057,0.992-1.081c0.566-0.032,1.057,0.42,1.081,0.992     c0.07,1.636,1.587,40.218-8.635,54.7C243.085,453.554,242.765,453.707,242.439,453.707z"/>
		</g>
		<g>
			<g>
				<path style="fill:#241726;" d="M172.335,380.223c-0.363,0-0.716-0.191-0.906-0.53c-0.835-1.488-1.775-2.337-2.793-2.523      c-1.309-0.233-2.448,0.701-2.46,0.711c-0.434,0.368-1.089,0.315-1.46-0.118c-0.37-0.434-0.324-1.083,0.107-1.456      c0.075-0.066,1.868-1.581,4.153-1.185c1.669,0.292,3.104,1.488,4.263,3.554c0.281,0.5,0.102,1.133-0.397,1.413      C172.68,380.181,172.506,380.223,172.335,380.223z"/>
			</g>
			<g>
				<path style="fill:#241726;" d="M163.182,384.044c-0.363,0-0.716-0.191-0.906-0.53c-0.839-1.496-1.785-2.345-2.81-2.525      c-1.316-0.229-2.427,0.699-2.438,0.708c-0.431,0.375-1.087,0.329-1.463-0.105c-0.375-0.433-0.328-1.088,0.105-1.463      c0.074-0.066,1.85-1.592,4.154-1.185c1.67,0.292,3.104,1.488,4.263,3.554c0.281,0.5,0.102,1.133-0.397,1.413      C163.527,384.002,163.354,384.044,163.182,384.044z"/>
			</g>
			<g>
				<path style="fill:#241726;" d="M158.271,375.161c-0.363,0-0.716-0.191-0.906-0.53c-0.839-1.497-1.786-2.346-2.811-2.526      c-1.311-0.23-2.425,0.699-2.437,0.708c-0.43,0.376-1.088,0.329-1.463-0.105c-0.375-0.433-0.328-1.088,0.105-1.463      c0.075-0.065,1.865-1.583,4.153-1.185c1.67,0.292,3.104,1.488,4.264,3.555c0.281,0.5,0.102,1.132-0.397,1.413      C158.617,375.118,158.444,375.161,158.271,375.161z"/>
			</g>
			<g>
				<path style="fill:#241726;" d="M151.157,380.211c-0.363,0-0.716-0.191-0.906-0.53c-0.835-1.488-1.775-2.337-2.793-2.523      c-1.311-0.23-2.449,0.701-2.46,0.711c-0.436,0.369-1.091,0.316-1.46-0.118c-0.37-0.434-0.324-1.083,0.107-1.456      c0.074-0.065,1.867-1.586,4.153-1.185c1.669,0.292,3.104,1.488,4.263,3.554c0.281,0.5,0.102,1.133-0.397,1.413      C151.502,380.169,151.328,380.211,151.157,380.211z"/>
			</g>
			<g>
				<path style="fill:#241726;" d="M174.902,388.263c-0.363,0-0.716-0.191-0.906-0.53c-0.835-1.488-1.776-2.337-2.794-2.523      c-1.316-0.233-2.448,0.701-2.46,0.711c-0.434,0.369-1.091,0.314-1.46-0.118c-0.37-0.434-0.324-1.083,0.107-1.456      c0.075-0.066,1.86-1.588,4.153-1.185c1.67,0.292,3.104,1.488,4.264,3.554c0.281,0.5,0.102,1.132-0.397,1.413      C175.248,388.221,175.074,388.263,174.902,388.263z"/>
			</g>
			<g>
				<path style="fill:#241726;" d="M181.863,385.474c-0.363,0-0.716-0.191-0.906-0.53c-0.835-1.488-1.776-2.337-2.794-2.523      c-1.31-0.229-2.449,0.702-2.46,0.711c-0.435,0.369-1.089,0.316-1.46-0.118c-0.37-0.434-0.324-1.083,0.107-1.456      c0.074-0.066,1.864-1.587,4.153-1.185c1.67,0.292,3.104,1.488,4.264,3.554c0.281,0.5,0.102,1.132-0.397,1.413      C182.21,385.432,182.036,385.474,181.863,385.474z"/>
			</g>
		</g>
		<g>
			<g>
				<path style="fill:#241726;" d="M324.968,378.027c-0.13,0-0.263-0.024-0.39-0.076c-0.528-0.216-0.784-0.814-0.573-1.343      c0.038-0.092,0.928-2.263,3.148-2.958c1.622-0.507,3.442-0.1,5.419,1.203c0.478,0.316,0.61,0.96,0.295,1.438      c-0.316,0.478-0.958,0.608-1.438,0.295c-1.425-0.941-2.647-1.262-3.639-0.96c-1.277,0.39-1.854,1.745-1.86,1.759      C325.764,377.785,325.375,378.027,324.968,378.027z"/>
			</g>
			<g>
				<path style="fill:#241726;" d="M318.587,385.621c-0.13,0-0.263-0.024-0.39-0.076c-0.528-0.216-0.784-0.814-0.573-1.343      c0.038-0.092,0.928-2.263,3.148-2.958c1.623-0.507,3.443-0.1,5.419,1.203c0.478,0.316,0.61,0.96,0.295,1.438      c-0.317,0.477-0.959,0.61-1.438,0.295c-1.425-0.941-2.649-1.262-3.639-0.96c-1.277,0.39-1.854,1.745-1.86,1.759      C319.383,385.379,318.995,385.621,318.587,385.621z"/>
			</g>
			<g>
				<path style="fill:#241726;" d="M310.149,379.98c-0.13,0-0.263-0.024-0.389-0.076c-0.529-0.216-0.785-0.814-0.574-1.343      c0.038-0.092,0.927-2.262,3.147-2.957c1.616-0.512,3.441-0.103,5.42,1.202c0.478,0.315,0.61,0.96,0.295,1.438      c-0.314,0.477-0.957,0.61-1.438,0.295c-1.426-0.942-2.653-1.263-3.64-0.96c-1.276,0.39-1.853,1.745-1.859,1.759      C310.944,379.738,310.557,379.98,310.149,379.98z"/>
			</g>
			<g>
				<path style="fill:#241726;" d="M306.146,387.736c-0.129,0-0.259-0.023-0.385-0.074c-0.532-0.213-0.792-0.817-0.579-1.349      c0.037-0.092,0.928-2.263,3.148-2.958c1.618-0.51,3.441-0.103,5.419,1.202c0.478,0.316,0.61,0.96,0.295,1.438      c-0.316,0.478-0.961,0.608-1.438,0.295c-1.43-0.944-2.66-1.265-3.655-0.955c-1.27,0.397-1.836,1.735-1.842,1.748      C306.947,387.49,306.557,387.736,306.146,387.736z"/>
			</g>
			<g>
				<path style="fill:#241726;" d="M330.938,383.999c-0.129,0-0.259-0.023-0.385-0.074c-0.532-0.213-0.792-0.817-0.579-1.349      c0.038-0.092,0.928-2.263,3.148-2.958c1.618-0.512,3.441-0.103,5.419,1.202c0.478,0.316,0.61,0.96,0.295,1.438      c-0.316,0.478-0.961,0.607-1.438,0.295c-1.43-0.944-2.661-1.267-3.655-0.955c-1.27,0.397-1.836,1.735-1.841,1.748      C331.739,383.752,331.349,383.999,330.938,383.999z"/>
			</g>
			<g>
				<path style="fill:#241726;" d="M335.844,378.322c-0.13,0-0.263-0.024-0.389-0.076c-0.528-0.216-0.785-0.814-0.574-1.343      c0.038-0.092,0.927-2.263,3.147-2.958c1.625-0.506,3.443-0.1,5.419,1.203c0.478,0.316,0.61,0.96,0.295,1.438      c-0.316,0.478-0.958,0.607-1.438,0.295c-1.425-0.94-2.65-1.26-3.639-0.961c-1.276,0.391-1.853,1.746-1.859,1.76      C336.639,378.08,336.252,378.322,335.844,378.322z"/>
			</g>
		</g>
		<g>
			<path style="fill:#241726;" d="M189.16,452.078c-84.589,0-104.631-27.106-105.519-28.376c-0.328-0.468-0.214-1.113,0.253-1.442     c0.47-0.331,1.117-0.218,1.445,0.25c0.236,0.332,24.791,33.221,131.697,26.59c0.57-0.012,1.064,0.4,1.1,0.972     c0.035,0.572-0.399,1.064-0.972,1.1C207.125,451.794,197.805,452.078,189.16,452.078z"/>
		</g>
		<g>
			<path style="fill:#241726;" d="M331.754,430.902c-0.496,0-0.933-0.356-1.022-0.86c-0.098-0.565,0.28-1.102,0.845-1.2     c18.824-3.273,43.048-33.113,43.291-33.414c0.359-0.446,1.012-0.518,1.458-0.157c0.447,0.359,0.517,1.012,0.157,1.458     c-1.009,1.255-24.965,30.751-44.552,34.158C331.873,430.897,331.813,430.902,331.754,430.902z"/>
		</g>
		<g>
			<path style="fill:#B45036;" d="M157.675,210.692c0,0-10.114,61.757,28.205,80.799s75.551-10.857,89.211-13.119     c13.66-2.262-13.469,15.793-13.469,15.793s25.097-18.177,23.502-9.964c-1.242,6.396-12.238,12.75-12.238,12.75     s13.938-14.248,15.148-7.392c1.557,8.821-12.495,14.838-12.495,14.838s19.684-15.403,15.927-5.24     c-3.757,10.163-1.105,17.608-54.129,34.038c-53.024,16.43-109.817-2.752-116.774-44.762     C106.987,206.471,157.675,210.692,157.675,210.692z"/>
		</g>
		<g>
			<path style="fill:#B45036;" d="M273.266,216.878c0,0,39.604,48.453,15.915,84.087s-70.877,28.324-83.842,33.186     c-12.965,4.862,17.956,5.247,17.956,5.247s-31.212,1.054-23.738,4.814c7.475,3.76,16.97,4.935,16.97,4.935     s-23.316,0.519-17.28,3.988c6.036,3.469,18.7,3.787,18.7,3.787s-24.746-3.514-16.415,3.414c8.33,6.928,9.751,14.703,63.894,2.458     c54.143-12.246,87.049-55.319,78.816-97.098C324.781,166.93,273.266,216.878,273.266,216.878z"/>
		</g>
		<g>
			<path style="fill:#241726;" d="M214.646,212.184c-29.147,0-34.817-24.04-34.874-24.297c-0.124-0.559,0.229-1.112,0.788-1.236     c0.56-0.127,1.114,0.228,1.238,0.787c0.232,1.039,6.053,25.417,38.039,22.42c0.555-0.046,1.076,0.366,1.13,0.937     c0.053,0.571-0.367,1.076-0.937,1.13C218.153,212.101,216.357,212.184,214.646,212.184z"/>
		</g>
		<g>
			<path style="fill:#F4BF00;" d="M284.514,249.33c0,0,54.326-7.287,51.808-16.519c-9.34-34.248-46.001-55.583-79.589-41.296     C254.767,192.351,272.501,202.027,284.514,249.33z"/>
		</g>
		<g>
			<path style="fill:#F4BF00;" d="M175.307,199.398c-19.718-12.346-50.567-4.3-60.069,10.656     c-25.945,40.836-11.416,84.516,1.038,82.617c0,0,61.231-20.335,64.344-26.983c2.481-5.297-8.284-30.667-7.321-60.231     C173.299,205.457,174.269,202.247,175.307,199.398z"/>
		</g>
		<g>
			<path style="fill:#241726;" d="M204.376,81.891c-0.812,2.755-4.978,1.965-4.93-0.908c0.173-10.387-6.944-31.525,21.089-34.535     c36.042-3.87,25.752,25.129,25.752,25.129s0.819-29.942,37.722-12.062c20.118,9.748,0.969,42.833-9.272,39.783     c-10.24-3.05,10.011-31.834,30.075-4.159c16.727,23.072-5.118,35.309-17.726,35.972c-12.608,0.662-16.252-13.412-0.049-7.429     c16.203,5.983,31.037,29.806,11.209,45.883c-19.828,16.076-37.99-1.165-20.208,2.343c17.782,3.508,2.941,21.139-9.593,23.91     c-7.6,1.681-19.589,2.738-21.382-5.369c-1.793-8.107,17.598-35.778,11.421-49.292c-6.177-13.514-14.946-24.33-39.821-26.269     c-19.022-1.483-33.251,22.074-33.251,22.074s-2.888-11.498-9.421-10.283c-6.533,1.215-15.78,17.077-8.696,25.077     c7.083,8,12.046,0.835,12.046,0.835s0.243,42.179-13.595,42.871c-10.261,0.513-31.814-2.317-30.216-23.928     c1.598-21.611,13.973-13.719,14.528-6.401c0.555,7.317-37.366-5.555-29.688-28.51s31.764-19.779,28.042-12.578     c-3.722,7.2-29.591-13.651-9.197-31.979s39.851-2.435,32.417,2.398s-21.133-28.276,3.187-33.654     C194.273,56.508,206.863,73.451,204.376,81.891z"/>
		</g>
		<g>
			<path style="fill:#241726;" d="M118.485,281.167c-0.517,0-0.964-0.385-1.029-0.911c-0.07-0.569,0.334-1.086,0.903-1.156     c0.327-0.041,32.959-4.231,51.17-21.43c0.418-0.394,1.073-0.373,1.467,0.042c0.394,0.417,0.375,1.073-0.042,1.467     c-18.713,17.674-50.978,21.814-52.342,21.982C118.569,281.165,118.526,281.167,118.485,281.167z"/>
		</g>
		<g>
			<path style="fill:#241726;" d="M303.745,237.475c-7.861,0-13.987-1.788-14.452-1.928c-0.549-0.165-0.86-0.743-0.696-1.292     c0.164-0.547,0.741-0.861,1.292-0.696c0.205,0.062,20.45,5.953,34.385-4.001c0.465-0.333,1.115-0.225,1.447,0.241     c0.333,0.466,0.225,1.115-0.241,1.447C318.63,236.14,310.539,237.475,303.745,237.475z"/>
		</g>
		<g>
			<path style="fill:#E17B8D;" d="M109.011,326.919c0,0,10.378,37.361,22.832,58.118c4.403,7.338-53.742,66.294-64.344,47.739     C42.591,389.188,68.527,348.456,109.011,326.919z"/>
		</g>
		<g>
			<path style="fill:#241726;" d="M138.069,367.394c-0.136,0-0.273-0.026-0.405-0.082c-12.983-5.512-46.008-3.164-46.34-3.139     c-0.575,0.042-1.069-0.388-1.111-0.959c-0.043-0.572,0.387-1.069,0.959-1.111c1.376-0.1,33.857-2.409,47.303,3.297     c0.528,0.224,0.774,0.833,0.55,1.361C138.857,367.156,138.473,367.394,138.069,367.394z"/>
		</g>
		<g>
			<path style="fill:#241726;" d="M257.215,295.662c-0.478,0-0.909-0.333-1.013-0.82c-0.121-0.56,0.236-1.112,0.797-1.232     c0.102-0.022,10.225-2.245,14.447-7.169c0.373-0.436,1.029-0.486,1.462-0.112c0.436,0.373,0.486,1.028,0.113,1.462     c-4.678,5.46-15.144,7.754-15.586,7.848C257.36,295.655,257.287,295.662,257.215,295.662z"/>
		</g>
		<g>
			<path style="fill:#241726;" d="M262.966,301.742c-0.812,0-1.314-0.072-1.403-0.085c-0.565-0.087-0.952-0.614-0.867-1.18     c0.085-0.566,0.628-0.944,1.179-0.873c0.375,0.061,9.231,1.221,16.252-9.31c0.315-0.477,0.959-0.607,1.439-0.288     c0.477,0.318,0.606,0.963,0.288,1.439C273.682,300.703,266.069,301.742,262.966,301.742z"/>
		</g>
		<g>
			<path style="fill:#241726;" d="M269.229,310.679c-0.491,0-0.926-0.35-1.019-0.849c-0.104-0.564,0.269-1.105,0.831-1.209     c0.1-0.018,9.993-1.949,13.492-10.63c0.215-0.532,0.819-0.785,1.351-0.575c0.531,0.215,0.788,0.819,0.575,1.351     c-3.933,9.759-14.59,11.813-15.042,11.895C269.354,310.674,269.291,310.679,269.229,310.679z"/>
		</g>
		<g>
			<path style="fill:#241726;" d="M222.384,350.344c-4.976,0-11.937-0.282-15.696-1.692c-0.536-0.202-0.808-0.8-0.607-1.337     c0.202-0.537,0.798-0.809,1.337-0.607c5.738,2.153,20.458,1.442,20.607,1.437c0.549-0.04,1.059,0.411,1.089,0.985     c0.028,0.573-0.412,1.059-0.985,1.089C227.887,350.231,225.533,350.344,222.384,350.344z"/>
		</g>
		<g>
			<path style="fill:#241726;" d="M217.677,358.977c-4.034,0-8.835-0.77-13.67-3.322c-0.507-0.269-0.701-0.896-0.434-1.403     c0.269-0.507,0.897-0.699,1.403-0.434c11.088,5.854,22.295,1.499,22.407,1.456c0.534-0.211,1.135,0.047,1.349,0.579     c0.213,0.533-0.047,1.136-0.579,1.349C227.86,357.319,223.595,358.977,217.677,358.977z"/>
		</g>
		<g>
			<path style="fill:#241726;" d="M223.136,369.012c-4.675,0-10.358-0.797-14.354-3.993c-0.447-0.359-0.52-1.011-0.162-1.459     c0.359-0.445,1.012-0.52,1.459-0.162c7.044,5.636,20.773,2.828,20.911,2.799c0.555-0.122,1.113,0.241,1.229,0.802     c0.119,0.56-0.241,1.112-0.802,1.229C231.124,368.289,227.587,369.012,223.136,369.012z"/>
		</g>
		<g>
			<g>
				<path style="fill:#241726;" d="M114.529,235.707c-0.233,0-0.467-0.079-0.661-0.24c-0.076-0.064-1.864-1.582-1.837-3.908      c0.019-1.696,0.969-3.304,2.823-4.781c0.448-0.358,1.103-0.284,1.458,0.165c0.357,0.448,0.283,1.101-0.165,1.458      c-1.335,1.063-2.021,2.128-2.04,3.164c-0.024,1.335,1.085,2.303,1.097,2.312c0.433,0.372,0.487,1.026,0.12,1.46      C115.117,235.581,114.824,235.707,114.529,235.707z"/>
			</g>
			<g>
				<path style="fill:#241726;" d="M119.775,244.128c-0.234,0-0.47-0.079-0.664-0.241c-0.076-0.064-1.864-1.583-1.837-3.909      c0.019-1.696,0.969-3.303,2.823-4.78c0.447-0.357,1.104-0.283,1.458,0.165c0.357,0.448,0.283,1.102-0.165,1.458      c-1.342,1.069-2.028,2.138-2.04,3.179c-0.015,1.331,1.08,2.283,1.092,2.293c0.44,0.367,0.499,1.022,0.132,1.461      C120.368,244.001,120.073,244.128,119.775,244.128z"/>
			</g>
			<g>
				<path style="fill:#241726;" d="M111.797,250.403c-0.234,0-0.47-0.079-0.664-0.241c-0.076-0.064-1.864-1.583-1.837-3.909      c0.019-1.696,0.969-3.303,2.823-4.78c0.447-0.357,1.103-0.283,1.458,0.165c0.357,0.448,0.283,1.102-0.165,1.458      c-1.342,1.069-2.028,2.138-2.04,3.179c-0.015,1.331,1.08,2.283,1.092,2.293c0.44,0.367,0.499,1.022,0.132,1.461      C112.39,250.277,112.095,250.403,111.797,250.403z"/>
			</g>
			<g>
				<path style="fill:#241726;" d="M117.926,256.612c-0.234,0-0.47-0.079-0.664-0.241c-0.076-0.064-1.864-1.583-1.837-3.909      c0.019-1.696,0.969-3.303,2.823-4.78c0.448-0.357,1.103-0.284,1.458,0.165c0.357,0.448,0.283,1.102-0.165,1.458      c-1.342,1.069-2.028,2.138-2.04,3.179c-0.015,1.331,1.08,2.283,1.092,2.293c0.44,0.367,0.499,1.022,0.132,1.461      C118.519,256.485,118.224,256.612,117.926,256.612z"/>
			</g>
			<g>
				<path style="fill:#241726;" d="M122.054,231.882c-0.234,0-0.47-0.079-0.664-0.241c-0.076-0.064-1.864-1.583-1.837-3.909      c0.019-1.696,0.969-3.303,2.823-4.78c0.447-0.356,1.102-0.283,1.458,0.165c0.357,0.448,0.283,1.102-0.165,1.458      c-1.342,1.069-2.028,2.138-2.04,3.179c-0.015,1.331,1.08,2.283,1.092,2.293c0.44,0.367,0.499,1.022,0.132,1.461      C122.647,231.755,122.352,231.882,122.054,231.882z"/>
			</g>
			<g>
				<path style="fill:#241726;" d="M118.182,225.459c-0.234,0-0.47-0.079-0.664-0.241c-0.076-0.064-1.864-1.583-1.837-3.909      c0.019-1.696,0.969-3.303,2.823-4.78c0.447-0.357,1.102-0.283,1.458,0.165c0.357,0.448,0.283,1.102-0.165,1.458      c-1.342,1.069-2.028,2.138-2.04,3.179c-0.015,1.331,1.08,2.283,1.092,2.293c0.44,0.367,0.499,1.022,0.132,1.461      C118.775,225.333,118.48,225.459,118.182,225.459z"/>
			</g>
		</g>
		<g>
			<g>
				<path style="fill:#241726;" d="M315.505,210.783c-0.486,0-0.921-0.344-1.018-0.84c-0.326-1.674-0.953-2.775-1.862-3.271      c-1.171-0.639-2.545-0.102-2.559-0.097c-0.532,0.213-1.134-0.043-1.35-0.57c-0.215-0.528,0.032-1.13,0.558-1.349      c0.092-0.038,2.267-0.919,4.316,0.178c1.494,0.801,2.481,2.386,2.933,4.713c0.109,0.562-0.257,1.107-0.821,1.216      C315.637,210.777,315.571,210.783,315.505,210.783z"/>
			</g>
			<g>
				<path style="fill:#241726;" d="M305.614,211.538c-0.487,0-0.921-0.344-1.018-0.84c-0.327-1.683-0.959-2.786-1.876-3.279      c-1.171-0.627-2.523-0.096-2.538-0.092c-0.521,0.224-1.136-0.028-1.356-0.559c-0.221-0.529,0.029-1.136,0.559-1.356      c0.092-0.039,2.266-0.921,4.315,0.178c1.494,0.802,2.48,2.387,2.932,4.713c0.109,0.562-0.258,1.107-0.821,1.216      C305.746,211.532,305.68,211.538,305.614,211.538z"/>
			</g>
			<g>
				<path style="fill:#241726;" d="M303.74,201.562c-0.487,0-0.921-0.344-1.018-0.84c-0.326-1.674-0.953-2.776-1.862-3.272      c-1.174-0.637-2.544-0.102-2.558-0.096c-0.531,0.212-1.134-0.043-1.35-0.57c-0.215-0.528,0.032-1.13,0.558-1.349      c0.091-0.039,2.264-0.921,4.315,0.178c1.494,0.801,2.481,2.386,2.933,4.713c0.109,0.562-0.257,1.107-0.821,1.216      C303.871,201.556,303.805,201.562,303.74,201.562z"/>
			</g>
			<g>
				<path style="fill:#241726;" d="M295.4,204.126c-0.487,0-0.921-0.345-1.018-0.84c-0.325-1.674-0.952-2.775-1.861-3.271      c-1.171-0.637-2.545-0.102-2.559-0.097c-0.534,0.212-1.135-0.043-1.35-0.57c-0.215-0.528,0.032-1.13,0.558-1.349      c0.092-0.038,2.267-0.92,4.316,0.178c1.494,0.801,2.48,2.387,2.932,4.713c0.109,0.562-0.258,1.107-0.821,1.216      C295.531,204.12,295.465,204.126,295.4,204.126z"/>
			</g>
			<g>
				<path style="fill:#241726;" d="M315.419,219.222c-0.486,0-0.921-0.344-1.018-0.84c-0.326-1.674-0.953-2.776-1.862-3.272      c-1.175-0.638-2.545-0.103-2.558-0.096c-0.531,0.213-1.134-0.044-1.35-0.57c-0.215-0.528,0.032-1.13,0.558-1.349      c0.093-0.037,2.266-0.92,4.315,0.178c1.494,0.801,2.481,2.386,2.933,4.713c0.109,0.562-0.257,1.107-0.821,1.216      C315.551,219.216,315.485,219.222,315.419,219.222z"/>
			</g>
			<g>
				<path style="fill:#241726;" d="M322.905,218.758c-0.486,0-0.921-0.344-1.018-0.84c-0.326-1.674-0.953-2.776-1.862-3.272      c-1.175-0.64-2.543-0.104-2.558-0.096c-0.532,0.211-1.134-0.043-1.35-0.57c-0.215-0.528,0.032-1.13,0.558-1.349      c0.092-0.039,2.265-0.919,4.315,0.178c1.494,0.801,2.481,2.386,2.933,4.713c0.109,0.562-0.257,1.107-0.821,1.216      C323.036,218.752,322.97,218.758,322.905,218.758z"/>
			</g>
		</g>
		<g>
			<path style="fill:#FBFCFF;" d="M269.296,164.364c-0.778,0-1.481-0.192-1.965-0.702c-0.393-0.417-0.376-1.073,0.041-1.468     c0.409-0.389,1.057-0.377,1.453,0.026c0.399,0.236,2.611-0.001,5.852-1.962c4.601-2.781,9.335-7.958,8.825-14.149     c-0.35-4.26-3.454-7.742-6.957-9.852c-2.018,1.709-4.16,2.754-6,2.754c-0.004,0-0.008,0-0.011,0     c-1.584-0.004-2.801-0.788-3.428-2.209c-0.855-1.942-0.353-3.093,0.221-3.716c1.155-1.258,3.562-1.38,6.61-0.333     c0.76,0.26,1.532,0.587,2.301,0.973c1.562-1.556,3.045-3.601,4.097-5.958c1.69-3.791,3.507-11.285-3.339-18.876     c-4.534-5.028-8.787-7.002-12.273-7.187c-0.937,6.07-3.573,11.505-6.385,12.493c-1.208,0.424-2.399,0.044-3.276-1.037     c-2.493-3.074-1.615-7.902,1.997-10.991c1.515-1.296,3.505-2.242,5.832-2.502c0.072-0.786,0.113-1.589,0.117-2.404     c0.027-4.699-1.221-13.051-9.88-16.203c-9.37-3.408-15.99,1.46-19.103,4.668c-0.598,0.615-1.148,1.254-1.648,1.901     c1.894,3.79,2.404,7.691,1.149,9.995c-0.737,1.352-2.047,2.055-3.633,1.989c-1.338-0.058-2.34-0.758-2.824-1.972     c-0.946-2.377,0.276-6.425,2.86-10.179c-0.283-0.482-0.594-0.966-0.934-1.446c-1.845-2.605-7.127-8.501-16.205-7.032     c-7.399,1.198-10.005,6.327-10.887,10.418c-0.091,0.422-0.166,0.842-0.226,1.26c1.948,1.553,3.54,3.314,4.655,5.064     c2.19,3.438,2.254,6.485,0.165,7.953c-1.081,0.757-2.33,0.774-3.427,0.047c-2.54-1.683-4-6.96-3.581-12.136     c-5.273-3.793-12.966-5.804-20.524-1.453c-3.827,2.202-5.886,4.896-6.119,8.007c-0.236,3.145,1.354,6.342,3.267,8.985     c4.115,0.166,7.758,1.074,9.878,2.192c2.933,1.546,2.61,3.214,2.335,3.859c-0.599,1.407-1.526,2.313-2.756,2.694     c-2.307,0.707-4.735-0.815-4.837-0.881c-0.268-0.209-3.095-2.484-5.675-5.807c-6.369-0.048-13.612,1.811-17.378,7.717     c-2.472,3.876-3.198,7.133-2.158,9.683c1.477,3.62,6.07,4.726,6.116,4.737c0.558,0.13,0.905,0.687,0.775,1.246     c-0.13,0.558-0.692,0.907-1.246,0.775c-0.231-0.054-5.69-1.37-7.568-5.975c-1.309-3.21-0.526-7.107,2.33-11.583     c3.947-6.187,11.112-8.429,17.663-8.663c-1.747-2.72-3.061-5.901-2.819-9.134c0.288-3.838,2.695-7.085,7.153-9.651     c7.971-4.584,16.072-2.817,21.873,0.971c0.022-0.115,0.047-0.229,0.071-0.343c0.833-3.866,3.578-10.571,12.583-12.03     c7.219-1.169,13.857,1.706,18.231,7.882c0.204,0.287,0.398,0.577,0.586,0.87c0.399-0.48,0.82-0.95,1.262-1.405     c5.892-6.069,13.656-7.956,21.302-5.172c9.855,3.587,11.277,12.92,11.247,18.165c-0.004,0.779-0.042,1.563-0.108,2.344     c3.958,0.25,8.657,2.443,13.563,7.881c7.634,8.464,5.591,16.86,3.694,21.112c-1.032,2.312-2.497,4.449-4.135,6.176     c3.795,2.448,7.082,6.363,7.477,11.151c0.746,9.079-7.646,15.313-12.187,17.341C272.307,163.761,270.681,164.364,269.296,164.364     z M270.263,134.123c-0.754,0-1.223,0.167-1.407,0.366c-0.305,0.332,0.003,1.142,0.15,1.476c0.292,0.663,0.834,0.968,1.539,0.971     c1.097,0,2.521-0.622,3.987-1.723c-0.425-0.187-0.849-0.354-1.268-0.498C271.996,134.28,270.996,134.123,270.263,134.123z      M177.876,109.334c2.079,2.377,4.017,3.937,4.06,3.972c0.39,0.235,1.885,0.943,3.025,0.583c0.625-0.197,1.102-0.694,1.454-1.522     c0.036-0.086-0.208-0.586-1.394-1.21C183.452,110.328,180.876,109.628,177.876,109.334z M262.614,101.815     c-1.672,0.276-3.098,0.982-4.207,1.931c-2.751,2.352-3.512,5.914-1.734,8.107c0.426,0.525,0.727,0.476,0.976,0.385     C259.337,111.644,261.691,107.359,262.614,101.815z M201.486,93.212c-0.033,4.287,1.368,7.881,2.729,8.783     c0.395,0.262,0.698,0.256,1.086-0.015c1.301-0.914,0.425-3.339-0.722-5.138C203.793,95.607,202.743,94.364,201.486,93.212z      M231.007,89.608c-1.83,2.995-2.566,5.872-2.012,7.266c0.176,0.445,0.471,0.644,0.984,0.666c0.825,0.042,1.364-0.253,1.721-0.908     C232.439,95.278,232.27,92.587,231.007,89.608z"/>
		</g>
		<g>
			<path style="fill:#241726;" d="M205.194,340.727c-6.851,0-11.127-0.577-11.291-0.601c-0.567-0.082-0.96-0.608-0.878-1.176     c0.08-0.568,0.596-0.973,1.176-0.878c0.632,0.089,63.618,8.544,97.163-41.922c0.316-0.479,0.962-0.607,1.439-0.29     s0.607,0.962,0.29,1.439C267.527,335.76,225.288,340.727,205.194,340.727z"/>
		</g>
	</g>
	<g>
		<path style="fill:#241726;" d="M204.078,506.637c-0.003,0-0.006,0-0.008,0c-1.475-0.012-2.902-0.091-4.241-0.233    c-0.571-0.061-0.983-0.572-0.922-1.141c0.06-0.57,0.563-0.987,1.141-0.922c1.273,0.136,2.632,0.209,4.039,0.221    c0.574,0.004,1.035,0.472,1.03,1.046C205.111,506.179,204.648,506.637,204.078,506.637z M208.225,506.511    c-0.542,0-0.999-0.422-1.035-0.971c-0.037-0.572,0.396-1.066,0.968-1.103c1.287-0.083,2.644-0.211,4.072-0.389    c0.561-0.081,1.086,0.334,1.157,0.902s-0.332,1.086-0.902,1.157c-1.471,0.182-2.866,0.314-4.192,0.401    C208.271,506.511,208.248,506.511,208.225,506.511z M195.856,505.717c-0.082,0-0.164-0.01-0.247-0.03    c-1.477-0.359-2.857-0.829-4.101-1.393c-0.523-0.235-0.754-0.851-0.518-1.372c0.237-0.521,0.852-0.752,1.373-0.517    c1.128,0.511,2.386,0.936,3.738,1.267c0.556,0.136,0.898,0.697,0.762,1.253C196.747,505.398,196.323,505.717,195.856,505.717z     M255.307,505.585c-0.008,0-0.016,0-0.024,0c-1.473-0.034-2.911-0.17-4.275-0.403c-0.565-0.097-0.945-0.634-0.847-1.198    c0.096-0.566,0.631-0.947,1.198-0.849c1.264,0.217,2.601,0.343,3.973,0.375c0.574,0.014,1.027,0.489,1.013,1.062    C256.332,505.137,255.869,505.585,255.307,505.585z M216.462,505.506c-0.499,0-0.938-0.361-1.023-0.868    c-0.094-0.566,0.289-1.101,0.854-1.194l0.427-0.075c1.282-0.227,2.466-0.46,3.593-0.709c0.552-0.124,1.113,0.231,1.236,0.791    c0.124,0.559-0.23,1.113-0.791,1.236c-1.153,0.253-2.363,0.495-3.634,0.72l-0.493,0.085    C216.575,505.502,216.518,505.506,216.462,505.506z M259.594,505.419l-0.141-1.03v-1.038c1.339-0.136,2.678-0.302,3.961-0.499    c0.574-0.093,1.097,0.302,1.183,0.87c0.087,0.566-0.302,1.095-0.869,1.182C262.408,505.104,261.031,505.279,259.594,505.419z     M267.649,504.162c-0.476,0-0.905-0.328-1.012-0.813c-0.124-0.559,0.229-1.115,0.788-1.238c1.371-0.304,2.695-0.651,3.935-1.03    c0.549-0.168,1.129,0.142,1.295,0.689c0.168,0.549-0.141,1.129-0.689,1.297c-1.291,0.393-2.667,0.754-4.091,1.07    C267.799,504.154,267.723,504.162,267.649,504.162z M247.178,504.148c-0.117,0-0.236-0.02-0.352-0.061    c-1.38-0.499-2.7-1.127-3.923-1.869c-0.49-0.298-0.646-0.936-0.348-1.427c0.296-0.488,0.932-0.643,1.426-0.349    c1.105,0.671,2.299,1.241,3.548,1.69c0.539,0.195,0.819,0.791,0.624,1.33C248.002,503.884,247.602,504.148,247.178,504.148z     M224.559,503.696c-0.452,0-0.868-0.296-0.998-0.752c-0.157-0.551,0.162-1.127,0.714-1.283c1.354-0.387,2.652-0.815,3.859-1.269    c0.539-0.209,1.135,0.069,1.337,0.604c0.203,0.537-0.069,1.135-0.605,1.338c-1.259,0.474-2.612,0.92-4.022,1.322    C224.748,503.684,224.653,503.696,224.559,503.696z M300.811,503.525c-0.018,0-0.036,0-0.056-0.002    c-1.477-0.077-2.937-0.363-4.34-0.849c-0.541-0.189-0.828-0.78-0.64-1.322c0.189-0.541,0.775-0.829,1.321-0.641    c1.218,0.424,2.485,0.673,3.768,0.74c0.572,0.03,1.011,0.517,0.982,1.091C301.817,503.096,301.359,503.525,300.811,503.525z     M304.937,503.211c-0.498,0-0.936-0.359-1.023-0.866c-0.095-0.566,0.286-1.101,0.85-1.196c1.416-0.239,2.761-0.511,3.996-0.807    c0.569-0.132,1.119,0.211,1.252,0.768c0.134,0.557-0.21,1.117-0.767,1.251c-1.282,0.306-2.673,0.588-4.134,0.835    C305.053,503.207,304.994,503.211,304.937,503.211z M188.408,502.228c-0.23,0-0.463-0.077-0.656-0.235    c-1.183-0.965-2.182-2.086-2.97-3.328c-0.307-0.484-0.163-1.125,0.321-1.431c0.485-0.306,1.126-0.164,1.432,0.32    c0.668,1.054,1.519,2.007,2.53,2.834c0.444,0.361,0.51,1.016,0.147,1.459C189.008,502.098,188.709,502.228,188.408,502.228z     M275.57,501.717c-0.406,0-0.793-0.241-0.959-0.641c-0.22-0.529,0.031-1.137,0.561-1.356c1.284-0.533,2.502-1.121,3.622-1.749    c0.499-0.284,1.131-0.103,1.413,0.395c0.281,0.501,0.102,1.133-0.397,1.413c-1.19,0.669-2.483,1.295-3.843,1.859    C275.837,501.693,275.702,501.717,275.57,501.717z M312.985,501.229c-0.428,0-0.828-0.266-0.978-0.691    c-0.192-0.541,0.091-1.133,0.631-1.326c1.385-0.488,2.598-1.034,3.602-1.618c0.5-0.286,1.133-0.12,1.419,0.377    c0.288,0.495,0.119,1.131-0.377,1.419c-1.116,0.647-2.445,1.247-3.951,1.78C313.217,501.211,313.099,501.229,312.985,501.229z     M293.06,500.872c-0.199,0-0.399-0.057-0.577-0.176c-1.162-0.778-2.285-1.721-3.338-2.803c-0.399-0.409-0.391-1.067,0.02-1.468    c0.409-0.399,1.066-0.391,1.468,0.02c0.953,0.979,1.964,1.828,3.006,2.528c0.476,0.318,0.603,0.963,0.285,1.439    C293.723,500.71,293.395,500.872,293.06,500.872z M232.295,500.734c-0.377,0-0.74-0.205-0.924-0.563    c-0.261-0.509-0.061-1.135,0.449-1.397c1.256-0.647,2.393-1.348,3.381-2.085c0.458-0.342,1.11-0.248,1.452,0.212    c0.343,0.458,0.248,1.109-0.212,1.451c-1.079,0.807-2.315,1.569-3.673,2.266C232.617,500.698,232.454,500.734,232.295,500.734z     M240.142,499.865c-0.254,0-0.509-0.093-0.708-0.28c-1.041-0.971-2.006-2.07-2.868-3.26c-0.335-0.464-0.231-1.113,0.233-1.449    c0.299-0.216,0.677-0.249,0.994-0.122c-0.017-0.254,0.058-0.515,0.231-0.728c0.834-1.023,1.47-2.125,1.888-3.277    c0.196-0.538,0.791-0.813,1.33-0.62c0.538,0.196,0.817,0.79,0.62,1.33c-0.498,1.37-1.248,2.676-2.229,3.879    c-0.233,0.286-0.581,0.418-0.932,0.374c0.663,0.851,1.384,1.642,2.15,2.357c0.419,0.391,0.441,1.048,0.05,1.466    C240.696,499.753,240.42,499.865,240.142,499.865z M282.759,497.627c-0.309,0-0.614-0.138-0.819-0.399    c-0.353-0.452-0.273-1.105,0.179-1.457c1.077-0.842,2.042-1.751,2.868-2.704c0.088-0.101,0.191-0.181,0.303-0.239    c-0.381-0.635-0.742-1.291-1.082-1.962c-0.259-0.511-0.056-1.136,0.456-1.395c0.508-0.265,1.136-0.056,1.395,0.456    c0.616,1.215,1.306,2.374,2.05,3.443c0.328,0.47,0.212,1.117-0.258,1.444c-0.461,0.325-1.095,0.216-1.428-0.235    c-0.883,0.997-1.9,1.948-3.026,2.828C283.207,497.554,282.982,497.627,282.759,497.627z M319.903,496.874    c-0.212,0-0.427-0.065-0.611-0.2c-0.463-0.339-0.565-0.987-0.226-1.45c0.662-0.906,0.801-1.694,0.801-2.195    c0-0.434-0.101-0.703-0.102-0.706c-0.203-0.528,0.051-1.13,0.575-1.343c0.523-0.214,1.117,0.022,1.34,0.543    c0.045,0.102,0.264,0.657,0.264,1.506c0,0.81-0.208,2.061-1.2,3.419C320.538,496.726,320.223,496.874,319.903,496.874z     M184.052,495.339c-0.469,0-0.894-0.32-1.008-0.797c-0.307-1.285-0.372-2.366-0.372-3.047c0-0.456,0.029-0.714,0.029-0.714    c0.064-0.566,0.562-0.984,1.141-0.916c0.568,0.06,0.979,0.566,0.923,1.133c-0.003,0.025-0.018,0.202-0.018,0.497    c0,0.569,0.055,1.476,0.315,2.564c0.133,0.557-0.211,1.117-0.768,1.251C184.214,495.33,184.133,495.339,184.052,495.339z     M235.28,493.195c-0.384,0-0.753-0.214-0.933-0.582c-0.617-1.26-1.152-2.606-1.591-4c-0.172-0.546,0.132-1.129,0.679-1.301    c0.55-0.169,1.13,0.132,1.301,0.679c0.407,1.294,0.904,2.543,1.476,3.71c0.251,0.515,0.039,1.136-0.476,1.388    C235.588,493.161,235.433,493.195,235.28,493.195z M288.096,491.361c-0.158,0-0.318-0.036-0.469-0.113    c-0.511-0.259-0.715-0.885-0.455-1.396c0.602-1.184,1.011-2.402,1.217-3.621c0.095-0.567,0.627-0.942,1.197-0.85    c0.565,0.096,0.946,0.631,0.85,1.197c-0.241,1.425-0.718,2.844-1.414,4.215C288.839,491.153,288.474,491.361,288.096,491.361z     M241.589,488.071c-0.574,0-1.038-0.464-1.038-1.038c0-1.212-0.186-2.494-0.555-3.812c-0.155-0.552,0.167-1.125,0.72-1.279    c0.551-0.15,1.125,0.168,1.279,0.72c0.42,1.5,0.632,2.971,0.632,4.371C242.627,487.607,242.163,488.071,241.589,488.071z     M283.495,487.618c-0.427,0-0.827-0.266-0.978-0.691c-0.504-1.42-0.889-2.819-1.144-4.155c-0.107-0.562,0.261-1.107,0.825-1.214    c0.56-0.105,1.106,0.26,1.214,0.825c0.235,1.233,0.593,2.53,1.061,3.851c0.192,0.54-0.091,1.133-0.631,1.325    C283.727,487.598,283.611,487.618,283.495,487.618z M232.774,485.306c-0.498,0-0.936-0.358-1.023-0.865    c-0.243-1.436-0.386-2.875-0.424-4.277c-0.015-0.573,0.437-1.05,1.01-1.065c0.499,0.024,1.05,0.437,1.065,1.01    c0.034,1.303,0.167,2.644,0.395,3.985c0.095,0.565-0.285,1.101-0.85,1.197C232.89,485.301,232.832,485.306,232.774,485.306z     M289.37,483.315c-0.484,0-0.918-0.341-1.017-0.834c-0.252-1.261-0.743-2.393-1.458-3.366c-0.34-0.462-0.24-1.112,0.221-1.451    c0.461-0.342,1.111-0.241,1.451,0.221c0.896,1.219,1.509,2.629,1.821,4.189c0.112,0.562-0.252,1.109-0.814,1.221    C289.506,483.309,289.438,483.315,289.37,483.315z M239.48,480.121c-0.381,0-0.747-0.21-0.929-0.573    c-0.571-1.141-1.262-2.298-2.052-3.436c-0.327-0.47-0.211-1.117,0.26-1.444c0.47-0.327,1.117-0.211,1.444,0.26    c0.847,1.219,1.588,2.461,2.204,3.689c0.256,0.513,0.049,1.136-0.463,1.394C239.794,480.085,239.636,480.121,239.48,480.121z     M282.102,479.484c-0.034,0-0.069-0.002-0.104-0.005c-0.57-0.057-0.986-0.566-0.929-1.136c0.319-3.205,2.092-3.552,2.843-3.552    c0,0,0.001,0,0.002,0c0.3,0,0.616,0.052,0.941,0.153c0.546,0.171,0.85,0.754,0.679,1.301c-0.171,0.544-0.755,0.848-1.301,0.679    c-0.122-0.039-0.229-0.058-0.319-0.058l0,0c-0.582,0-0.75,1.402-0.778,1.683C283.08,479.085,282.629,479.484,282.102,479.484z     M232.628,477.038c-0.06,0-0.12-0.005-0.18-0.015c-0.565-0.099-0.942-0.638-0.843-1.202c0.616-3.508,1.937-4.253,2.937-4.26    c0,0,0.005,0,0.007,0c0.57,0,1.034,0.46,1.038,1.031c0.004,0.573-0.457,1.041-1.031,1.045c-0.081,0.064-0.583,0.698-0.906,2.543    C233.56,476.683,233.123,477.038,232.628,477.038z"/>
	</g>
	<g>
		<path style="fill:#241726;" d="M334.218,48.783c-0.071,0-0.143-0.007-0.216-0.022c-0.559-0.118-0.917-0.668-0.802-1.227    c0.002-0.007,0.144-0.708,0.144-1.929c0.001-0.221-0.004-0.453-0.014-0.7c-0.024-0.573,0.421-1.056,0.993-1.08    c0.59-0.017,1.057,0.42,1.08,0.993c0.012,0.282,0.017,0.546,0.016,0.792c0,1.434-0.17,2.266-0.19,2.356    C335.126,48.451,334.697,48.783,334.218,48.783z M291.797,42.919c-0.509,0-1.024-0.139-1.531-0.411    c-0.505-0.272-0.694-0.901-0.423-1.406c0.273-0.505,0.901-0.694,1.406-0.423c0.97,0.524,1.507-0.613,1.679-1.088    c0.193-0.539,0.785-0.824,1.328-0.624c0.539,0.194,0.819,0.788,0.624,1.328C294.28,41.962,293.156,42.919,291.797,42.919z     M333.776,41.794c-0.469,0-0.894-0.319-1.008-0.796c-0.3-1.253-0.718-2.526-1.241-3.783c-0.221-0.529,0.03-1.136,0.559-1.356    c0.529-0.223,1.137,0.03,1.356,0.559c0.566,1.358,1.018,2.736,1.344,4.096c0.134,0.557-0.21,1.118-0.767,1.252    C333.938,41.785,333.856,41.794,333.776,41.794z M289.308,38.934c-0.559,0-1.021-0.445-1.037-1.008l-0.004-0.354    c0-1.202,0.148-2.55,0.44-4.005c0.111-0.562,0.659-0.934,1.221-0.814c0.562,0.112,0.926,0.66,0.814,1.221    c-0.265,1.323-0.399,2.533-0.399,3.598l0.004,0.295c0.016,0.573-0.435,1.05-1.008,1.067    C289.329,38.934,289.319,38.934,289.308,38.934z M232.46,38.735c-0.484,0-0.997-0.16-1.522-0.477    c-0.524-0.314-1.151-0.99-1.151-2.426c0-0.26,0.021-0.542,0.062-0.844c0.078-0.569,0.594-0.963,1.17-0.888    c0.568,0.078,0.965,0.602,0.888,1.17c-0.028,0.201-0.044,0.389-0.044,0.562c0,0.408,0.088,0.614,0.144,0.648    c0.286,0.171,0.429,0.18,0.454,0.18c0.456-0.341,1.099-0.245,1.442,0.216c0.344,0.459,0.239,1.115-0.22,1.457    C233.33,38.596,232.908,38.735,232.46,38.735z M294.28,36.875c-0.532,0-0.984-0.406-1.033-0.946    c-0.107-1.203-0.375-2.494-0.795-3.84c-0.171-0.547,0.134-1.129,0.681-1.299c0.542-0.174,1.129,0.134,1.299,0.681    c0.464,1.486,0.761,2.924,0.882,4.274c0.051,0.571-0.371,1.075-0.942,1.126C294.341,36.874,294.31,36.875,294.28,36.875z     M233.777,34.589c-0.528,0-0.979-0.4-1.032-0.936c-0.046-0.461-0.117-0.956-0.211-1.475c-0.243,0.09-0.528,0.082-0.784-0.037    c-0.52-0.242-0.745-0.859-0.503-1.378c0.209-0.45,0.439-0.911,0.688-1.383c0.027-0.277,0.166-0.532,0.383-0.706    c0.303-0.544,0.629-1.1,0.979-1.665c0.302-0.489,0.943-0.64,1.428-0.337c0.487,0.301,0.638,0.941,0.337,1.428    c-0.342,0.553-0.66,1.096-0.954,1.625c0.355,1.345,0.591,2.597,0.701,3.728c0.056,0.571-0.361,1.078-0.931,1.134    C233.845,34.587,233.811,34.589,233.777,34.589z M330.629,34.146c-0.357,0-0.703-0.183-0.896-0.513    c-0.656-1.119-1.41-2.244-2.242-3.344c-0.346-0.458-0.255-1.109,0.202-1.454c0.456-0.347,1.106-0.254,1.454,0.202    c0.88,1.164,1.679,2.358,2.376,3.546c0.29,0.495,0.125,1.131-0.37,1.42C330.988,34.1,330.808,34.146,330.629,34.146z     M290.838,30.809c-0.115,0-0.231-0.019-0.346-0.059c-0.54-0.192-0.824-0.784-0.633-1.325c0.217-0.614,0.453-1.223,0.705-1.824    c-0.472-0.901-1.004-1.809-1.588-2.709c-0.311-0.481-0.173-1.124,0.307-1.436c0.482-0.311,1.123-0.173,1.436,0.307    c0.329,0.511,0.645,1.024,0.944,1.536c0.299-0.373,0.829-0.499,1.276-0.274c0.511,0.259,0.716,0.884,0.457,1.396    c-0.188,0.368-0.367,0.742-0.539,1.12c0.206,0.502-0.011,1.084-0.506,1.326c-0.025,0.013-0.051,0.024-0.077,0.034    c-0.161,0.401-0.313,0.808-0.457,1.215C291.666,30.542,291.266,30.809,290.838,30.809z M325.653,27.525    c-0.279,0-0.556-0.111-0.761-0.332c-0.897-0.969-1.868-1.93-2.885-2.857c-0.424-0.386-0.454-1.043-0.068-1.467    c0.386-0.424,1.043-0.455,1.467-0.068c1.06,0.967,2.073,1.969,3.009,2.981c0.39,0.421,0.365,1.077-0.056,1.467    C326.159,27.434,325.906,27.525,325.653,27.525z M231.614,26.597c-0.409,0-0.798-0.244-0.962-0.647    c-0.502-1.235-1.076-2.472-1.706-3.675c-0.267-0.508-0.07-1.135,0.438-1.401c0.51-0.269,1.134-0.07,1.401,0.438    c0.661,1.262,1.263,2.559,1.791,3.855c0.216,0.531-0.04,1.136-0.571,1.353C231.876,26.572,231.744,26.597,231.614,26.597z     M236.512,25.151c-0.214,0-0.43-0.066-0.615-0.203c-0.461-0.341-0.559-0.99-0.219-1.451c0.831-1.125,1.718-2.239,2.637-3.309    c0.376-0.436,1.032-0.483,1.463-0.111c0.435,0.374,0.484,1.029,0.111,1.463c-0.887,1.033-1.741,2.105-2.542,3.189    C237.144,25.005,236.83,25.151,236.512,25.151z M195.148,24.915c-0.139,0-0.282-0.028-0.418-0.088    c-0.524-0.231-0.762-0.843-0.531-1.368c0.028-0.065,0.714-1.614,1.947-3.802c0.281-0.5,0.912-0.68,1.414-0.394    c0.5,0.282,0.676,0.914,0.394,1.414c-1.179,2.091-1.849,3.604-1.856,3.619C195.928,24.684,195.547,24.915,195.148,24.915z     M294.605,23.431c-0.208,0-0.417-0.062-0.599-0.192c-0.468-0.331-0.578-0.979-0.246-1.446c0.876-1.235,1.823-2.347,2.817-3.303    c0.415-0.397,1.069-0.385,1.468,0.028c0.397,0.414,0.384,1.07-0.028,1.468c-0.901,0.867-1.763,1.878-2.564,3.007    C295.251,23.279,294.93,23.431,294.605,23.431z M287.418,22.002c-0.305,0-0.606-0.134-0.812-0.389    c-0.821-1.027-1.72-2.055-2.672-3.059c-0.394-0.416-0.377-1.072,0.039-1.468c0.417-0.394,1.072-0.376,1.468,0.039    c0.992,1.046,1.93,2.119,2.787,3.19c0.358,0.448,0.285,1.101-0.162,1.459C287.874,21.928,287.645,22.002,287.418,22.002z     M319.538,21.925c-0.224,0-0.45-0.073-0.641-0.222c-0.916-0.721-1.887-1.442-2.919-2.165l-0.362-0.249    c-0.475-0.321-0.6-0.966-0.28-1.441c0.322-0.475,0.964-0.598,1.441-0.28l0.396,0.274c1.058,0.741,2.061,1.487,3.006,2.23    c0.451,0.355,0.528,1.007,0.174,1.457C320.15,21.79,319.846,21.925,319.538,21.925z M227.773,19.247    c-0.341,0-0.674-0.167-0.873-0.474c-0.736-1.137-1.53-2.244-2.361-3.29c-0.357-0.449-0.282-1.102,0.167-1.458    c0.448-0.358,1.103-0.281,1.458,0.167c0.872,1.098,1.706,2.26,2.479,3.454c0.311,0.48,0.173,1.123-0.308,1.435    C228.163,19.193,227.967,19.247,227.773,19.247z M241.919,18.846c-0.264,0-0.528-0.1-0.731-0.301    c-0.406-0.403-0.409-1.06-0.006-1.468c1.009-1.02,2.05-1.992,3.092-2.89c0.433-0.374,1.088-0.328,1.463,0.107    c0.375,0.434,0.326,1.09-0.107,1.463c-1.001,0.865-2.002,1.8-2.975,2.781C242.453,18.744,242.186,18.846,241.919,18.846z     M300.605,17.787c-0.363,0-0.716-0.191-0.906-0.53c-0.281-0.5-0.102-1.132,0.397-1.413c1.343-0.754,2.753-1.272,4.189-1.542    c0.572-0.105,1.106,0.266,1.211,0.828c0.106,0.563-0.265,1.106-0.828,1.211c-1.214,0.228-2.41,0.67-3.556,1.312    C300.951,17.745,300.777,17.787,300.605,17.787z M199.229,17.663c-0.2,0-0.401-0.058-0.579-0.177    c-0.475-0.32-0.601-0.965-0.281-1.44c0.83-1.233,1.686-2.383,2.545-3.415c0.368-0.442,1.022-0.502,1.461-0.136    c0.441,0.367,0.502,1.021,0.136,1.461c-0.815,0.981-1.629,2.074-2.421,3.249C199.891,17.502,199.563,17.663,199.229,17.663z     M312.574,17.453c-0.138,0-0.278-0.027-0.412-0.086c-1.255-0.544-2.502-0.911-3.709-1.088c-0.568-0.083-0.959-0.61-0.876-1.178    c0.083-0.567,0.598-0.966,1.178-0.876c1.387,0.204,2.811,0.62,4.234,1.238c0.526,0.228,0.767,0.839,0.538,1.365    C313.358,17.22,312.975,17.453,312.574,17.453z M281.718,15.979c-0.249,0-0.499-0.089-0.697-0.27    c-0.969-0.88-2.005-1.761-3.112-2.643c-0.448-0.357-0.522-1.009-0.165-1.458c0.356-0.448,1.007-0.522,1.458-0.165    c1.144,0.91,2.214,1.822,3.215,2.73c0.424,0.385,0.455,1.042,0.07,1.467C282.282,15.865,282,15.979,281.718,15.979z     M248.21,13.429c-0.322,0-0.641-0.15-0.843-0.432c-0.334-0.464-0.229-1.113,0.236-1.448c1.183-0.852,2.387-1.631,3.577-2.312    c0.494-0.285,1.131-0.112,1.416,0.384c0.286,0.497,0.114,1.131-0.384,1.416c-1.128,0.647-2.27,1.385-3.396,2.196    C248.632,13.365,248.42,13.429,248.21,13.429z M222.609,12.76c-0.269,0-0.538-0.104-0.741-0.311    c-0.799-0.815-1.634-1.591-2.481-2.309c-0.162-0.138-0.324-0.269-0.484-0.394c-0.452-0.353-0.532-1.005-0.179-1.456    c0.352-0.453,1.004-0.534,1.456-0.179c0.182,0.142,0.365,0.291,0.548,0.446c0.896,0.758,1.779,1.579,2.622,2.439    c0.401,0.409,0.395,1.066-0.014,1.468C223.134,12.662,222.871,12.76,222.609,12.76z M204.578,11.322    c-0.284,0-0.567-0.116-0.771-0.344c-0.384-0.427-0.349-1.082,0.077-1.466c1.175-1.057,2.37-1.922,3.551-2.57    c0.507-0.276,1.133-0.091,1.41,0.41c0.276,0.503,0.092,1.133-0.41,1.41c-1.042,0.572-2.106,1.343-3.162,2.293    C205.073,11.234,204.825,11.322,204.578,11.322z M275.224,10.818c-0.197,0-0.396-0.056-0.573-0.172    c-1.123-0.744-2.293-1.368-3.477-1.856c-0.53-0.218-0.783-0.824-0.566-1.354c0.218-0.531,0.827-0.779,1.354-0.566    c1.309,0.538,2.601,1.226,3.836,2.044c0.477,0.317,0.608,0.961,0.292,1.439C275.891,10.655,275.56,10.818,275.224,10.818z     M255.415,9.338c-0.406,0-0.794-0.241-0.959-0.641c-0.219-0.53,0.032-1.137,0.561-1.356c1.37-0.568,2.749-1.019,4.096-1.342    c0.57-0.127,1.118,0.212,1.252,0.767c0.134,0.557-0.21,1.118-0.767,1.252c-1.243,0.297-2.515,0.715-3.785,1.241    C255.683,9.312,255.548,9.338,255.415,9.338z M215.928,7.966c-0.109,0-0.22-0.017-0.329-0.054    c-1.198-0.401-2.441-0.515-3.63-0.361c-0.579,0.073-1.089-0.327-1.162-0.895c-0.074-0.569,0.326-1.09,0.895-1.162    c1.502-0.2,3.061-0.051,4.557,0.45c0.543,0.181,0.837,0.77,0.655,1.313C216.767,7.691,216.362,7.966,215.928,7.966z     M267.589,7.717c-0.059,0-0.119-0.005-0.178-0.015c-1.274-0.222-2.603-0.302-3.91-0.244c-0.553,0.04-1.057-0.418-1.083-0.99    c-0.025-0.573,0.418-1.058,0.99-1.083c1.461-0.067,2.939,0.026,4.358,0.273c0.565,0.098,0.944,0.635,0.845,1.2    C268.524,7.361,268.085,7.717,267.589,7.717z"/>
	</g>
	<g>
		<g>
			<g>
				<path style="fill:#B1739A;" d="M480.827,61.476c0,0-118.77-53.527-141.103,13.546s-22.459,92.073,19.827,104.551      c47.861,14.123-2.906,16.898,13.064,24.883c5.535,2.768,27.675-1.384,60.885,0C502.973,207.352,543.74,91.288,480.827,61.476z"/>
			</g>
			<g>
				<path style="fill:#FBFFFF;" d="M365.728,99.692c-0.332-0.389-0.481-0.839-0.45-1.35l0.667-0.699      c3.765,2.587,5.815-2.597,6.336-5.455c1.141-7.014-5.971-14.901-0.693-21.658c3.717-5.521,8.764,2.848,3.469,0.659      c-5.783,2.488-2.122,10.74-0.791,15.157c1.467,5.086-0.311,14.784-7.198,14.086l-0.024,0.14      C366.496,100.369,366.058,100.078,365.728,99.692z"/>
				<path style="fill:#FBFFFF;" d="M385.484,103.556c-0.81-1.719,0.474-4.322,0.199-7.212l-4.501-1.611      c-0.873,0.873-1.786,7.626-4.158,7.31c-0.72-0.106-1.664-1.022-1.12-1.729c4.929-9.521,7.832-19.562,11.636-29.047      c1,0.26,3.204,0.274,2.954,1.796c-0.896,3.714-1.307,17.571-2.143,21.085C387.685,95.921,389.823,106.687,385.484,103.556z       M385.884,92.833c0.795-3.652,1.367-11.039,1.853-15.883c-2.783,7.074-4.794,12.438-6.026,16.088      c0.407,0.403,1.731,0.922,3.975,1.557C385.682,94.108,385.748,93.522,385.884,92.833z"/>
				<path style="fill:#FBFFFF;" d="M395.457,105.313c1.794-9.261,1.469-17.084,0.857-27.597c-0.08-2.587-0.985-4.156,1.179-4.34      c3.695,4.409,0.812,19.966,0.869,26.781c1.871-4.336,7.889-20.702,9.66-25.364c5.17,0.664-2.464,9.949-2.967,12.746      c-2.621,5.58-2.796,16.47-8.852,18.656L395.457,105.313z"/>
				<path style="fill:#FBFFFF;" d="M409.229,108.506c-0.587-0.609-0.191-1.661-0.058-2.355c0.97-5.223,1.425-8.792,2.994-14.736      c1.901-3.637,0.862-13.846,4.863-13.658c1.844,0.216,8.069,3.26,3.492,4.454c-1.207-0.744-2.325-1.307-3.349-1.688      c-0.33,2.91-1.831,6.858-2.019,9.478c5.604,0.354,4.548,4.362-0.545,2.325c-0.479,4.006-2.703,11.145-3.116,14.615      c1.148,0.214,2.23,0.376,3.476,0.64c2.823,0.469,1.293,3.135-0.761,2.426C413.364,109.675,409.71,109.433,409.229,108.506z"/>
				<path style="fill:#FBFFFF;" d="M433.006,113.664c-3.223-4.927-0.944-11.931,0.036-17.219c1.241-4.359,1.987-10.513,5.717-14.037      c3.932-0.899,7.154,3.26,7.456,6.93C446.81,96.985,442.153,121.197,433.006,113.664z M437.019,112.637      c5.627-5.384,5.228-15.34,7.052-22.301c0.986-3.042-3.075-7.713-5.358-3.945c-0.974,1.472-1.494,4.441-1.921,6.367      C436.012,96.164,430.264,114.68,437.019,112.637z"/>
				<path style="fill:#FBFFFF;" d="M449.307,117.668c-4.008-7.586,1.279-15.091,2.562-23.955c0.769-1.56,0.771-7.6,2.722-7.387      c2.641,1.264-2.467,13.541-2.448,15.584c-0.047,3.741-4.55,13.008,0.187,14.14c2.22,0.565,5.446-7.447,9.68-24.038      c0.395-0.954,0.535-3.439,1.276-4.133c1.513-0.488,2.679,1.023,1.927,2.586C461.822,100.283,457.103,124.581,449.307,117.668z"/>
				<path style="fill:#FBFFFF;" d="M469.404,121.361c-0.506-3.508,0.865-13.49,0.614-14.935l-0.551-0.16      c-1.421,4.463-3.393,11.258-3.4,14.771l-0.867,1.091l-1.283-0.373l-0.396-0.861c2.056-3.223,6.202-31.822,9.595-30.073      c7.898,2.072,3.54,11.572-0.807,15.079c-0.341,5.336-1.408,10.855-0.402,15.742C472.692,124.788,469.27,125.031,469.404,121.361      z M472.829,101.8c1.476-2.52,4.231-7.354,0.742-8.957c-1.467,3.242-2.09,7.749-3.269,11.229      C471.073,103.933,471.916,103.175,472.829,101.8z"/>
			</g>
			<g>
				<path style="fill:#FBFFFF;" d="M349.282,158.889c-0.724-6.405,2.848-16.043,2.962-23.077c0.52-1.044,1.169-2.576,1.657-5.716      c0.368-1.935,0.846-4.168,1.202-6.194c1.12-3.431-0.842-7.362,2.683-8.165c6.609,0.054,9.192,4.856,7.858,11.125      c-0.684,6.248-2.839,11.576-9.814,11.991c-0.471,2.643-1.487,8.618-1.795,11.217      C353.356,153.176,354.216,163.106,349.282,158.889z M362.127,125.783c0.541-2.705,0.661-5.407-2.34-5.996      c0.007-0.043-0.229-0.105-0.708-0.189c-0.943,5.283-1.978,11.954-2.72,16.583C358.999,136.232,360.923,132.766,362.127,125.783z      "/>
				<path style="fill:#FBFFFF;" d="M370.423,162.39c-7.904,2.165-1.186-10.895-0.758-16.803c1.43-6.448,2.436-11.282,3.014-14.507      c0.577-4.261,0.738-12.592,4.201-12.472c2.114,0.681,1.235,2.439,0.697,4.376c-1.066,3.619-1.41,7.212-1.998,10.372      c-0.97,6.858-3.181,14.475-4.439,21.673c-0.921,4.935,0.804,4.936,4.115,5.262c2.85,0.4,4.28,2.2,2.388,3.602      C375.294,164.817,373.449,162.498,370.423,162.39z"/>
				<path style="fill:#FBFFFF;" d="M394.275,166.667c-1.141-2.382,0.616-6.017,0.205-10.029l-6.277-2.199      c-1.207,1.22-2.413,10.627-5.713,10.21c-1.002-0.138-2.325-1.406-1.576-2.396c6.766-13.295,10.698-27.296,15.898-40.527      c1.396,0.355,4.457,0.347,4.131,2.469c-1.214,5.172-1.643,24.457-2.772,29.355C397.323,155.916,400.221,171.208,394.275,166.667      z M394.726,151.748c1.07-5.093,1.792-15.374,2.418-22.12c-3.802,9.873-6.544,17.353-8.224,22.445      c0.572,0.557,2.42,1.267,5.548,2.126C394.459,153.522,394.545,152.705,394.726,151.748z"/>
				<path style="fill:#FBFFFF;" d="M419.665,171.353c-0.101-6.079-3.346-31.883-5.042-38.689c0.152,0.506-7.201,32.805-6.523,33.239      c0.812,1.429-0.606,3.203-2.198,2.807c-3.728-0.728,1.04-13.043,0.935-15.537c2.14-6.524,2.559-23.75,8.414-27.567l0,0      c6.338,3.233,5.019,31.858,6.764,40.227c2.772-9.152,5.459-20.081,8.056-32.792c0.224-1.359,0.405-3.851,2.242-3.338      c2.997,0.696,0.415,5.919,0.372,7.804c-1.835,7.722-6.387,29.03-9.487,34.467C421.184,172.001,420.603,172.401,419.665,171.353z      "/>
				<path style="fill:#FBFFFF;" d="M435.288,175.225c-0.811-0.854-0.239-2.315-0.037-3.278c1.449-7.25,2.154-12.203,4.447-20.446      c2.496-4.73,1.843-19.872,7.024-18.904c2.561,0.336,11.162,4.683,4.776,6.264c-1.666-1.06-3.213-1.865-4.628-2.416      c-0.517,4.042-2.672,9.508-2.993,13.147c0.791,0.146,1.493,0.2,2.361,0.401c3.763,0.414,3.379,4.295,0.239,3.734      c-1.325-0.319-2.213-0.705-3.4-0.91c-0.742,5.566-3.979,15.453-4.613,20.272c1.594,0.324,3.089,0.565,4.821,0.961      c3.922,0.704,1.739,4.385-1.105,3.359C441.018,176.932,435.933,176.526,435.288,175.225z"/>
				<path style="fill:#FBFFFF;" d="M455.87,178.742c1.589-5.88,6.341-32.275,7.86-38.918c-3.063-0.879-6.813-2.236-4.067-4.085      c3.481-0.383,7.636,2.507,11.127,3.006c3.025,0.566,1.4,4.042-0.963,3.25c-0.605-0.123-2.109-0.842-2.846-1.204      c-2.675,3.328-4.813,41.539-10.164,39.084L455.87,178.742z"/>
			</g>
		</g>
		<g>
			<path style="fill:#FBFCFF;" d="M491.31,86.974c-0.417,0-0.81-0.252-0.969-0.665c-8.412-21.873-46.828-27.247-47.214-27.298     c-0.569-0.076-0.968-0.598-0.892-1.166c0.076-0.569,0.592-0.969,1.166-0.892c1.631,0.217,40.024,5.586,48.879,28.61     c0.206,0.535-0.062,1.136-0.596,1.342C491.56,86.952,491.434,86.974,491.31,86.974z"/>
		</g>
		<g>
			<path style="fill:#FBFCFF;" d="M498.299,112.308c-0.574,0-1.038-0.464-1.038-1.038c0-11.685-2.452-16.027-2.476-16.07     c-0.288-0.493-0.125-1.128,0.366-1.419c0.493-0.287,1.124-0.133,1.417,0.357c0.113,0.189,2.77,4.756,2.77,17.132     C499.338,111.844,498.873,112.308,498.299,112.308z"/>
		</g>
	</g>
</g>















</svg>
