<svg id="Capa_1" enable-background="new 0 0 512 512" height="512" viewBox="0 0 512 512" width="512" xmlns="http://www.w3.org/2000/svg"><g><g><path d="m255.695 286.114c-9.635-21.639-31.103-35.58-54.79-35.58h-87.708l-22.565-101.481c-3.204-14.411-15.987-24.664-30.75-24.664h-22.938c-15.109 0-26.333 13.993-23.053 28.742l25.713 115.641c7.202 32.387 34.524 56.398 67.568 59.378l144.34 13.018 20.67-18.021z" fill="#696eaf"/><path d="m370.768 171.031-86.535 117.21c-12.762 17.286-32.972 27.486-54.458 27.486h-94.865l19.611 52.245h172.624l68.536-91.466z" fill="#fd8b9b"/><circle cx="407.83" cy="353.886" fill="#475066" r="96.67"/><circle cx="90.084" cy="367.971" fill="#475066" r="82.584"/><path d="m78.663 337.763c0-19.309 5.759-37.269 15.646-52.269-1.399-.07-2.808-.107-4.224-.107-45.61 0-82.584 36.974-82.584 82.584s36.974 82.584 82.584 82.584c21.566 0 41.195-8.274 55.903-21.812-38.972-11.886-67.325-48.12-67.325-90.98z" fill="#303646"/><circle cx="90.084" cy="367.971" fill="#7ce0fd" r="34.342"/><path d="m400.726 318.69c0-26.057 1.68-46.09 4.8-61.444-52.324 1.225-94.364 44.022-94.364 96.64 0 53.389 43.28 96.669 96.669 96.669 27.295 0 51.944-11.316 69.522-29.508-44.283-12.967-76.627-53.882-76.627-102.357z" fill="#303646"/><circle cx="407.83" cy="353.886" fill="#7ce0fd" r="52.784"/><path d="m400.726 318.69c0-6.03.092-11.731.269-17.133-25.92 3.354-45.949 25.495-45.949 52.329 0 29.152 23.632 52.785 52.784 52.785 10.524 0 20.321-3.093 28.554-8.4-21.879-19.532-35.658-47.945-35.658-79.581z" fill="#2ecdf9"/><g><path d="m281.608 70.614h35.53c37.42 0 68.97 26.803 75.017 63.732l35.423 216.306c1.786 10.906-5.607 21.195-16.513 22.981-1.094.179-2.185.266-3.258.266-9.629 0-18.116-6.967-19.723-16.779l-35.424-216.306c-2.863-17.487-17.803-30.179-35.522-30.179h-35.53z" fill="#fae09d"/></g><path d="m281.608 70.614v40.021h35.53c8.643 0 16.62 3.026 22.861 8.149 4.551-8.381 7.139-17.979 7.139-28.174 0-5.049-.639-9.951-1.834-14.632-8.734-3.46-18.239-5.363-28.166-5.363h-35.53z" fill="#fdcb71"/><path d="m287.972 61.444h-48.066c-16.108 0-29.166 13.058-29.166 29.166v.03c0 16.107 13.058 29.166 29.166 29.166h48.066c16.108 0 29.166-13.058 29.166-29.166v-.03c0-16.108-13.058-29.166-29.166-29.166z" fill="#fd8b9b"/><path d="m78.663 337.763c0-.732.011-1.461.028-2.189-13.364 4.7-22.948 17.426-22.948 32.398 0 18.966 15.375 34.341 34.341 34.341 4.195 0 8.213-.755 11.929-2.131-14.542-16.705-23.35-38.533-23.35-62.419z" fill="#2ecdf9"/><path d="m293.46 101.665c-25.657 0-47.363-16.911-54.583-40.195-15.63.544-28.135 13.377-28.135 29.14v.03c0 16.107 13.058 29.166 29.166 29.166h48.066c13.985 0 25.665-9.845 28.502-22.98-7.044 3.103-14.826 4.839-23.016 4.839z" fill="#e75b70"/></g><g><path d="m90.084 409.813c23.071 0 41.841-18.771 41.841-41.842s-18.77-41.842-41.841-41.842c-23.072 0-41.842 18.771-41.842 41.842s18.771 41.842 41.842 41.842zm0-68.683c14.8 0 26.841 12.041 26.841 26.842s-12.041 26.842-26.841 26.842c-14.801 0-26.842-12.041-26.842-26.842s12.042-26.842 26.842-26.842z"/><path d="m0 367.971c0 49.673 40.412 90.084 90.084 90.084 47.146 0 85.945-36.408 89.769-82.584h126.062c9.968 47.116 51.875 82.584 101.915 82.584 57.439 0 104.169-46.73 104.169-104.169 0-53.759-40.49-98.133-93.258-103.594l-9.12-55.687c-.669-4.088-4.532-6.859-8.613-6.189-4.088.669-6.859 4.526-6.189 8.613 3.142 19.187 22.837 139.451 25.356 154.835 1.242 7.585-4.589 14.535-12.37 14.535-6.144 0-11.326-4.412-12.322-10.491-4.141-25.285-32.667-199.477-35.423-216.306-3.175-19.396-18.646-33.911-37.724-36.163 1.447-3.881 2.301-8.38 2.301-12.83 0-4.257-.768-8.508-2.113-12.289 31.331 2.415 57.07 25.74 62.228 57.237l5.23 31.937c.669 4.088 4.526 6.857 8.613 6.189 4.088-.669 6.859-4.526 6.189-8.614l-5.23-31.936c-6.644-40.572-41.305-70.02-82.418-70.02h-4.948c-6.465-5.701-14.941-9.17-24.218-9.17h-48.065c-20.217 0-36.666 16.448-36.666 36.695 0 20.218 16.448 36.666 36.666 36.666h48.065c9.275 0 17.75-3.468 24.214-9.17h4.951c14.028 0 25.854 10.048 28.121 23.892l6.826 41.684-73.886 100.076c-3.033 4.109-6.57 7.756-10.47 10.917l-5.183-11.64c-10.827-24.316-35.023-40.029-61.641-40.029h-81.692l-21.26-95.609c-3.998-17.979-19.653-30.536-38.071-30.536h-22.935c-19.927 0-34.691 18.454-30.374 37.87l13.424 60.375c.899 4.043 4.904 6.591 8.949 5.693 4.043-.899 6.592-4.906 5.693-8.949l-13.424-60.375c-2.241-10.075 5.431-19.614 15.731-19.614h22.938c11.334 0 20.969 7.728 23.429 18.792l22.565 101.481c.763 3.431 3.807 5.872 7.321 5.872h87.708c20.701 0 39.518 12.219 47.938 31.13l6.023 13.527c-8.24 3.784-16.755 5.535-25.093 5.535h-72.275c-16.705-18.857-40.883-30.339-67.414-30.339-12.358 0-24.65 2.519-36.213 7.59-3.183-5.741-5.511-11.884-6.945-18.333l-5.618-25.267c-.899-4.043-4.903-6.592-8.949-5.693-4.043.899-6.592 4.906-5.693 8.949l5.618 25.267c1.742 7.832 4.567 15.292 8.423 22.265-24.498 16.118-40.706 43.853-40.706 75.306zm287.972-255.666h-48.065c-11.946 0-21.666-9.719-21.666-21.695 0-11.947 9.719-21.666 21.666-21.666h48.065c12.002 0 21.666 9.791 21.666 21.695 0 11.943-9.724 21.666-21.666 21.666zm92.71 246.027c2.189 13.366 13.597 23.067 27.125 23.067 16.936 0 29.925-15.153 27.173-31.959l-5.819-35.536c14.527 7.684 23.955 22.824 23.955 39.982 0 24.97-20.314 45.284-45.284 45.284s-45.285-20.314-45.285-45.284c0-11.785 4.466-22.787 12.319-31.075zm-13.71-83.718 5.042 30.788c-15.407 11.35-24.468 29.119-24.468 48.485 0 33.241 27.043 60.284 60.285 60.284 33.241 0 60.284-27.043 60.284-60.284 0-26.54-16.95-49.454-41.805-57.385l-5.041-30.78c43.152 6.472 75.731 43.544 75.731 88.164 0 49.168-40.001 89.169-89.169 89.169-49.161 0-89.169-40.014-89.169-89.169-.001-33.415 18.657-64.061 48.31-79.272zm-137.198 48.613c24.489 0 46.778-11.955 60.492-30.531l65.203-88.316c1.836 11.209 7.143 43.616 8.971 54.781-36.293 16.604-60.78 53.125-60.78 94.727 0 2.084.082 4.57.208 6.585h-124.014c-1.118-13.495-5.22-26.095-11.592-37.245h61.512zm-139.714-30.339h.025.021c41.555 0 75.063 33.873 75.063 75.083 0 41.401-33.683 75.084-75.084 75.084-41.402 0-75.085-33.682-75.085-75.084 0-41.274 33.563-75.065 75.06-75.083z"/></g></g></svg>