<svg id="Layer_1" enable-background="new 0 0 75 75" viewBox="0 0 75 75" xmlns="http://www.w3.org/2000/svg"><g id="_x31_5"><g><g><g><g><g><path d="m51.7606277 60.6767387c.4059258.0827217.6917381.2579956 1.0091553.5125351.2150497.1839676-.5893517 1.275383-.7578087 1.5052757-1.0192413 1.3909454-2.216114 2.5598602-3.5434608 3.6458435-.598175.4894104-.6316185.4460831-1.3554077-.0359879-.3495941.205925-.6753273.4621735-1.0041924.6999588l.7865982 1.0151596c-.5939674.280098-1.217701.6688232-1.8416557.8610458-.6711693-.699585-1.0499458-1.5398788-1.5732079-2.341095 1.670475-.3347855 4.7848549-1.8814392 6.1751976-2.8760643.859459-.623123 2.1187325-1.86742 2.1047821-2.9866713z" fill="#3e95fa"/></g><g><path d="m42.2007294 64.1770706c-.0680237-.100174-1.6631737-2.4492073-1.5952492-2.3489685-.0684395-.1001587-.9405823-1.3765068-.8721428-1.2763519-1.010273-1.4266624 2.2760353-3.7863655 3.2756615-2.3598328.0775566.1026726 1.0984764 1.4541779 1.0209198 1.3515053.0772057.1029396 1.3963547 1.8617287 1.3187294 1.7591057.967823 1.0726166-2.1908722 3.9471512-3.1479187 2.8745422z" fill="#fff"/></g><g><path d="m44.0299187 59.5434227c-.7337532.6757545-2.5522957 1.7054253-3.4244385 2.2846794l-.3829765-.5577812c.5636864-.4396782 1.563446-.9545135 2.1270027-1.3300323.4361992-.2896271.8508492-.6220703 1.2869225-.9116974z" fill="#010101"/></g><g><path d="m44.9339981 60.7554855c-.4892998.5792542-2.5525551 1.9844437-3.3182449 2.5635681l-.4572334-.6757545c3.305088-2.4076538 3.0541878-2.0292244 3.4031487-2.381176z" fill="#010101"/></g><g><path d="m48.7224922 60.5628281c1.1397667-.4039459 2.0458565-.5755157 3.0381355.1139107.0138626 1.1123543-1.246254 2.3642235-2.1047821 2.9866714-1.3903427.9946251-4.5047226 2.5412788-6.1751976 2.8760643-.4386139-.6758957-1.2862892-1.9699707-1.5601425-2.6718407.4187698-.4583435 1.0265961-.8013687 1.5233688-1.1730881 2.2658958-1.7251549 1.6826096-1.5338593 2.0553284-1.4320068 1.4857331.4060135 1.9742165-.2570267 3.2232895-.6997108z" fill="#010101"/></g></g><g><path d="m43.4144402 58.8310928c-1.3503761.8750954-2.7157707 1.7266159-4.0953636 2.5540504-.6064606.363739-.873951.3605537-1.4311333-.1323242-5.4849052-4.8519135-8.6032124-10.9457512-11.4942093-17.5086899-1.0315075-2.3416557-1.1591339-2.9680634-1.238018-5.3292961-.2684402-8.0353813-.3406086-8.4047909-.1274986-8.6983318.1230221-.1694565.3407326-.2338333.543642-.2810459 1.6010418-.37253 4.7956238-.4907722 5.8900051-.3537426.1743965.0218353.2265625.0603867.2893867.2260418.3712654.9789562.2266197 2.0343628.5329475 3.0019455.172699.5455132.2110939 1.1652412.3012314 1.729557.3160133 1.9783745.5449867 3.0392036 1.9845467 6.2243309 2.6393013 5.8396339 5.6438026 11.5113449 8.9897156 16.9702187.5628357.9182739.3582382 1.2710037-.1452522 1.5972862z" fill="#fe5440"/></g></g><g><g><path d="m49.037014 61.92173.3515625-1.2426758c.0549774-.194809.3420792-.1069717.2890625.0820313l-.3515625 1.2426758c-.0539131.1915474-.34272.109272-.2890625-.0820313z" fill="#fff"/></g><g><path d="m48.2567406 62.1443863.1904297-1.109375c.0317268-.2037621.3292503-.1403122.2949219.0507813l-.1904297 1.109375c-.0315667.1972999-.3300706.1448898-.2949219-.0507813z" fill="#fff"/></g><g><path d="m47.5956078 62.5320816-.1757813-1.1982422c-.0277977-.1945992.268158-.243782.296875-.0439453l.1757813 1.1982422c.0280265.1961746-.2681351.2424889-.296875.0439453z" fill="#fff"/></g><g><path d="m46.6434593 62.881691c-.0712891.0024414-.1513672-.0673828-.1503906-.1518555l.015625-1.2426758c.0022697-.1903992.3032188-.2055435.3007813.0039063l-.015625 1.2426758c-.0009766.0820312-.0683594.1479492-.1503907.1479492z" fill="#fff"/></g></g></g><g><g><g><g><path d="m15.4218721 58.674675c-.4764004.95858-.365365.8430214-.7871094 1.5659752-.3457689.6198654-1.3505363 2.4100914-1.3505363 3.0676651-1.198514 1.5896797-4.7506981-1.1346779-3.5521832-2.7243538.0442066-.1003189 1.1996641-2.4074821 1.1167269-2.2418633l.1169691-.2574158.2976818-.5899925.7658186-1.2870865c.9850874-1.378086 4.3777199 1.0889855 3.3926325 2.4670716z" fill="#fff"/></g><g><path d="m13.9754162 61.4634361c-1.3825493-.5899391-2.4460497-1.2549629-3.6584396-2.0594215l-.2339697.4826775c.7338142.6221161 2.860815 1.9628868 3.5520897 2.1988602l.053175-.02145z" fill="#010101"/></g><g><path d="m14.6347866 60.240654c-.3403206-.1930695-.7338152-.2788811-1.0847702-.4397736-.9039745-.4290466-1.8504896-.9224472-2.7012901-1.4587555l-.2552395.5041275c.5211143.4075928 3.2543097 1.9521599 3.7009792 2.0165176z" fill="#010101"/></g><g><g><path d="m8.4137135 63.7871246c.2743111.459816.8120031.8255005 1.230567 1.147995 2.0097113 1.548584 4.3708611 2.8860092 6.8955927 2.9884338-.072237.5537949-.281002 1.1206207-.5967369 1.579628-1.3973503-.1235657-4.3481321-.9474564-5.5544367-1.64888-.0587473-.3793793.0730495-.7313004.0498381-1.1064835-.0187407-.3029633-.2105913-.4064713-.3974762-.3578949-.326889.0850067-.4929438.6917267-.7144365.9966202-.591403-.2413254-1.2406645-.5492401-1.6986017-1.0030212.1927031-.8966751.4842928-1.7338028.7856902-2.5963974z" fill="#3e95fa"/></g><g><path d="m9.8702497 60.3157616c.5300589.5654984 1.1466885 1.0833931 1.8455172 1.5239105.7371769.4647064 1.1183853.5828857 1.6935368.8725128-.0278015.209671-.1102629.383152-.1213531.5945168.1992779.4153633.4407301.8043823.7588739 1.1382751 1.0611115 1.1135559 2.5560942 1.6535873 2.4930487 3.4785767-2.5251217-.1024399-4.8864527-1.4402924-6.8955927-2.9884338-.4185638-.3224945-.9562559-.688179-1.230567-1.147995.4589929-1.0955201 1.1292915-2.9289704 1.4565362-3.4713631z" fill="#010101"/></g></g></g><g><path d="m29.181715 35.8899002c-.27318.8847466-.9625931 1.7022743-1.8710423 1.8408432-.4755497.0725365-.6405354.0971947-.708107.6938972-.9213466 8.1358452-4.1541519 16.0918694-10.5625438 21.3389664-.3961382.3243523-.5574169.3308601-.9405842.2011909-1.4991961-.5073547-2.9457541-1.1727638-4.308486-1.9818878-.4384623-.260334-.5018377-.4385948-.3934927-.9091339 1.5903749-6.906971 5.1425972-8.786499 6.841238-12.7140808 1.4864464-3.4369469.9548893-7.290638 1.2121067-10.9277763.0355759-.5035439.0156441-.9626846.1582279-1.4532757.163847-.5637493.6361771-1.760006.985302-2.0879669.1469536-.1380444.337038-.2187843.5259972-.2873611 1.5954571-.5790119 3.2771759-.5067501 7.7575531-.6371479.4474735-.0130234.7462063.0304356 1.0408421.5674248.2826138.5151043.3462696 1.1467552.3499451 1.725708.0156764 2.4695701.2949237 3.3938026-.0869561 4.6305999z" fill="#fe5440"/></g></g><g><path d="m14.014555 66.1258316c-.1909971 0-.2024355-.2845612-.0117188-.2993164l1.0263672-.0786133c.1948404-.017189.2236967.2833328.0234375.2988281-.1004009.0076828-1.1384859.0867844-1.0380859.0791016z" fill="#fff"/></g><g><path d="m14.2821331 65.3719254c-.1005754-.0048828-1.2568254-.0610352-1.15625-.0561523-.1942225-.00914-.1863918-.2998047.0068359-.2998047.1005754.0048828 1.2568254.0610352 1.15625.0561523.1942225.00914.1863919.2998047-.0068359.2998047z" fill="#fff"/></g><g><path d="m13.3446331 64.584816c-.1005697-.0049973-.7880697-.0391769-.6875-.0341797-.1934328-.0103607-.1848154-.2998047.0078125-.2998047.1005697.0049973.7880697.0391769.6875.0341797.1934328.0103607.1848154.2998047-.0078125.2998047z" fill="#fff"/></g><g><path d="m12.9325237 63.5159683h-.2460937c-.1990843 0-.1989985-.2998047 0-.2998047h.2460938c.1990842 0 .1989984.2998047-.0000001.2998047z" fill="#fff"/></g><g><g><path d="m25.9090862 43.2557144c.4309959-1.5038414.6555367-3.7711868.7158203-5.3232422.100008-.0201149 1.2161293.1010666 1.9941406-.8637695 1.3759766-1.7075195.6894531-5.3764648.6826172-5.4135742-.0373173-.1947498.2572479-.2520714.2949219-.0566406.0302734.15625.71875 3.84375-.7441406 5.6582031-.4765625.5908203-1.1279297.9155273-1.9394531.9663086-.03125.6303711-.1884766 3.2763672-.7148438 5.1157227-.0569706.190853-.3428383.108715-.2890625-.0830079z" fill="#fff"/></g><g><path d="m27.1747112 35.2444839-.1611328-3.1914063c-.0116978-.197691.2890987-.2153206.2988281-.0146484l.1611328 3.1914063c.0116978.1976929-.2890987.2153206-.2988281.0146484z" fill="#fff"/></g><g><path d="m24.4588909 37.2635269c1.3300781-1.6547852.8505859-5.2075195.8457031-5.2431641-.0279961-.1959705.2686367-.2384892.296875-.0419922.0214844.1513672.5019531 3.7182617-.9082031 5.4726563-.126915.1555748-.3570404-.0347481-.234375-.1875z" fill="#fff"/></g></g></g><g><g><path d="m22.1065693 37.8593369c.2258205.9120522.4517479 1.8245811.6312199 2.7470474.0773735.3976898.1462822.7990913.1532154 1.2043037.0069332.4053116-.0852375.5779495-.4849682.7845383-1.1757278.6076431-4.1919155 1.2660637-5.600338 1.4055061-.2630768.0260468-.574398.0244446-.7336407-.1883545-.2568483-.3432388-.6020746-4.0174179-.563179-4.3948936.0110579-.1073151.0902967-.1114769.1871872-.1496429.6507206-.2563438 1.3364048-.4205742 2.0124779-.5823936 3.3446731-.8005563 3.7692795-.9630586 4.3980255-.8261109z" fill="#fea70c"/></g><g><path d="m16.7713909 39.4813004c-.0615234-.7099609-.0292969-1.4389648.0888672-1.9995117.4482002-2.1444244 3.5289707-2.5244102 4.28125-1.0322266h.0009766c.2753906.5522461.3691406 1.25.2939453 2.1962891-.0683594.878418-.2607422 1.5292969-.6064453 2.0478516-1.2703667 1.9150542-3.8839512.8289451-4.0585938-1.2124024zm.2841797-1.9584961c-.1132813.5424805-.1445313 1.25-.0849609 1.9414063.2041264 2.3703728 3.9447556 3.311573 4.2666016-.8339844.0722656-.9086914-.015625-1.5727539-.2734375-2.0908203-.6559468-1.2968827-3.4939328-.9943658-3.9082032.9833984z" fill="#010101"/></g></g><g><g><path d="m22.5100422 15.8140631s2.3269997-.5867357 5.1882572.5148916l4.067049 2.5982475 1.1124325 11.6725273-12.7501507.8213615-.2488422-8.9729824c0 .0000001-.58778-4.7498569 2.6312542-6.6340455z" fill="#fff"/></g><g><g><path d="m39.7821236 32.7871017c-.0813217.2749138-.129528.550663-.2511978.8860359-.0153008.0421753-.0741081.1279564-.0741081.1704521.0212898.3109703.1277428.6005974.1596794.9009628-.6275597.3433113-1.3932457.3003616-2.0101585.6329384-.2658768-.2146034-.3296204-.5149689-.3933601-.8366737-.6061478-.6929207-.6199188-1.1971359-.6701431-1.297821l-.010643-.0966301c0-.0214729-.0106468-.0322113-.0212898-.0536842-.3933601-1.4480057-.893177-2.7030125-1.4568634-4.075861-.5743294-1.4157944-1.1593056-2.8639297-1.9888649-4.1402779.1236877.1903038.1025124.7645359.1557083 1.0067177.600132 2.7321758 1.3233795 6.6613445.9783821 9.4449787-.0330505.1795654-.0533752.39674-.198555.5203972-.305851.2605019-.6932678.4053307-1.0843163.4726295-.0106239 0-.0212479 0-.0319061-.0107079-1.7153397-1.7231789-2.3779449-4.3248997-2.9741077-6.6129704-1.1207428-4.301405-1.9838505-9.9593506-2.1094818-11.2460079-.0638714-.6866207-.0638714-1.4373989-.2339382-2.1022854l-.0212917-.0858917c.0851631-.1287098.2978115-.2252083.4572334-.2574177 1.4996986-.3325739 4.0200558.9009571 5.2537518 1.7376289 2.8673553 1.9445877 6.1523705 7.3510456 6.6042404 13.3900375.0700719.936455.0696447 1.1517184-.0787699 1.6534502z" fill="#3e95fa"/></g><g><path d="m39.5316696 33.6943588c-.0153008.0421791-.0741119.1279602-.0741119.1704559.0212898.3109703.1277466.6005974.1596832.9009628-.6275597.3433075-1.3932495.3003616-2.0101624.6329346-.265873-.2145996-.3296165-.5149651-.3933601-.8366699-.6061478-.6929207-.6199188-1.1971359-.6701393-1.2978249l-.0106468-.0966301c0-.0214729-.010643-.0322075-.0212898-.0536804-.5430145-1.9989052-2.5665436-7.0090179-3.3015671-8.0146275-.2190819-.2997322-.6064644-.4746666-.8810272-.7311211-2.236805-2.0892601-1.7141895-1.3707638-2.9653015-4.3890877-.3355732-.809576-.6028748-1.5442066-.3707066-2.5955448.1429176-.6471786.4307518-.7911015.8545475-.8118515.7480183-.0366249 1.480278.2185268 2.161087.533205 2.6412048 1.2207947 4.306675 3.622757 5.6150208 6.1551857 1.589756 3.0771313 2.1172333 5.8281822 2.2806549 8.6953716.0238495.4184153-.2675247 1.449074-.3726807 1.7389223z" fill="#3e95fa"/></g><g><g><g><path d="m39.8397903 39.0994339c-.4369087.6609802-.6444931.7233658-1.2974396.943779-.5652122.1303864-.998661-.020237-1.2231789-.2466812-.2178459-.2206116-.2082443-.3338242-.1807137-.6113358-.010643-.0214729-.0212898-.1394424-.0425797-.1609192-.2754631-.2184258-1.1277008-.1841507-.6374054-1.0704346.1072502-.1938744.1718178-.436718.3112755-.6070442.0862236-.1053123.3580627-.2849083.3580666-.4355621 0-.3968697.0851669-1.1048088.3616829-1.3944321.04245-.0429459.074192-.0857582.1167755-.1393127-.2023926-.6540184 1.8077698-1.286953 2.0101585-.6329384.3296206 1.3300362 1.010338 3.0570603.2233583 4.3548813z" fill="#fe5440"/></g><g><path d="m37.2292328 37.7147026c-.0084152.3256874-.3333549.8572388-.7645988 1.0250854-.4383965-.3696289-.1797523-.7086525.1708794-1.1458054.2740096-.0938033.6012343-.1701354.5937194.12072z" fill="#010101"/></g><g><path d="m37.135437 39.182457c.1369553-.1912613.2836914-.4280014.5300865-.4826927.4371986-.0970421.3828964.7650948-.1653137 1.0369339-.0526848.026123-.112011.0391502-.1857796.0571785-.2081146-.2225342-.2040672-.2993928-.1789932-.6114197z" fill="#010101"/></g></g><g><path d="m37.2148819 34.5380058c.0182419-.0256119.0327606-.0483513.0564041-.0699883.104126-.0955238.5814133-.1401939.7323112-.1753006.3047905-.0709457 1.2630882-.4743881 1.4566765-.4423752.018898.3050461.1288605.5909615.1548386.89505-.6232986.3444214-1.3883743.3016624-2.0055428.6386566-.2692565-.2158583-.3315734-.5222281-.3946876-.8460425z" fill="#010101"/></g></g><g><path d="m39.9098587 32.2501793c-.0034485.0153236-.058815.2533073-.0637436.2681541-.8934326.3325729-1.8611259.4934921-2.7864952.6758842-.15942.0322113-.3296165.085762-.4998131.1178398-.0106468-.0213432-.0106468-.0535507-.0212898-.074894l-.0106468-.0966301c0-.0214729-.0106468-.0322075-.0212898-.0536842.4573593-.171524 1.0104027-.2574158 1.4996986-.3753891.6273003-.1609153 1.2655029-.3539161 1.9035797-.4612807z" fill="#010101"/></g></g><g><g><path d="m22.653595 35.8064308c-.3934898.418335-.9252415.6650162-1.4889259.7722511 0 0-.1488533.0429306-.148962.0429649-1.3807487.3981934-3.5102348-.4821358-4.1582661-1.8126755-.2978115-.6114655-.3189716-1.3192978-.3189716-1.995182.0106449-3.0675335 1.0209179-6.1031189 1.9461575-8.9883938-1.4781494 1.1369057-3.1053362 3.4108448-3.8923159 5.0841885-.4149094.8794861-.7232351 1.7911797-.9997549 2.7244797-.2318954.7826843-.2716217 1.7944183-.6913033 2.4990234-.1381311.0644188-.3084574.118103-.4252968.2146034-.2221832.1893997-.0975218.4690399-.2127781.8472748-.4998131-.0963669-2.2013874-.074894-2.488553-.3109665l.0638723-.6542816c-.2447138 0-.4362011-.1073647-.6382046-.2144737-.3649788-2.7585773.6232901-7.9916573 2.8926897-11.5520916 1.2443419-1.9522343 3.0417242-3.8507843 5.0196886-5.0412407.468008-.2681541.978466-.4934921 1.4677677-.718832 1.0083599-.4493065 1.8857193-.6692619 2.851759-.9094229.5677872-.14081 1.1503143-.1119995 1.7318554-.0880356v.0644197c-.031805.8366718-.1808414 1.6946869-.2445831 2.5312271-.6035881 8.6091766.5880432 9.7176685.638073 12.8178368.0319365 1.5661107.2765216 3.4431859-.9039479 4.6873265z" fill="#3e95fa"/></g><g><g><path d="m12.9068546 34.1286964c-.1381302.0644226-.3084564.118103-.4252958.2146034-.2221832.1894035-.0975227.4690399-.2127781.8472786-.499814-.0963707-2.2013874-.074894-2.488554-.3109703l.0638723-.6542816c-.2447138 0-.4362011-.1073647-.6382036-.2144737-.3649788-2.7585754.6232901-7.9916553 2.8926897-11.5520897 1.2443409-1.9522343 3.0417233-3.8507843 5.0196877-5.0412407.468008-.2681541.978466-.4934921 1.4677677-.718832.7441864-.3427238 1.620594-.8706827 1.9492188.1847801.3789616 1.2171345.5359516 2.5041847.4607868 3.7776642-.0618324 1.0476437-.4056091 1.0381927-.9692516 1.4031029-.5863514.3796139-1.0415668 1.088459-1.5075397 1.6055641-.7264767.8061943-2.5730019 2.3773155-3.9213419 5.2353935-.4149084.8794861-.7232351 1.7911797-.9997549 2.7244778-.2321311.7834854-.2715684 1.7943306-.6913034 2.4990234z" fill="#3e95fa"/></g><g><path d="m13.2361336 33.1904945c-.0216818.0982666-.0325222.1856041-.054204.2730713-.270752-.0327988-.5631866-.0874672-.8122578-.1093369-1.0830097-.1090698-2.1660194-.2293358-3.2490301-.3058739 0-.0872002.0108414-.1746712.0108414-.2621384.9964161.0437356 3.3032331.2513391 4.1046505.4042779z" fill="#010101"/></g><g><g><path d="m9.7783899 34.8798065c.0782824-.6270447 2.5591764-.312149 2.4808941.3148994-.1163206.9911728 1.1203146 1.7805939 1.5125217 2.6189766.1687765.3606834.1839542.728363.0369959 1.0996437-.2248163.5677757-.7986431 1.0854416-1.3520374 1.3193207-1.1351357.479805-2.1363125-.2334709-2.5443535-1.3744431-.275486-.7703818-.484929-3.2176665-.1340208-3.9783973z" fill="#fe5440"/></g><g><path d="m12.6929483 38.1914177c.0634546-.0649529.2589588-.0091362.3302317.0147934.5078077.170517.5471878.7428741.2665262.7686157-.1587687.0145607-.322093-.0606956-.4309111-.1746216-.1047448-.1096649-.3066978-.4638366-.1658468-.6087875z" fill="#010101"/></g><g><path d="m11.9311113 38.8165855c.1090584-.1045494.4828014.1339188.5617695.2094841.1551991.1485138.2379303.3465385.2635517.5584641.0165968.1372833.0376225.2046013-.1186733.2002258-.1210871-.0033875-.2413301-.0376091-.3456373-.0998955-.3767481-.2249679-.445097-.7876701-.3610106-.8682785z" fill="#010101"/></g><g><path d="m9.8364649 34.2246437c.4130468-.0774231 1.9819689.0724144 2.4124842.1700745.1344995.1351776.0682373.6357117.0103617.7999687-.4970627-.0922127-2.1930532-.0724182-2.4809732-.3149071z" fill="#010101"/></g></g></g><g><path d="m19.9396534 23.0569439c.960022 1.8500977 1.8599854 3.7302246 2.710022 5.6401367-1.1099854-1.8300781-2.1699829-3.6901855-3.1699829-5.5700684-.0700073-.1201172-.0300293-.2900391.0799561-.3701172.7700195-.4499512 1.5200195-.9099121 2.2999878-1.3398438-.5999756-.3300781-2.1299438-1.1699219-2.1299438-1.1699219-.0100098-.0100098-.1800537-.1000977-.1700439-.25.0200195-.2001953.0499878-.1501465.0599976-.2099609.710022-1.3400879 1.4100342-2.6901855 2.1700439-4.000001-.5400391 1.3198252-1.25 3.000001-1.7900391 4.119874 2.3699951 1.2399902 2.3699951 1.2299805 2.4500122 1.3100586.1099854.1398926.0800171.3598633-.0700073.4599609-.799988.4799806-1.6199953.9199221-2.4400026 1.379883z"/><path d="m31.8496876 23.1570415c0 .1655102-.7022781 3.4735584-1.3099976 5.7399902.289978-2.5400391.75-5.1599121.8399658-5.6699219-.8800049-.3901367-1.7399902-.7399902-2.5100098-1.1201172-.2799683-.1398926-.2099609-.4599609.0100098-.5898438.1000366-.0900879 1.3900146-1.130127 1.7600098-1.4401855-.8300171-1.2299805-1.6500244-2.4399414-2.4099731-3.6999512.9699707 1.1499023 1.8899536 2.3601074 2.8199463 3.5600586.0700073.0400391.1000366.3100586-.039978.3898926-.0800171.0700684-1.2399902 1.0600586-1.7000122 1.4499512 1.0800171.4799805 2.3300171 1.0700684 2.3300171 1.0800781.0599975.0000001.2399901.169922.2100219.3000489z"/></g></g></g><g><g><g><path d="m26.3383179 7.4746394c.3023262-.0535431.4045067-.0560112.679842.0333614.3344822.108572.585947.2521944.7309456.7835097.2971668 1.0889091.8752708 2.3012781.3808994 3.4314966-.3025055.691597-.8166103.9065409-1.460762 1.025754.0348072 1.0754328.1758556 2.2243843.6778069 3.1892042.0814934.1568165.0966339.2402.1968689.329628l.0273628.0797749c-.2005157.460186-1.0190792 1.3312473-1.4621468 1.5784473-.2865467.1598473-.5944023.230793-.9126186.1273193-.894558-.2907829-1.8753185-1.9899712-1.8784332-2.3966675-.0040131-.5379.1949005-1.1521902.2893944-1.6881027.4295273-2.4360399.523365-3.1645002.7033463-3.717021.2396088-.7355747-.0464878-1.0001163.1020279-1.7783995.0442123-.2316923.1103592-.2946281.2720642-.39013.728155-.4300464 1.1083124-.511638 1.6534022-.6081747z" fill="#fe5440"/></g><g><g><path d="m25.0502148 7.6279325c.5365582-2.2902112 2.8780975-2.668633 3.6843357-1.4510555.1921253.2899609.2704945.6423297.1904469.9842486-.1430912.6113462-.6287689.9966121-1.1318169 1.3040881-.801012.2909861-1.7215519.2098274-2.4577312-.1655874.0064926.4227257.0542164.9685736-.2656059 1.2963619-.1271858.1303349-.2766991.145937-.4492683.1393871-.0832577-.0031643-.153162-.0142031-.2251091-.0593176.0395489.2333679.0119667.3617897-.0846424.5752859l-.1161671-.0669708c-.1292286.0395947-.2513046.0727854-.387537.0700626-.2869129-.0057411-.5470467-.1336479-.7380047-.347806-.8387108-.9411392-.2624855-3.0191207 1.1453152-2.8535399.367544.0431992.6165865.2976142.8357848.574843z" fill="#010101"/></g><g><path d="m24.1241684 9.3682137c.09902.0975866.1849022.1988516.2712975.3078442.0395489.2333679.0119667.3617897-.0846424.5752859l-.1161671-.0669708c-.0436363-.2651597-.0492535-.5475398-.070488-.8161593z" fill="#efe5e3"/></g></g></g><g><g><g><path d="m26.6268597 10.3260269-.0488281-.425293c-.0206738-.194108.2747726-.2374477.2988281-.0341797l.0488281.425293c.0211792.1988535-.2761746.2317648-.2988281.0341797z"/></g><g><path d="m27.5995159 10.2117691-.0488281-.425293c-.0205326-.1927757.2746201-.2387362.2988281-.0341797l.0488281.425293c.0211792.1988535-.2761745.2317648-.2988281.0341797z"/></g></g><g><path d="m26.6063519 12.8089371c-1.3798828-.3828125-1.484375-1.2060547-1.4882813-1.2407227-.0198975-.1868191.2711201-.2419844.2988281-.0341797.0029297.0268555.0996094.6616211 1.2695313.9858398.1926822.0528699.1092167.3431474-.0800781.2890626z"/></g></g></g></g><g><g><g><path d="m40.2694359 22.9275894c-1.1220703 0-2.0683594-.5019531-2.8378906-1.5068359-.7695313-1.0043945-1.1542969-2.5317383-1.1542969-4.5820313s.4199219-3.7211914 1.2607422-5.0141602c.8398438-1.2919922 1.8291016-1.9384766 2.9697266-1.9384766 1.1386719 0 2.0878906.5053711 2.8457031 1.515625.7578125 1.0107422 1.1367188 2.5322266 1.1367188 4.5644531 0 2.0327148-.4228516 3.7011719-1.2685547 5.0053711-.8466798 1.3041993-1.8300782 1.9560548-2.9521485 1.9560548zm-1.0839844-9.5786133c-.8161507 1.9778481-.6754837 5.2791214-.0791016 6.503418.3232422.6640625.7255859.9956055 1.2070313.9956055 2.1446419 0 2.6553612-8.8647461.2119141-8.8647461-.5175782 0-.9638672.4555664-1.3398438 1.3657226z"/></g><g><path d="m50.1297874 11.2962418 1.7617188.1582031c.1631889 1.8708143.4243965 4.1128855.7402344 7.0146484l.0888672-.0180664c.8339844-3.5952148 1.3740234-6.4086914 1.6210938-8.4414063l2.3085938.1938477c-.6582031 3.8891602-1.6210938 7.8837891-2.890625 11.9838867l-1.6914064-.140625c-.3994141-1.3862305-.8457031-3.2016602-1.3398438-5.4458008-.5048828 2.4204102-.9863281 4.3530273-1.4453125 5.7978516l-1.6914063-.140625c-.9990234-4.9814453-1.6738281-9.0234375-2.0263672-12.1254883l2.2734375.1943359c.1875 1.9853516.4814453 4.699707.8808594 8.1420898l.0878906-.0180664c.6816407-3.1367186 1.1220704-5.5219725 1.3222657-7.154785z"/></g><g><path d="m65.3563538 9.9212418.0175781 8.1953125c0 1.3510742-.046875 2.8022461-.140625 4.3530273l-1.9736366-.1938477c-1.515625-3.4423828-2.7558594-6.0214844-3.71875-7.7368164.0117188 1.7387695.0175781 4.5117188.0175781 8.3183594l-2.0625-.2290039c-.0351563-.7285156-.0527344-1.4335938-.0527344-2.1152344 0-2.8427734.1591797-6.15625.4755859-9.9394531l2.3447266.2290039c1.1630859 3.2075195 2.2080078 5.6455078 3.1367188 7.3139648-.0703125-3.5483398-.1533203-6.3447266-.2470703-8.3891602z"/></g></g><g><g><path d="m49.6229515 24.3216324 1.4414063.8408203c-.8310547 2.5732422-1.6816406 5.9868164-2.5527344 10.2416992l-1.6513672-.1503906c.1591797-.7910156.4248047-1.8823242.7958984-3.2734375-.9619141-1.8417969-1.5673828-4.1645508-1.8173828-6.9677734l1.6816406.1650391c.1503906 1.8422852.390625 3.4140625.7207031 4.715332.4609376-2.1420899.9208985-3.9995118 1.381836-5.5712891z" fill="#fd5295"/></g><g><path d="m51.3192406 29.006691c0-.9306641.1904297-1.8417969.5712891-2.7329102.676693-1.5217304 2.1832771-1.887104 3.2353516-1.2236328 2.1092796 1.3301735 1.4314079 7.1855469-1.2988281 7.1855469-1.6718751 0-2.5078126-1.0761719-2.5078126-3.2290039zm1.7568359.1352539c0 1.1313477.2509766 1.6967773.7509766 1.6967773.5709343 0 .78125-2.1961632.78125-2.777832 0-1.28125-.2099609-1.9223633-.6308594-1.9223633-.6843834 0-.9013672 2.3246575-.9013672 3.003418z" fill="#fd5295"/></g><g><path d="m62.1610374 24.8021011c.000309.1970768-.1002579 4.8200436.0908203 7.2983398l-1.4873047-.1503906c-.0302734-.4204102-.0947266-.8457031-.1953125-1.2763672-.5507813.8110352-1.1035156 1.2163086-1.6591797 1.2163086s-.9980469-.1899414-1.3291016-.5703125c-.3300781-.3803711-.4951172-.90625-.4951172-1.5771484 0-1.3012695.0947266-2.8530273.2851563-4.6547852l1.7421875.1650391c-.1806641 1.7119141-.2705078 3.1333008-.2705078 4.2646484 0 .5107422.1601563.7661133.4804688.7661133.1503906 0 .3330078-.2050781.5478516-.6157227.2158203-.4106445.3876953-.90625.5185547-1.4868164-.0349731-.7169628-.0052338-1.732214.0302734-3.5288086z" fill="#fd5295"/></g><g><path d="m66.3807678 26.4241714c-.4199219 0-.7353516.5307617-.9453125 1.5917969.0518951 1.8618107.0311737 2.945385-.0302734 4.1743164l-1.7421913-.1499023c.0398865-1.9388733.1302147-4.7497692-.2255859-6.6826172l1.1269569.1201172c.0693359.2905273.1503906.5458984.2402344.7661133.4902344-1.0512695.9853516-1.5766602 1.4863281-1.5766602.4101563 0 .7705078.1801758 1.0810547.5405273l-.390625 1.3813477c-.1601563-.1098633-.3603516-.1650391-.600586-.1650391z" fill="#fd5295"/></g></g><g><g><path d="m44.7000999 39.1341324c.1790237-.6757011.363678-1.5233841-.0751953-2.0493164-.1806641-.215332-.4130859-.3232422-.6982422-.3232422-.6336441 0-.9990234.7447701-.9990234 1.3818359 0 .7006836.4003906 1.3012695 1.2011719 1.8017578.7362862.4785843 1.9024696 1.2026482 2.2529297 1.7568359.7521973 1.2312012.542347 2.7868843-.4580078 3.671875-1.2676392 1.1186295-3.1339073 1.1371918-4.3173828-.3378906-.4404297-.5507813-.8457031-1.2363281-1.2167969-2.0571289l1.4570313-.7060547c.2304688.6005859.5175781 1.1088867.8632813 1.5244141.6213722.7468719 1.3138237.7551918 1.7792969.3828125.2001953-.1601563.3007813-.402832.3007813-.7285156 0-1.0329742-1.3409309-1.6578598-2.3574219-2.4775391-1.0290298-.8262749-1.5625-1.574173-1.5625-2.8681641 0-2.767952 3.392746-4.1862183 5.21875-2.125.5751953.6508789.8632813 1.3193359.8632813 2.0048828s-.1298828 1.2739258-.390625 1.7641602z"/></g><g><path d="m51.5770531 39.4197769v1.4262695c-.4804688 0-.8505859.0053711-1.1113281.0151367-.0292969 1.0014648-.0449219 2.6831055-.0449219 5.0458984l-1.7714844-.1655273c0-1.7514648.0146484-3.3383789.0449219-4.7602539-.1503906 0-.4355469.0253906-.8564453.0751953l-.2246094-1.2314453c.2402344-.0498047.6152344-.1147461 1.1259766-.1953125.0195313-.7407227.0595703-1.8217773.1201172-3.2436523l1.7871094.1655273c-.0605469.9912109-.1054688 1.9521484-.1357422 2.8833008.2509765-.0102539.6064452-.0151367 1.0664062-.0151367z"/></g><g><path d="m55.9168968 38.1731949 1.4414063.8408203c-.8310547 2.5732422-1.6816406 5.9868164-2.5527344 10.2416992l-1.6513672-.1503906c.1591797-.7910156.4248047-1.8823242.7958984-3.2734375-.9619141-1.8417969-1.5673828-4.1645508-1.8173828-6.9677734l1.6816406.1650391c.1503906 1.8422852.390625 3.4140625.7207031 4.715332.4609376-2.1420899.9208985-3.9995118 1.381836-5.5712891z"/></g><g><path d="m60.1961937 34.8548355c-.2833443 4.7718124-.2640953 9.2530441-.1503906 11.1269531l-1.7714844-.1650391c-.1485481-3.8622818-.0317421-7.796608.1650391-11.097168z"/></g><g><path d="m63.5604515 44.6155777c.3798828 0 .7851601-.3652344 1.2158241-1.0961914l1.1416016.6757813c-.5553741.9626427-.823822 1.1934662-1.3369141 1.5014648-.8144608.488903-1.9844093.4797249-2.7626991-.4882813-1.0087509-1.2535057-.6852379-3.6375999-.0898438-5.0830078.3506279-.8235474 1.1333008-1.5917969 2.0195313-1.5917969.9390144 0 1.5875053.4028664 1.9140663 1.2915039.2362442.6428909.2896042.8933868.3457031 1.5620117.0400391.4804688.0605469.9160156.0605469 1.3061523-.8017578.2202148-1.8378906.4204102-3.1084023.6005859.0303765.4156038.1808053 1.3217775.600586 1.3217775zm.3300781-4.6103516c-.2207031 0-.4179688.2202148-.5927734.6606445-.1757813.440918-.2783203.9511719-.3085938 1.5317383.53125-.1098633.9912109-.2148438 1.3818398-.3154297 0-1.2509765-.1601563-1.8769531-.4804726-1.8769531z"/></g></g></g></g></svg>