<svg id="Layer_1" enable-background="new 0 0 75 75" viewBox="0 0 75 75" xmlns="http://www.w3.org/2000/svg"><g id="_x39_"><g><path d="m60.3537369 34.3718834c-1.473278-.9399414-3.3349266-1.4499512-4.9972878-1.8999023-11.677681-3.1249352-24.7490673-2.0355453-36.175518 3.5600586-.7963047.3898926-1.5528717.8498535-2.3491764 1.2299805-.7764969.369873-1.5828867.6899414-2.2796688 1.2199707-.8562117-.25-1.7022171-.5500488-2.5484648-.8601074-1.5827656-.5998535-3.3546124-1.1699219-4.4995503-2.5100098-3.2651753-3.789917 1.393806-8.8099365 4.3900638-10.9299335 8.7132645-6.1373253 19.7448387-8.3333712 30.2312927-8.3574409 6.8811188-.0157938 14.0433693 1.1299591 20.0499763 4.5473843.6769409.3801079 1.3537598.7799873 1.9808846 1.2499313 2.4992218 1.8728008 2.3127899 5.4739609.8666 7.9347534-.9072418 1.5437392-2.4365921 3.2579153-4.6691513 4.8153151z" fill="#fe5540"/></g><g><g><path d="m27.0423031 30.5095024c-1.28125.4326172-2.7822266-1.7832031-3.2861328-2.6953125-.0234375.8193359-.015625 1.6435547-.1191406 2.4462891-.0732422.5810547-.3105469 1.0820313-.9033203 1.28125-1.2138672.4101563-2.4072266-1.4277344-2.8701172-2.3085938-.7441406-1.3574219-1.4082031-2.7880859-1.9462891-4.2451172-.1289063-.3330078-.2607422-.6796875-.3076172-1.0400391-.0556641-.3867188.1679688-.7021484.4794922-.8066406.6191406-.2099609.9697266.4238281 1.1835938.8779297 1.2645493 2.6847076 1.9227695 4.5405178 2.9482422 5.7412109.1932411-1.3902664.1467838-3.9701366.1376953-5.0986328-.0097656-.2519531-.0332031-.4990234.0380859-.734375.1814938-.5780945.8787727-.7281628 1.2597656-.3193359.1435547.1621094.2167969.3779297.2714844.5839844.4966183 1.5412865 1.3145218 3.621048 2.5751953 4.6347656.0566406-.4101563.0507813-.828125.0380859-1.2607422-.0411396-2.6870651-.3703823-4.5649128-.5722656-5.9570313-.1191406-.4853516-.2666016-1.2324219.3671875-1.4462891.2832031-.0957031.7207031.0878906.8164063.3710938.6640224 1.9636574 1.1736088 7.0836487.7402344 8.9824219-.1093751.4726563-.4453126.8564454-.850586.9931641z" fill="#231f20"/><path d="m19.8196468 29.2565727c-.7705078-1.4052734-1.4267578-2.8359375-1.9492188-4.2509766-.1220703-.3164063-.2617188-.6757813-.3105469-1.0507813-.0556641-.3867188.1552734-.7412109.5136719-.8613281.7001953-.2421875 1.0830078.5615234 1.2441406.9042969 1.0184155 2.1544971 1.8752937 4.4345436 2.8691406 5.6435547.1784039-1.3984604.1291733-3.9903698.1181641-5.0742188-.0107422-.2167969-.0205078-.4404297.0439453-.6542969.193222-.6141701.9392109-.7752457 1.34375-.3388672.1552734.1748047.2304688.4033203.2832031.6054688.4834366 1.4956303 1.2849789 3.5366516 2.4892578 4.5507813.0439453-.3808594.0380859-.7675781.0263672-1.1621094-.0398216-2.6325855-.3631687-4.5276756-.5722656-5.9521484-.0996094-.40625-.3095703-1.2607422.4013672-1.5009766.299139-.1030827.7720833.0862637.8798828.4033203.6639519 1.9673939 1.1770973 7.0991879.7412109 9.0087891-.1113281.4824219-.4580078.8867188-.8837891 1.0302734-1.2240353.4046383-2.6017685-1.4574261-3.2568359-2.5644531-.0467567 1.9170074.0545464 3.2239246-1.0517578 3.5966797-1.1763571.3890305-2.354801-1.2357254-2.9296874-2.3330078zm-1.4921875-6.1064453c-.4150486 0-.7303047.3584003-.6679688.7910156.046875.3642578.1835938.7167969.3046875 1.0292969.5205078 1.4111328 1.1748047 2.8369141 1.9433594 4.2382813.5458126 1.0431099 1.6987209 2.6652679 2.8105469 2.2851563 1.0304699-.345499.9427776-1.5190392.9931641-3.8642578.6388493 1.143486 2.0755959 3.2544556 3.3154297 2.8320313.3925781-.1318359.7138672-.5078125.8173828-.9570313.438036-1.9146404-.0852165-7.0240993-.7392578-8.9550781-.0851212-.2574921-.4969978-.4248447-.7529297-.3388672-.5488281.1845703-.4775391.8046875-.3339844 1.3867188.3300819 2.2899399.7052689 4.6552124.5224609 7.3242188-.101305-.1035118-.7487221-.4781532-1.5351563-1.9707031-.9459171-1.7261658-1.0746517-2.959322-1.3857422-3.3095703-.3506927-.3769493-1.0033989-.2435474-1.1748047.3007813-.1259403.4149818.1273575 3.3609505-.1894531 5.9355469-.0764351-.1001549-.4696808-.4988537-.9628906-1.4189453-1.8552188-3.5297111-2.0913028-5.3085941-2.9648437-5.3085941z" fill="#fe5540"/></g><g><path d="m32.9612465 29.1364555c-.4628906.0820313-.9267578.0791016-1.3554668-.1337891-1.3759766-.6503906-2.1875-2.8212891-1.8769531-4.3095703.2509766-1.3339844 1.3896484-2.6386719 2.7490215-2.8818359 2.506752-.4484768 2.0501556 3.6030254-1.288084 4.0810547.1035156.5751953.5830078 1.7050781 1.1259747 1.9121094.4419937.1299973 1.431942-.124527 2.1464844-.9345703.3973961-.5125275 1.1206207-.2429314 1.1191406.3496094.0058594.1142578-.0273438.2509766-.1123047.3388672-.647461.8242187-1.4560548 1.3896484-2.5078126 1.5781249zm-1.716795-4.5419922c.6757813-.1787109 1.2705059-.5751953 1.5126934-1.2402344.0400391-.0947266.0644531-.2001953.0605469-.3007813-.6458626.0649282-1.3568535.8618013-1.5732403 1.5410157z" fill="#231f20"/><path d="m32.4348793 29.2370415c-1.8996944 0-3.1329498-2.7445583-2.7548809-4.5537109.2685547-1.4287109 1.4677734-2.6845703 2.7890606-2.9208984 2.5438156-.4628716 2.1607323 3.645195-1.2207012 4.171875.1152344.5498047.5751953 1.6289063 1.084959 1.8232422.4178505.122757 1.3912735-.127512 2.0917969-.9208984.4199867-.5435104 1.2091446-.2599182 1.2060547.3828125.0058594.1103516-.0244141.2685547-.1259766.3740234-.6992188.8896484-1.5292969 1.4121094-2.5351563 1.5917969-.1914062.0341795-.3691406.0517577-.5351562.0517577zm.0517578-7.3769532c-1.2822247.2294922-2.4472637 1.4511719-2.7089825 2.8417969-.296875 1.4238281.4462891 3.5927734 1.8496094 4.2558594.3691406.1835938.7890606.2246094 1.3251934.1298828.9804688-.1757813 1.7910156-.6865234 2.4775391-1.5605469.2628746-.27215.0162468-.9610004-.5439453-.8710938-.1484375.0273438-.28125.1113281-.3847656.2441406-.7316399.831707-1.7453346 1.0860424-2.1992188.9521484-.5722637-.2177734-1.0595684-1.3857422-1.1611309-1.9511719l-.0097656-.0507813c.2032375-.0444927.657547-.0719452 1.225584-.3740234 2.1973305-1.1139963 2.2070122-3.9854792.1298828-3.6162108zm-1.3173809 2.8056641.0273438-.0869141c.2152519-.6731071.9350986-1.5080433 1.616209-1.5751953l.0527344-.0048828.0019531.0527344c.0039063.1015625-.0185547.2128906-.0644531.3222656-.2226563.6132813-.7724609 1.0644531-1.5458965 1.2685547zm1.5976544-1.5546875c-.5814095.0963287-1.2155399.7897301-1.444334 1.4091797.6933575-.2060547 1.1835918-.6240234 1.3876934-1.1835938.0322265-.0771484.0517577-.1542968.0566406-.2255859z" fill="#fe5540"/></g><g><path d="m41.8528481 28.3366508c-.5400391.0263672-1.0537109-.8339844-1.1757813-1.2841797-.2050781-.6894531-.2714844-1.4277344-.3193359-2.1386719-.3789063 1.0029297-1.2871094 3.4140625-2.5810547 3.4765625-2.0756035.1005936-2.5988617-3.6759605-.5976563-6.3330078.8072395-1.0536442 1.8330803-1.364048 3.0087891-1.1289063.0888672-.21875.1337891-.4628906.2978516-.6279297.533802-.5938988 1.315094-.1708298 1.3935547.5175781l.0205078.4121094c.0334511 1.5205231-.0001793 4.9306183.3681641 6.0019531.0009766.0146484.0605469.0683594.0751953.0820313.299324.3346006.1140708.9925443-.4902344 1.022461zm-4.084961-1.5859375c.6461411-.6812553 1.3600922-2.9232788 1.8535156-4.2832031-.2275391-.0029297-.453125.0361328-.6464844.1591797-1.1502494.7990685-1.68264 3.0887032-1.2070312 4.1240234z" fill="#231f20"/><path d="m37.1389809 22.0270805c.7780685-1.0157375 1.7940331-1.388525 3.0175781-1.1552734.0792656-.2144833.1330528-.444334.2939453-.6064453.5521622-.6167393 1.394249-.1962128 1.4785156.546875l.0205078.4150391c.0264931 1.250946-.0015831 4.9216099.3652344 5.9882813.0048828.0068359.0185547.0214844.0576172.0576172.2974358.3284168.1542892.8843613-.21875 1.0380859-.185688.0729485-.1976166.0551357-.2988281.0751953-.0078125.0009766-.0166016.0009766-.0253906.0009766-.5527344 0-1.0732422-.8535156-1.2001953-1.3222656-.1875-.6279297-.2597656-1.3076172-.3056641-1.9208984-.4277344 1.1191406-1.3046875 3.2363281-2.5449219 3.2958984-2.0870781.143936-2.6816826-3.7007982-.6396484-6.4130861zm.0800781.0605469c-.8789063 1.1669922-1.3369141 2.7070313-1.2255859 4.1191406.100811 1.1045685.6537056 2.1740589 1.78125 2.1337891 1.2578125-.0605469 2.1523438-2.4277344 2.5341797-3.4384766l.0810547-.2148438c.0582314.7578831.1004105 1.5632343.3349609 2.3505859.1171875.4316406.6083984 1.2490234 1.1035156 1.2490234h.0224609-.0009766c.5743179-.0293026.7196198-.6432343.4560547-.9394531-.4692497-.4314079-.4385147-5.291832-.4560547-6.1162109l-.0205078-.4101563c-.0749474-.6607723-.8083076-1.0406456-1.3066406-.4873047-.1431618.1443863-.1792526.3245964-.3046875.6523438-.1131363.0175306-1.7188949-.5691489-2.9990234 1.1015626zm.5341797 4.7509766-.03125-.0673828c-.4869957-1.0608635.0602646-3.3767567 1.2246094-4.1855469.2156868-.1374702.4687347-.1790123.7460938-.1669922-1.4247476 4.2933769-1.8925248 4.3192425-1.9394532 4.4199219zm1.796875-4.3203125c-.21875.0058594-.3994141.0556641-.5488281.1503906-1.1064949.76968-1.6315231 2.9652233-1.2177734 3.9912109.612255-.7007999 1.3933677-3.1067218 1.7666015-4.1416015z" fill="#fe5540"/></g><g><path d="m43.6243324 28.2360649c-.4775391-.7568359-.1201172-4.9130859-.0371094-5.8769531.0429688-.4970703.1220703-1.2470703.8017578-1.1875.3554688.03125.5078125.2587891.5947266.5664063.0945511.5625687.0753136 1.7718811.0576172 2.3339844.3681641-.796875.7832031-1.6464844 1.3945313-2.2783203.2167969-.1953125.5615234-.3662109.859375-.3398438.3964844.0341797.7978516.3554688.9355469.7392578.3444672.6979942-.3958206 1.2859344-.9960938.7988281-1.3500977 1.4442921-2.0932121 4.7281418-2.3808594 5.2373047-.2999039.4598541-.883316.4982567-1.2294922.0068359z" fill="#231f20"/><path d="m44.2200356 28.6393852c-.2568359 0-.5039063-.1855469-.6367188-.375-.3203125-.5068359-.3349609-2.5498047-.0458984-5.9091797.0568161-.6593399.1856766-1.2819843.8554688-1.2333984.4257813.0371094.5654297.3417969.6386719.6025391.0906982.5359421.0775223 1.598465.0664063 2.1074219.3505859-.7451172.7470703-1.4990234 1.3017578-2.0732422.2279434-.2051487.5876541-.3816872.9003906-.3544922.4121094.0351563.8330078.3671875.9775391.7724609.3598442.7196808-.4050331 1.3531952-1.0371094.8828125-1.3527451 1.4806805-2.0337639 4.6440468-2.3427734 5.1943359-.1279297.1953125-.3740234.3857422-.6464844.3857422-.0097658 0-.0195314 0-.0312501 0zm-.5830079-6.2763672c-.3828125 4.4404297-.1455078 5.5683594.0292969 5.8466797.1376953.1953125.3652344.3300781.5546875.3300781h.0136719.0175781c.234375 0 .4492188-.1679688.5595703-.3378906.0745544-.1321621.1177406-.2863064.1796875-.4863281.1979942-.5671368.4945717-1.4932652.8300781-2.3320313.733799-1.896801 1.3375931-2.3533535 1.4082031-2.4599609l.0361328.0292969c.5644531.4560776 1.2379036-.0935402.921875-.734375-.1477814-.4095707-.5773048-.7177734-.9550781-.7177734-1.0098495 0-1.7963257 1.8643227-2.2490234 2.8154297.0136108-.6709671.0605354-1.9026318-.0488281-2.5703125-.0966797-.3408203-.2617188-.4990234-.5498047-.5244141-.5970192-.0477619-.6959152.5449829-.7480469 1.1416015z" fill="#fe5540"/></g><g><path d="m49.0296059 29.1774712c-.4946175-.0939407-.7225266-.7011318-.3388672-1.0634766.1787109-.1835938.5615234-.3007813.7822266-.1582031.3544922.1972656.53125.6494141.2705078.9638672-.1875.2255859-.4765625.3017578-.7138672.2578125zm.1474609-4c-.1351166-1.2081108.870018-5.2017975 1.2880859-5.6132813.4783211-.4572964 1.2631989-.0790119 1.0976563.5673828-.027092.1034985-.949173 4.1739807-1.1328125 5.1640625-.0029297.0136719-.0322266.0947266-.0478516.1064453-.2554283.5888501-1.1471748.4598694-1.2050781-.2246093z" fill="#231f20"/><path d="m49.0208168 29.2262993h-.0009766c-.539917-.1025848-.7732277-.7608509-.3632813-1.1484375.1992188-.2050781.6025391-.3183594.84375-.1640625.3805275.2121811.561203.7007103.28125 1.0380859-.1754684.2116986-.4698028.3289643-.7607421.2744141zm.6845703-.3388672c.2402725-.2906513.0688782-.7069359-.2568359-.8876953-.334465-.2174873-.9827728.1559181-.8945313.6357422.1125107.5667839.8066063.6665134 1.1513672.2519531zm-.0224609-3.0732422c-.3105469-.0576172-.5283203-.3056641-.5556641-.6328125-.133606-1.2173119.866333-5.2237358 1.3027344-5.6523438.5175858-.4952011 1.3592033-.0772476 1.1816406.6152344-.1035919.3892536-.1365089.6447239-.5576172 2.4775391-.6582146 2.8768845-.5447502 2.6990318-.6289063 2.8076172-.1382598.3086796-.4516448.4401073-.7421874.3847656zm.8164062-6.2138672c-.4113197.4062099-1.4041443 4.4108143-1.2724609 5.5712891.0527458.6351261.8760452.7541656 1.109375.2109375l.0048828-.0126953.0107422-.0078125c.229496-1.0388412 1.0406151-4.7740021 1.1621094-5.2431641.0917244-.356226-.1307144-.6364002-.4423828-.6953125-.0390625-.0068359-.4148331.026537-.5722657.1767578z" fill="#fe5540"/></g></g><g><path d="m65.5150833 23.3049488c.013176-.0189495.0405273.0049591.0498123.026125.1978149.4510822.5062714.8486996.7144623 1.3000431.5212326 1.1300106.6868668 2.31007.9093933 3.526413.2548981 1.3790684.5498581 2.736517.7119751 4.1318417.2195282 1.3295937.8891144 4.6608696.8583298 5.3992882.1835709.8025932.2532578 1.6477242.3911514 2.4614182.108551.6405525.2654724 1.2925529.3220978 1.9391899.2892914 3.3037643-2.0750732 5.9649887-4.3546066 7.993927-7.4616966 6.6414032-27.3264084 12.0655365-46.2412529 7.0480919-2.4017372-.6370926-4.8316307-1.3280067-6.925848-2.67202-1.6641455-1.067955-2.3455048-2.1662712-2.7661419-4.0879517-.9985666-4.5619621-1.7078319-9.2179337-2.8524003-13.7393723-.6322522-2.4977112-2.1785035-4.6529408 1.8164458-9.1452217.1928463-.2168541.3723736-.4218369.6644163-.4951363-.08041.1843376-.2286549.2185192-.7128201.8944473-1.1302595 1.577919-1.5821943 3.3097534-1.4831071 4.7079391.0514169.89711.3212352 1.8003044.9114375 2.4898491 1.4184351 1.6571846 4.2333689 2.4536476 6.2222939 3.1387558 7.1945448 2.4782448 15.1030741 2.7655945 22.6357002 2.4112282 4.6406593-.2183113 9.2966957-.6652641 13.7853775-1.8723793 5.3597145-1.4413567 11.4565659-4.0876656 14.542572-8.9898167 1.0776367-1.7118416 1.5546875-3.7108402.9925079-5.6627846-.065545-.2275523-.2466744-.5632972-.1917962-.8038749z" fill="#f2cf2a"/></g><g><path d="m68.7740784 37.9286385c.4945755 2.1187057.9906921 4.3241234.5269547 6.4499016-.4416809 2.0246849-1.7216187 3.7724648-3.2080841 5.2052498-2.8655396 2.7620544-6.5283585 4.5356064-10.2545395 5.9015503-9.7956085 3.5907097-20.7472839 4.408783-30.4735641 3.1110649-4.5786266-.6108971-9.5027094-1.386116-13.4719563-3.9278984-1.6675739-1.067955-2.3503361-2.1662712-2.7718401-4.0879517-.8535566-3.8914642-1.1207323-5.0385094-1.0219841-5.5098763-.0406723.2540627.3578587.6136856.502944.7637634 3.2428703 3.3544235 11.4569912 4.758152 15.9591179 5.4342728 12.3066139 1.8481903 28.7686272.1656456 39.0554047-7.2889366 2.2544173-1.6337242 4.208763-3.3213463 5.1575469-6.0511398z" fill="#3e96fa"/></g><g><g><path d="m15.6712093 52.401104c-.2226563-.0576172-.4404297-.2285156-.4755859-.4746094-.0253906-.3818359.2207031-.7548828.4472656-1.0449219.7382813-.9082031 1.5878906-1.7226563 2.4238281-2.5292969-.8144531-1.2382813-1.21875-2.4697266-1.5634766-3.8730469-.4348316-.6059875.3104286-1.3210869.8291016-.7832031.1210938.1572266.4326172.9267578.5097656 1.109375.8123531 1.9368782 1.0606842 2.2174301 1.2236328 2.5957031.1610279-.1485023 2.2391415-2.036377 2.2871094-2.1015625.2303829-.4368057.8983479-.3057594.9902344.1835938.0273438.1328125-.0009766.2880859-.0810547.4042969-.6081047 1.0719604-3.8900146 3.9747849-5.6230469 5.9677734-.1992187.234375-.6279296.6347657-.9677734.5458985z" fill="#231f20"/></g><g><path d="m20.712225 50.557354c.4179688-1.1142578 1.5078125-3.0068359 2.9443359-2.7226563.2255859.0449219.4248047.1582031.5634766.3339844.0166016.0400391.0957031.2041016.1269531.234375.6005859.5146484.6455078 1.2880859.5019531 2.0126953-.1376953.7001953-.3515625 1.4101563-.7431641 2.0107422-1.4681777 2.2399864-4.494028.9281197-3.3935546-1.8691406zm2.7480468.5820312c.1337891-.3681641.2324219-.7431641.2832031-1.1279297.0625-.4326172-.0078125-.6435547-.3203125-.9277344-.5634766.2832031-1.0283203 1.0791016-1.2744141 1.6347656-.1679688.3496094-.2949219.7431641-.2724609 1.1298828.0734177.5726548.984644.7824746 1.5839844-.7089843z" fill="#231f20"/></g><g><path d="m26.5257015 54.5964165c-1.5649414-.1996574-1.1378613-3.2061615-.7910156-4.7490234.1303272-.587986.3322353-1.3937302.9384766-1.3183594 1.1571617.1509323-.0863705 2.4091492.1767578 4.5976563.5576172-.5380859.9833984-1.203125 1.375-1.8720703.0966797-.1826172.5820313-1.0224609.6318359-1.2236328.0498047-.1884766.2578125-.9541016.3632813-1.1113281.3047161-.4521599.9723454-.3281059 1.1162109.1435547.0498047.1777344 0 .3789063-.0478516.5556641-.2897015 1.4004364-.4957695 2.9654884-.3564453 4.3935547.0527344.3486328-.2539063.6503906-.6015625.6054688-.625-.0800781-.8017578-1.1650391-.8261719-1.6435547-.3876953.5478516-.8027344 1.1162109-1.3613281 1.4824219-.1865234.1230466-.4013672.1679685-.6171875.1396482z" fill="#231f20"/></g><g><path d="m31.3987484 54.9665337c-.4257813-.6298828-.2275391-4.1699219-.1816406-4.9912109.0234375-.4228516.0712891-1.0625.6503906-1.0292969.3027325.0166016.4374981.2060547.5205059.4648438.0934372.4966736.1085014 1.4877205.1074219 1.9814453.3568535-.8390236 1.008049-2.3307228 1.8486328-2.2822266.3388672.0185547.6865234.2802734.8144531.6025391.3060837.5936127-.3034744 1.0978317-.8271484.7050781-1.1151161 1.2663193-1.6544914 4.0622139-1.8876953 4.5117188-.1074219.1757811-.7350121.4495047-1.04492.0371093z" fill="#231f20"/></g><g><path d="m39.3635902 53.5593071c-.2090607-1.619854-.092514-4.756958-.0351563-5.8330078-.7257805.0643845-.9349327-.6361732-.5634766-.9570313.3486328-.2880859 2.7460938-.65625 3.3486328-.7119141 2.3067284-.2145805 2.9952087 1.0488434 2.6152344 2.2128906-.4582176 1.4132042-2.9559402 3.7231598-4.1074219 4.3085938.0146484.4130859.0400391.8115234.1015625 1.2070313.0107422.1201172.0097656.2421875.0546875.3476563.4433443.799942-1.156803 1.624916-1.4140624-.5742188zm1.2460938-2.5351563c.7802734-.6191406 2.5263672-2.2294922 2.8603516-3.2089844.0195313-.0498047.03125-.1855469.0009766-.2431641-.2649879-.3812141-2.3705139-.0648766-2.9042969.0146484.1083984 1.145508.0449218 2.2939455.0429687 3.4375001z" fill="#231f20"/></g><g><path d="m47.0774574 54.2546196c-.5791016-.4912109-1.3476563-3.953125-1.5263672-4.7568359-.0917969-.4130859-.21875-1.0419922.3496094-1.1679688.2939453-.0654297.4755859.0810547.625.3076172.2310524.4723663.497448 1.3720207.6396484 1.8789063.1159859-.8970909.3386955-2.516201 1.1611328-2.6982422.3310547-.0732422.7382813.0849609.9472656.3603516.4532852.4804802.0121498 1.14011-.6044922.9033203-.7294693 1.5155334-.4921684 4.3689384-.5976563 4.8535156-.0546873.1982421-.5809096.6341781-.9941405.3193359z" fill="#231f20"/></g><g><path d="m50.5061684 46.644268c-.4023438.1279297-.7197266-.3046875-.8486328-.7080078-.0585938-.1845703-.25-.8984375-.2236328-1.0966797.0715714-.5510941.8766899-.6079941 1.0136719-.0439453.0146484.0839844.2050781.4804688.2304688.5605469.0332031.0664063.1669922.4423828.2001953.5078125.142578.3232422-.0380861.6738281-.3720704.7802734zm1.7392578 6.1513672c-.5068359.1621094-.9785156-.4375-1.1337891-.8447266-.1142578-.3193359-.4931641-1.9775391-.5615234-2.3105469-.0546875-.2880859-.0693359-.5751953-.1474609-.8554688-.0283203-.1298828-.2167969-.7558594-.2226563-.8935547-.0126953-.1611328.0820313-.34375.2167969-.4375.4040718-.2950363.8969345-.0044518.8398438.4423828-.0126953.1191406.1201172.5332031.1572266.6494141.0924683.293541.151886.3072319.4931641 1.3408203.0732422.2304688.4648438 1.6552734.5380859 1.8857422.0410156.1269531.1630859.2285156.1953125.3701172.0654296.2841798-.1103517.5683595-.3750001.6533204z" fill="#231f20"/></g><g><path d="m57.8997231 49.6569633c-.7790108-.7763176-1.3155556-2.1525078-1.6777344-3.1806641.0820313 1.0722656.3056641 4.5175781-.9287109 5.1064453-.6350708.3024139-1.392292-.0565948-1.7158203-1.0712891-.4873047-1.4707031-.6494141-4.3955078 1.03125-5.1972656.1416016-.0673828.2939453-.1132813.4521484-.1474609-.0166016-.2607422-.1318359-1.7070313-.1269531-1.9775391.0175781-.3300781.0625-.7128906.4013672-.875.2929688-.1396484.6865234-.0185547.84375.3085938.9723511 2.0437927 1.5951157 5.2064514 3.2939453 6.7666016.1542969.1542969.1806641.4628906.0693359.6503906-.3679314.6132241-1.160904.1177979-1.6425781-.3828125zm-3.0126954.538086c.3544922-1.0810547.2949219-2.4726563.2558594-3.59375-.7021484.7773437-.5371094 2.7226562-.2558594 3.59375z" fill="#231f20"/></g><g><path d="m61.9749184 47.9811821c-1.2919922.0380859-2.7402344-1.2919922-3.0791016-2.5380859-.3232422-1.1064453.0361328-2.5332031.9697266-3.2412109 1.7156677-1.2984695 2.9446144 1.9328003.5966797 3.5859375.2998047.3955078 1.0966797 1.0664063 1.5888672 1.0126953.3803711-.0700073 1.0364685-.6489487 1.2626953-1.5351563.1085701-.5465889.7578545-.6112556.9814491-.1669922.0478516.0849609.0751953.2001953.0449219.2998047-.3343354 1.7001686-1.5584298 2.5752487-2.3652382 2.5830078zm-1.9697266-3.1972656c.4423828-.3964844.7382813-.9248047.6650391-1.5224609-.0058594-.0869141-.0273438-.1757813-.0693359-.2509766-.4609223.297039-.6962281 1.1714935-.5957032 1.7734375z" fill="#231f20"/></g><g><path d="m63.8704262 42.6149712c-.1123047-.0595703-.6269531-.4677734-.7294922-.5527344-.5927734-.5185547-1.1445313-1.0986328-1.6513672-1.7041016-.1972656-.2294922-.8945313-1.0390625-.9472656-1.3300781-.0945854-.5517578.5443687-.9280548.921875-.5.0872498.1003342 2.4785805 2.6607704 3.0869179 3.2626953.0087891.0087891.0517578.0683594.0517578.0859375.2901611.4576416-.2206955 1.0295105-.7324257.7382813zm2.1152382 2.1298828c-.4153748-.1813965-.3589096-.8678017-.0224609-1.0087891.3076172-.1552734.7099609-.0634766.8056641.2705078.1331176.4593468-.2867662.9481583-.7832032.7382813z" fill="#231f20"/></g></g></g></svg>