<?xml version="1.0" encoding="UTF-8"?>
<!-- Generator: Adobe Illustrator 25.2.0, SVG Export Plug-In . SVG Version: 6.00 Build 0)  -->
<svg xmlns="http://www.w3.org/2000/svg" xmlns:xlink="http://www.w3.org/1999/xlink" version="1.1" id="Capa_1" x="0px" y="0px" viewBox="0 0 512 512" style="enable-background:new 0 0 512 512;" xml:space="preserve" width="512" height="512">
<g>
	<path style="fill:#EA7E94;" d="M244.952,260.684L231.74,350.97c0,0,63.861-4.404,70.467-2.202   c6.606,2.202-19.819-96.893-19.819-96.893L244.952,260.684z"/>
	<path style="fill:#241726;" d="M145.625,37.554c-0.899,0-1.831,0-4.469-10.519c-8.966-1.718-9.726-2.737-9.979-3.077   c-0.224-0.297-0.322-0.867-0.221-1.224c0.142-0.503,0.517-1.827,10.716-5.932c3.644-9.518,4.87-9.518,5.606-9.518   c0.377,0,0.918,0.283,1.142,0.585c0.638,0.856,1.228,3.129,2.125,6.771c0.294,1.194,0.65,2.642,0.843,3.222   c0.513,0.238,1.755,0.683,2.777,1.05c5.1,1.828,6.515,2.488,6.743,3.651c0.079,0.412-0.14,1.04-0.452,1.32   c-1.069,0.959-6.51,2.959-8.812,3.778c-4.306,9.806-5.215,9.854-5.949,9.892C145.674,37.554,145.646,37.554,145.625,37.554z    M134.096,22.927c1.724,0.537,5.215,1.339,8.253,1.905c0.459,0.086,0.827,0.433,0.939,0.888c0.774,3.133,1.794,6.708,2.488,8.558   c0.988-1.717,2.593-5.079,3.889-8.046c0.133-0.304,0.384-0.539,0.697-0.649c2.605-0.917,5.557-2.053,7.23-2.808   c-1.219-0.538-3.069-1.201-4.231-1.618c-2.913-1.045-3.516-1.291-3.872-1.768c-0.315-0.425-0.534-1.222-1.263-4.18   c-0.308-1.257-0.797-3.246-1.209-4.585c-0.904,1.643-2.258,4.76-3.299,7.514c-0.119,0.312-0.363,0.562-0.673,0.685   C139.688,20.162,135.878,21.88,134.096,22.927z"/>
	<path style="fill:#241726;" d="M445.06,140.15c-0.899,0-1.831,0-4.469-10.519c-8.966-1.718-9.725-2.737-9.979-3.077   c-0.224-0.297-0.322-0.867-0.221-1.224c0.142-0.503,0.517-1.827,10.716-5.932c3.644-9.518,4.87-9.518,5.606-9.518   c0.377,0,0.918,0.283,1.142,0.585c0.638,0.856,1.228,3.129,2.125,6.771c0.294,1.194,0.65,2.642,0.843,3.222   c0.513,0.238,1.755,0.683,2.777,1.05c5.1,1.828,6.515,2.488,6.743,3.651c0.079,0.412-0.14,1.04-0.452,1.32   c-1.069,0.959-6.51,2.959-8.812,3.778c-4.306,9.806-5.215,9.854-5.949,9.892C445.109,140.15,445.081,140.15,445.06,140.15z    M433.531,125.523c1.724,0.537,5.215,1.339,8.253,1.905c0.459,0.086,0.827,0.433,0.939,0.888c0.774,3.133,1.794,6.708,2.488,8.558   c0.988-1.717,2.593-5.079,3.889-8.046c0.133-0.304,0.384-0.539,0.697-0.649c2.605-0.917,5.557-2.053,7.23-2.808   c-1.219-0.538-3.069-1.201-4.231-1.618c-2.913-1.045-3.516-1.291-3.872-1.768c-0.315-0.425-0.534-1.222-1.263-4.18   c-0.308-1.257-0.797-3.246-1.209-4.585c-0.904,1.643-2.258,4.76-3.299,7.514c-0.119,0.312-0.363,0.562-0.673,0.685   C439.123,122.757,435.314,124.476,433.531,125.523z"/>
	<path style="fill:#241726;" d="M76.101,151.309c-0.002,0-0.04,0-0.04,0c-2.365-0.009-4.583-0.94-6.247-2.618   c-1.666-1.679-2.575-3.905-2.565-6.27c0.021-4.858,3.991-8.811,8.849-8.811c2.402,0.01,4.62,0.94,6.284,2.619   c1.666,1.679,2.575,3.905,2.565,6.27C84.928,147.358,80.957,151.309,76.101,151.309z M76.127,135.996   c-3.577,0-6.475,2.887-6.491,6.437c-0.007,1.727,0.657,3.352,1.873,4.578c1.216,1.226,2.836,1.905,4.562,1.912l0.03,1.193v-1.193   c3.546,0,6.445-2.887,6.461-6.436c0.007-1.727-0.657-3.352-1.873-4.578C79.473,136.684,77.854,136.005,76.127,135.996z"/>
	<path style="fill:#241726;" d="M452.582,177.522c-0.002,0-0.04,0-0.04,0c-2.365-0.01-4.583-0.94-6.247-2.619   c-1.666-1.679-2.575-3.905-2.565-6.269c0.021-4.858,3.991-8.811,8.847-8.811c2.405,0.01,4.623,0.94,6.286,2.619   c1.666,1.679,2.575,3.905,2.565,6.269C461.408,173.569,457.437,177.522,452.582,177.522z M452.607,162.209   c-3.577,0-6.475,2.887-6.491,6.437c-0.007,1.725,0.657,3.352,1.873,4.577c1.216,1.226,2.836,1.905,4.562,1.913l0.03,1.193v-1.193   c3.546,0,6.445-2.887,6.461-6.437c0.007-1.725-0.657-3.352-1.873-4.577C455.953,162.896,454.334,162.217,452.607,162.209z"/>
	<g>
		<path style="fill:#241726;" d="M376.343,41.017c-0.366,0-0.727-0.168-0.96-0.486c-0.391-0.53-0.277-1.277,0.252-1.668    c2.633-1.937,5.58-4.468,6.389-5.621c-1.209-0.499-5.14-1.244-8.481-1.644c-0.655-0.078-1.121-0.672-1.042-1.327    c0.079-0.655,0.694-1.116,1.326-1.043c6.258,0.749,9.802,1.734,10.534,2.927c0.445,0.727,1.37,2.239-7.309,8.63    C376.837,40.941,376.59,41.017,376.343,41.017z"/>
		<path style="fill:#EA7E94;" d="M333.244,49.106c0,0,13.246,17.349,31.549,13.661c18.303-3.688,14.715-34.334,5.619-36.906    s-10.885,10.392-10.885,10.392l-12.643-13.095c0,0-14.817,15.353-5.327,24.652L333.244,49.106z"/>
		<path style="fill:#241726;" d="M369.085,36.492c-0.487,0-0.944-0.299-1.121-0.782l-1.344-3.662    c-0.226-0.619,0.091-1.304,0.711-1.531c0.615-0.228,1.305,0.09,1.531,0.708l1.344,3.662c0.226,0.619-0.091,1.304-0.711,1.531    C369.36,36.468,369.223,36.492,369.085,36.492z"/>
		<path style="fill:#241726;" d="M353.994,52.422c-6.822,0-10.802-8.442-11.953-12.907c-0.191-0.742,0.019-1.427,0.562-1.831    c0.436-0.325,1.454-1.092,7.319,1.895c-1.661-3.345-2.19-7.031-1.638-8.63c0.189-0.541,0.627-0.912,1.174-0.993    c0.708-0.094,2.323-0.359,11.326,12.042c0.387,0.534,0.27,1.279-0.263,1.667c-0.531,0.384-1.277,0.271-1.666-0.264    c-2.934-4.039-6.522-8.528-8.383-10.327c0.21,2.473,1.668,7.19,4.767,9.493c0.51,0.379,0.634,1.092,0.282,1.621    c-0.354,0.53-1.062,0.687-1.605,0.361c-3.351-2.004-7.393-4.079-9.283-4.669c1.137,3.533,4.313,10.158,9.362,10.158    c0.005,0,0.009,0,0.009,0c0.657,0,1.193,0.534,1.193,1.192C355.196,51.891,354.565,52.353,353.994,52.422z"/>
	</g>
	<path style="fill:#A7D5CA;" d="M260.367,33.867c0,0-21.727,63.625-83.68,116.711c-26.12,22.382,37.436,19.819,37.436,19.819   s-52.85,39.638-46.244,55.053c4.671,10.9,33.032,15.415,46.244-6.606c0,0-30.829,39.638-52.85,46.244   c-22.021,6.606,37.436,72.669,96.893,11.011c0,0,44.042,48.446,96.893,13.213c21.368-14.245-33.032-44.042-33.032-44.042   s41.84,11.011,50.648-2.202s-68.265-83.68-68.265-83.68s35.234,11.011,50.648,0C370.472,148.376,277.809,82.182,260.367,33.867z"/>
	<path style="fill:#EA7E94;" d="M121.252,287.953l-0.857,65.158c0,0,44.793-9.127,49.677-8.19   c4.884,0.937-23.148-66.726-23.148-66.726L121.252,287.953z"/>
	<path style="fill:#BF7A96;" d="M110.821,125.937c0,0-8.958,51.956-48.255,90.495c-17.538,17.2,28.366,10.507,28.366,10.507   s-33.683,33.033-27.556,43.324c4.333,7.276,24.834,7.804,32.115-9.028c0,0-18.094,30.961-33.062,37.71s33.339,47.92,69.627-1.323   c0,0,35.737,30.151,69.834,0.236c13.786-12.095-27.528-28.069-27.528-28.069s30.655,3.857,35.647-6.325   c4.992-10.182-56.2-52.814-56.2-52.814s25.978,4.479,35.854-4.766C199.54,196.638,130.794,161.837,110.821,125.937z"/>
	<path style="fill:#EA7E94;" d="M365.396,283.824l-18.92,62.356c0,0,45.566,3.673,49.997,5.929s-3.705-70.53-3.705-70.53   L365.396,283.824z"/>
	<path style="fill:#BF7A96;" d="M400.372,125.285c0,0-23.036,47.424-71.49,73.533c-21.625,11.652,24.332,17.972,24.332,17.972   s-41.533,22.379-38.504,33.966c2.141,8.194,21.689,14.394,33.359,0.246c0,0-25.982,24.717-42.234,27.044   s18.718,55.295,67.255,18.067c0,0,25.957,38.89,67.021,19.622c16.603-7.79-18.649-34.61-18.649-34.61s28.378,12.219,36.001,3.824   c7.624-8.395-39.32-66.345-39.32-66.345s23.712,11.518,35.767,5.379C465.965,217.845,397.401,166.186,400.372,125.285z"/>
	<g>
		<g>
			<path style="fill:#FFFFFF;" d="M135.786,404.569c0,0,34.763,46.302,9.213,72.097c-25.55,25.795-112.286,34.141-112.286,34.141     l29.912-41.091c0,0-47.419-13.522-51.136-17.89C2.682,441.475,89.46,393.012,135.786,404.569z"/>
			<path style="fill:#241726;" d="M32.712,512c-0.426,0-0.822-0.227-1.037-0.601c-0.233-0.408-0.205-0.915,0.072-1.294     l28.909-39.712c-9.29-2.68-46.514-13.61-50.074-17.796c-0.769-0.904-1.445-2.511-0.282-5.025     c6.503-14.071,66.55-45.966,109.658-45.966c5.895,0,11.317,0.607,16.117,1.803c0.266,0.066,0.501,0.223,0.664,0.442     c0.354,0.472,35.083,47.43,9.108,73.653c-25.558,25.804-109.46,34.146-113.02,34.489C32.789,511.998,32.749,512,32.712,512z      M119.957,403.993c-41.444,0-101.351,31.293-107.493,44.58c-0.764,1.657-0.238,2.275-0.065,2.478     c2.537,2.982,32.355,12.328,50.552,17.517c0.375,0.107,0.676,0.39,0.802,0.758c0.128,0.369,0.065,0.776-0.163,1.092     l-28.328,38.915c14.754-1.669,86.434-10.837,108.889-33.508c23.417-23.64-6.025-65.975-9.071-70.201     C130.57,404.542,125.486,403.993,119.957,403.993z"/>
		</g>
		<g>
			<path style="fill:#FFFFFF;" d="M376.213,404.569c0,0-34.763,46.302-9.213,72.097c25.55,25.795,112.286,34.141,112.286,34.141     l-29.912-41.091c0,0,47.419-13.522,51.136-17.89C509.317,441.475,422.539,393.012,376.213,404.569z"/>
			<path style="fill:#241726;" d="M479.286,512c-0.037,0-0.077-0.002-0.114-0.006c-3.56-0.342-87.46-8.685-113.02-34.489     c-25.975-26.223,8.754-73.181,9.108-73.653c0.163-0.219,0.398-0.375,0.664-0.442c4.8-1.196,10.222-1.803,16.117-1.803     c43.108,0,103.157,31.895,109.66,45.966c1.163,2.514,0.487,4.121-0.282,5.026c-3.56,4.185-40.785,15.115-50.077,17.794     l28.909,39.712c0.277,0.38,0.305,0.887,0.072,1.294C480.108,511.773,479.712,512,479.286,512z M376.919,405.624     c-3.043,4.228-32.476,46.574-9.071,70.201c22.457,22.671,94.135,31.839,108.889,33.508l-28.328-38.915     c-0.228-0.316-0.291-0.722-0.163-1.092c0.126-0.368,0.426-0.651,0.802-0.758c18.2-5.19,48.017-14.535,50.554-17.516     c0.172-0.204,0.699-0.822-0.065-2.478c-6.142-13.288-66.051-44.581-107.496-44.581     C386.511,403.993,381.427,404.542,376.919,405.624z"/>
		</g>
		<path style="fill:#F5D66E;" d="M63.671,363.127c0,0,109.753-49.309,206.782-44.538c97.028,4.772,186.103,40.561,194.057,51.695    c7.953,11.134-30.596,89.101-38.175,86.689c-34.994-11.134-77.941-39.766-170.197-36.584    c-39.774,1.371-144.747,39.766-160.653,39.766S44.583,391.758,63.671,363.127z"/>
		<path style="fill:#241726;" d="M149.565,474.073c-0.499,0-0.965-0.316-1.132-0.816c-3.684-11.052-39.457-12.341-52.91-11.911    c-0.014,0.001-0.028,0.001-0.04,0.001c-0.641,0-1.172-0.509-1.193-1.155c-0.021-0.658,0.496-1.209,1.156-1.23    c2.043-0.07,50.254-1.447,55.252,13.54c0.207,0.626-0.13,1.301-0.755,1.509C149.816,474.053,149.69,474.073,149.565,474.073z"/>
		<g>
			<path style="fill:#FFFFFF;" d="M426.334,456.974c0,0-47.719,3.181-65.216,14.316"/>
			<path style="fill:#241726;" d="M361.119,472.483c-0.394,0-0.778-0.196-1.007-0.552c-0.354-0.556-0.189-1.293,0.366-1.647     c17.552-11.17,63.815-14.369,65.776-14.5c0.659-0.023,1.226,0.453,1.27,1.111c0.044,0.657-0.454,1.226-1.111,1.27     c-0.473,0.031-47.616,3.288-64.653,14.132C361.562,472.422,361.34,472.483,361.119,472.483z"/>
		</g>
	</g>
	<g>
		<path style="fill:#FFFFFF;" d="M76.62,73.804c0,0-3.496-18.36,14.654-13.394s13.317,22.237,6.196,16.829    s4.492-25.795,18.619-17.822s12.052,25.134,2.458,26.94s4.719-20.112,17.638-7.821s-12.309,37.493-23.679,29.409    s-3.666-22.623-0.568-14.208c3.098,8.415-3.454,17.215-22.755,17.987s-12.223-29.396-4.988-21.147s-3.397,18.636-17.582,9.242    S66.742,68.506,76.62,73.804z"/>
		<path style="fill:#241726;" d="M88.462,112.933c-7.838,0-10.877-4.824-12.046-8.234c-3.351-0.224-6.948-1.556-10.462-3.884    c-5.634-3.732-7.778-10.007-5.737-16.789c2.304-7.66,9.336-13.346,14.989-12.022c-0.179-2.612-0.042-7.185,2.563-10.335    c2.747-3.321,7.433-4.157,13.819-2.41c2.528,0.692,4.763,1.652,6.655,2.859c4.823-5.738,12.035-7.347,18.433-3.74    c6.105,3.447,10.01,9.065,10.641,15.21c3.448-0.123,6.731,1.269,9.691,4.085c4.154,3.952,5.079,9.536,2.61,15.721    c-3.686,9.222-13.931,17.312-21.926,17.313c0,0,0,0-0.002,0c-2.23,0-4.206-0.602-5.876-1.788c-0.897-0.64-1.715-1.34-2.444-2.092    c-4.245,3.632-11.168,5.732-20.141,6.091C88.97,112.927,88.714,112.933,88.462,112.933z M78.944,104.648    c1.268,3.066,4.059,6.12,10.192,5.884c10.413-0.417,15.877-3.105,18.712-5.544c-3.048-4.34-3.022-9.331-1.617-12.307    c0.804-1.7,2.02-2.674,3.339-2.674c1.035,0,2.477,0.576,3.486,3.317c1.552,4.213,0.818,8.459-1.999,11.812    c0.631,0.658,1.349,1.273,2.141,1.836c1.256,0.895,2.768,1.348,4.492,1.348c0.002,0,0.002,0,0.002,0    c7.009-0.001,16.403-7.538,19.71-15.813c1.475-3.691,2.318-8.962-2.039-13.106c-2.481-2.36-5.17-3.511-7.969-3.429    c-0.228,5.946-3.663,10.623-8.626,11.557c-0.466,0.087-0.885,0.127-1.261,0.128l0,0c-1.904,0-3.16-1.075-3.278-2.807    c-0.238-3.439,4.49-9.509,10.72-10.952c-0.531-5.4-4.001-10.369-9.448-13.443c-5.373-3.031-11.231-1.708-15.327,3.076    c4.565,3.842,5.571,8.8,4.469,12.19c-0.75,2.311-2.477,3.747-4.506,3.748l0,0c-1.132,0-2.272-0.431-3.39-1.28    c-3.919-2.977-3.05-9.292,0.077-14.147c-1.664-1.037-3.63-1.87-5.865-2.481c-5.359-1.468-9.236-0.926-11.352,1.63    c-3.05,3.686-1.829,10.323-1.817,10.391c0.086,0.451-0.096,0.912-0.466,1.184c-0.373,0.273-0.867,0.309-1.27,0.09    c-0.832-0.446-1.731-0.672-2.67-0.672c-4.252,0-9.134,4.724-10.881,10.532c-0.827,2.745-2.018,9.616,4.77,14.111    c2.889,1.915,5.806,3.08,8.523,3.419c-0.75-4.394,0.142-9.411,2.286-12.234c1.291-1.699,2.645-2.055,3.553-2.055    c1.226,0,2.388,0.617,3.458,1.836c2.589,2.953,3.313,6.529,1.936,9.565C85.703,102.283,82.679,104.231,78.944,104.648z     M109.57,92.393c-0.226,0-0.729,0.348-1.181,1.307c-1.074,2.271-1.09,6.07,1.146,9.523c2.025-2.635,2.484-5.81,1.284-9.074    C110.343,92.861,109.812,92.393,109.57,92.393z M81.635,90.341c-0.666,0-1.268,0.605-1.652,1.113    c-1.612,2.121-2.628,6.635-1.748,10.858c3.146-0.238,5.606-1.702,6.622-3.94c0.993-2.191,0.424-4.745-1.559-7.008    C82.889,90.898,82.269,90.341,81.635,90.341z M124.983,76.354c-4.844,1.385-8.523,6.163-8.374,8.333    c0.019,0.274,0.042,0.585,0.897,0.585c0.002,0,0.002,0,0.002,0c0.242-0.001,0.517-0.029,0.818-0.086    C122.04,84.485,124.647,80.945,124.983,76.354z M98.749,65.454c-2.724,4.265-3.024,8.961-0.557,10.836    c1.808,1.374,3.497,0.803,4.182-1.307C103.188,72.483,102.349,68.563,98.749,65.454z"/>
	</g>
	<g>
		<path style="fill:#FFFFFF;" d="M362.537,87.694c0,0-3.496-18.36,14.654-13.394c18.15,4.966,13.317,22.237,6.196,16.829    c-7.121-5.408,4.492-25.795,18.619-17.822s12.052,25.134,2.458,26.94c-9.594,1.807,4.719-20.112,17.638-7.821    c12.919,12.291-12.309,37.493-23.679,29.409c-11.37-8.084-3.666-22.623-0.568-14.208c3.098,8.415-3.454,17.215-22.755,17.987    c-19.301,0.772-12.223-29.396-4.988-21.147c7.234,8.249-3.397,18.636-17.582,9.242S352.659,82.397,362.537,87.694z"/>
		<path style="fill:#241726;" d="M374.379,126.823c-7.838,0-10.877-4.824-12.046-8.234c-3.351-0.224-6.946-1.556-10.462-3.884    c-5.634-3.732-7.778-10.007-5.737-16.789c2.304-7.66,9.336-13.345,14.989-12.022c-0.179-2.612-0.042-7.185,2.563-10.335    c2.747-3.321,7.433-4.158,13.819-2.41c2.528,0.692,4.763,1.652,6.655,2.859c4.823-5.738,12.035-7.345,18.433-3.739    c6.105,3.447,10.01,9.065,10.641,15.209c3.451-0.094,6.731,1.27,9.691,4.085c4.154,3.952,5.079,9.536,2.61,15.721    c-3.686,9.222-13.931,17.312-21.926,17.313c0,0,0,0-0.002,0c-2.23,0-4.206-0.602-5.876-1.788c-0.897-0.64-1.715-1.34-2.442-2.091    c-4.248,3.631-11.17,5.731-20.143,6.09C374.887,126.817,374.631,126.823,374.379,126.823z M364.861,118.539    c1.268,3.066,4.057,6.15,10.192,5.884c10.411-0.417,15.877-3.105,18.712-5.544c-3.048-4.34-3.022-9.331-1.617-12.306    c0.804-1.7,2.02-2.675,3.341-2.675c1.032,0,2.477,0.576,3.486,3.318c1.552,4.213,0.815,8.458-2.001,11.811    c0.631,0.658,1.349,1.273,2.141,1.836c1.256,0.895,2.768,1.348,4.492,1.348c0.002,0,0.002,0,0.002,0    c7.009-0.001,16.403-7.538,19.71-15.813c1.475-3.691,2.318-8.962-2.039-13.106c-2.481-2.36-5.159-3.522-7.969-3.429    c-0.226,5.946-3.663,10.623-8.626,11.557c-0.466,0.087-0.885,0.127-1.261,0.128l0,0c-1.904,0-3.159-1.075-3.278-2.807    c-0.238-3.439,4.49-9.509,10.72-10.952c-0.531-5.4-4.001-10.369-9.448-13.442c-5.375-3.033-11.233-1.706-15.327,3.074    c4.565,3.842,5.571,8.8,4.469,12.189c-0.75,2.311-2.477,3.747-4.506,3.748l0,0c-1.132,0-2.272-0.431-3.39-1.28    c-3.919-2.977-3.05-9.292,0.077-14.147c-1.664-1.037-3.63-1.87-5.865-2.481c-5.361-1.469-9.236-0.925-11.352,1.63    c-3.05,3.686-1.829,10.323-1.817,10.391c0.086,0.451-0.096,0.912-0.466,1.184c-0.373,0.271-0.867,0.308-1.27,0.09    c-0.832-0.446-1.731-0.672-2.67-0.672c-4.252,0-9.134,4.724-10.881,10.532c-0.827,2.745-2.018,9.616,4.77,14.111    c2.892,1.915,5.806,3.08,8.523,3.419c-0.75-4.394,0.142-9.411,2.286-12.234c1.291-1.699,2.645-2.055,3.553-2.055    c1.226,0,2.388,0.617,3.458,1.836c2.589,2.953,3.313,6.529,1.939,9.566C371.62,116.174,368.596,118.123,364.861,118.539z     M395.489,106.284c-0.228,0-0.732,0.348-1.184,1.308c-1.072,2.269-1.09,6.069,1.146,9.522c2.025-2.635,2.486-5.81,1.286-9.073    C396.263,106.752,395.731,106.284,395.489,106.284z M367.552,104.231c-0.666,0-1.268,0.605-1.652,1.113    c-1.612,2.121-2.628,6.635-1.748,10.858c3.146-0.238,5.608-1.702,6.622-3.94c0.993-2.191,0.424-4.745-1.559-7.008    C368.806,104.788,368.186,104.231,367.552,104.231z M410.902,90.244c-4.846,1.385-8.526,6.163-8.376,8.333    c0.019,0.274,0.042,0.585,0.897,0.585c0.002,0,0.002,0,0.002,0c0.242-0.001,0.517-0.029,0.818-0.086    C407.957,98.376,410.567,94.835,410.902,90.244z M384.666,79.344c-2.724,4.265-3.024,8.961-0.557,10.836    c1.81,1.375,3.497,0.803,4.182-1.307C389.105,86.374,388.266,82.454,384.666,79.344z"/>
	</g>
	<path style="fill:#241726;" d="M422.137,196.862c-0.601,0-1.121-0.456-1.184-1.068c-0.329-3.125-2.691-6.057-2.714-6.086   c-0.417-0.51-0.34-1.262,0.168-1.678c0.508-0.417,1.263-0.344,1.678,0.167c0.116,0.141,2.838,3.502,3.241,7.348   c0.07,0.656-0.405,1.242-1.062,1.311C422.221,196.86,422.179,196.862,422.137,196.862z"/>
	<path style="fill:#241726;" d="M410.963,201.104c-0.601,0-1.121-0.456-1.184-1.068c-0.329-3.125-2.691-6.057-2.714-6.086   c-0.417-0.51-0.34-1.262,0.168-1.678c0.508-0.417,1.261-0.343,1.678,0.167c0.116,0.141,2.838,3.502,3.241,7.348   c0.07,0.656-0.405,1.242-1.062,1.311C411.047,201.102,411.005,201.104,410.963,201.104z"/>
	<path style="fill:#241726;" d="M413.572,186.258c-0.601,0-1.118-0.456-1.184-1.068c-0.331-3.125-2.693-6.057-2.717-6.086   c-0.417-0.51-0.342-1.262,0.168-1.678c0.508-0.418,1.263-0.344,1.678,0.167c0.116,0.141,2.838,3.501,3.243,7.348   c0.07,0.655-0.405,1.242-1.06,1.311C413.656,186.256,413.614,186.258,413.572,186.258z"/>
	<path style="fill:#241726;" d="M404.259,185.197c-0.601,0-1.118-0.456-1.184-1.068c-0.331-3.123-2.694-6.056-2.717-6.085   c-0.417-0.51-0.343-1.262,0.168-1.678c0.51-0.418,1.263-0.344,1.678,0.167c0.117,0.141,2.838,3.501,3.243,7.347   c0.07,0.655-0.405,1.242-1.06,1.311C404.343,185.195,404.301,185.197,404.259,185.197z"/>
	<path style="fill:#241726;" d="M407.612,171.411c-0.601,0-1.118-0.456-1.184-1.068c-0.331-3.123-2.694-6.056-2.717-6.085   c-0.417-0.51-0.343-1.262,0.168-1.678c0.508-0.416,1.263-0.344,1.678,0.167c0.116,0.141,2.838,3.501,3.243,7.347   c0.07,0.655-0.405,1.242-1.06,1.311C407.696,171.409,407.654,171.411,407.612,171.411z"/>
	<path style="fill:#241726;" d="M430.705,201.104c-0.601,0-1.118-0.456-1.184-1.068c-0.331-3.123-2.694-6.057-2.717-6.086   c-0.417-0.51-0.34-1.262,0.168-1.678c0.508-0.417,1.261-0.343,1.678,0.167c0.117,0.141,2.838,3.502,3.243,7.348   c0.07,0.655-0.405,1.242-1.06,1.311C430.789,201.102,430.747,201.104,430.705,201.104z"/>
	<path style="fill:#241726;" d="M323.177,198.857c-0.447,0-0.878-0.254-1.081-0.687c-1.333-2.844-4.525-4.842-4.558-4.862   c-0.559-0.347-0.734-1.081-0.387-1.642c0.343-0.559,1.081-0.736,1.638-0.39c0.156,0.096,3.828,2.381,5.469,5.882   c0.28,0.596,0.021,1.306-0.576,1.586C323.519,198.821,323.347,198.857,323.177,198.857z"/>
	<path style="fill:#241726;" d="M314.001,206.519c-0.447,0-0.878-0.254-1.081-0.687c-1.34-2.862-4.523-4.843-4.555-4.863   c-0.562-0.345-0.736-1.079-0.391-1.64c0.342-0.564,1.079-0.739,1.64-0.391c0.156,0.096,3.828,2.381,5.469,5.883   c0.28,0.596,0.021,1.306-0.576,1.586C314.344,206.483,314.171,206.519,314.001,206.519z"/>
	<path style="fill:#241726;" d="M311.613,191.637c-0.447,0-0.878-0.254-1.081-0.687c-1.34-2.862-4.523-4.843-4.555-4.863   c-0.562-0.345-0.736-1.079-0.391-1.64c0.343-0.564,1.083-0.736,1.64-0.391c0.156,0.096,3.828,2.381,5.469,5.883   c0.28,0.596,0.021,1.306-0.576,1.586C311.955,191.601,311.783,191.637,311.613,191.637z"/>
	<path style="fill:#241726;" d="M302.465,193.68c-0.447,0-0.878-0.254-1.081-0.687c-1.34-2.862-4.523-4.843-4.555-4.863   c-0.562-0.345-0.736-1.079-0.391-1.64c0.345-0.564,1.083-0.736,1.64-0.391c0.156,0.096,3.828,2.381,5.469,5.883   c0.28,0.596,0.021,1.306-0.576,1.586C302.808,193.643,302.635,193.68,302.465,193.68z"/>
	<path style="fill:#241726;" d="M301.126,179.555c-0.447,0-0.878-0.254-1.081-0.687c-1.34-2.862-4.523-4.843-4.555-4.863   c-0.562-0.345-0.736-1.079-0.391-1.64c0.343-0.564,1.076-0.736,1.64-0.391c0.156,0.096,3.828,2.381,5.469,5.883   c0.28,0.596,0.021,1.306-0.576,1.586C301.468,179.519,301.296,179.555,301.126,179.555z"/>
	<path style="fill:#241726;" d="M316.555,186.346c-0.447,0-0.878-0.254-1.081-0.687c-1.34-2.862-4.523-4.843-4.555-4.863   c-0.562-0.345-0.736-1.079-0.391-1.64c0.34-0.565,1.076-0.737,1.64-0.391c0.156,0.096,3.828,2.381,5.469,5.883   c0.28,0.596,0.021,1.306-0.576,1.586C316.897,186.31,316.725,186.346,316.555,186.346z"/>
	<path style="fill:#241726;" d="M421.394,209.234c-0.601,0-1.118-0.456-1.184-1.068c-0.331-3.123-2.694-6.057-2.717-6.086   c-0.417-0.51-0.34-1.262,0.168-1.678c0.508-0.418,1.261-0.345,1.678,0.167c0.116,0.141,2.838,3.502,3.243,7.348   c0.07,0.655-0.405,1.242-1.06,1.311C421.478,209.231,421.436,209.234,421.394,209.234z"/>
	<path style="fill:#241726;" d="M152.121,188.157c-0.501,0-0.967-0.317-1.132-0.817c-0.997-2.999-3.928-5.338-3.956-5.361   c-0.517-0.409-0.606-1.159-0.198-1.675c0.41-0.517,1.158-0.603,1.675-0.198c0.144,0.113,3.525,2.812,4.744,6.482   c0.207,0.626-0.13,1.3-0.757,1.509C152.372,188.138,152.244,188.157,152.121,188.157z"/>
	<path style="fill:#241726;" d="M142.116,194.695c-0.501,0-0.965-0.316-1.132-0.817c-0.997-3-3.928-5.338-3.956-5.361   c-0.517-0.409-0.606-1.159-0.198-1.676c0.41-0.513,1.16-0.601,1.675-0.197c0.144,0.113,3.521,2.811,4.744,6.482   c0.207,0.624-0.13,1.3-0.755,1.509C142.367,194.676,142.241,194.695,142.116,194.695z"/>
	<path style="fill:#241726;" d="M141.482,179.635c-0.501,0-0.967-0.317-1.132-0.817c-0.997-2.999-3.928-5.338-3.956-5.361   c-0.517-0.409-0.606-1.159-0.198-1.675c0.408-0.517,1.158-0.603,1.675-0.198c0.144,0.113,3.525,2.812,4.744,6.482   c0.207,0.626-0.13,1.3-0.757,1.509C141.733,179.615,141.605,179.635,141.482,179.635z"/>
	<path style="fill:#241726;" d="M132.157,180.594c-0.501,0-0.967-0.317-1.132-0.817c-0.99-2.981-3.926-5.339-3.956-5.363   c-0.515-0.41-0.601-1.16-0.193-1.675c0.41-0.517,1.156-0.601,1.673-0.197c0.144,0.114,3.523,2.813,4.742,6.482   c0.207,0.626-0.13,1.3-0.757,1.509C132.409,180.574,132.281,180.594,132.157,180.594z"/>
	<path style="fill:#241726;" d="M132.479,166.41c-0.501,0-0.967-0.317-1.132-0.817c-0.99-2.981-3.926-5.338-3.956-5.361   c-0.515-0.41-0.601-1.159-0.193-1.675c0.408-0.516,1.158-0.602,1.673-0.197c0.144,0.113,3.523,2.811,4.742,6.481   c0.207,0.626-0.13,1.3-0.757,1.509C132.73,166.39,132.602,166.41,132.479,166.41z"/>
	<path style="fill:#241726;" d="M161.399,190.465c-0.501,0-0.967-0.317-1.132-0.817c-0.997-2.999-3.928-5.338-3.956-5.361   c-0.517-0.409-0.606-1.159-0.198-1.675c0.41-0.517,1.158-0.605,1.675-0.198c0.144,0.113,3.525,2.812,4.744,6.482   c0.207,0.626-0.13,1.3-0.757,1.509C161.65,190.445,161.522,190.465,161.399,190.465z"/>
	<path style="fill:#241726;" d="M154.043,200.402c-0.501,0-0.967-0.317-1.132-0.817c-0.99-2.981-3.926-5.339-3.956-5.363   c-0.515-0.41-0.601-1.16-0.193-1.675c0.408-0.517,1.156-0.602,1.673-0.197c0.144,0.114,3.523,2.813,4.742,6.482   c0.207,0.626-0.13,1.3-0.757,1.509C154.295,200.382,154.166,200.402,154.043,200.402z"/>
	<path style="fill:#241726;" d="M175.384,250.192c-0.501,0-0.967-0.317-1.132-0.817c-0.997-2.999-3.928-5.338-3.956-5.361   c-0.517-0.409-0.606-1.159-0.198-1.675c0.41-0.517,1.16-0.605,1.675-0.198c0.144,0.113,3.525,2.812,4.744,6.482   c0.207,0.626-0.13,1.3-0.757,1.509C175.635,250.172,175.507,250.192,175.384,250.192z"/>
	<path style="fill:#241726;" d="M165.378,256.73c-0.501,0-0.965-0.316-1.132-0.817c-0.997-3-3.928-5.338-3.956-5.361   c-0.517-0.409-0.606-1.159-0.198-1.676c0.41-0.515,1.16-0.602,1.675-0.197c0.144,0.113,3.521,2.811,4.744,6.482   c0.207,0.624-0.13,1.3-0.755,1.509C165.63,256.71,165.504,256.73,165.378,256.73z"/>
	<path style="fill:#241726;" d="M164.745,241.67c-0.501,0-0.967-0.317-1.132-0.817c-0.997-2.999-3.928-5.338-3.956-5.361   c-0.517-0.409-0.606-1.159-0.198-1.675c0.408-0.515,1.16-0.605,1.675-0.198c0.144,0.113,3.525,2.812,4.744,6.482   c0.207,0.626-0.13,1.3-0.757,1.509C164.996,241.65,164.868,241.67,164.745,241.67z"/>
	<path style="fill:#241726;" d="M155.42,242.629c-0.501,0-0.967-0.317-1.132-0.817c-0.99-2.981-3.926-5.339-3.956-5.363   c-0.515-0.41-0.601-1.16-0.193-1.675c0.41-0.516,1.158-0.602,1.673-0.197c0.144,0.114,3.523,2.813,4.742,6.482   c0.207,0.626-0.13,1.3-0.757,1.509C155.672,242.609,155.543,242.629,155.42,242.629z"/>
	<path style="fill:#241726;" d="M155.742,228.445c-0.501,0-0.967-0.317-1.132-0.817c-0.99-2.981-3.926-5.338-3.956-5.361   c-0.515-0.41-0.601-1.159-0.193-1.675c0.41-0.518,1.158-0.603,1.673-0.197c0.144,0.113,3.523,2.811,4.742,6.481   c0.207,0.626-0.13,1.3-0.757,1.509C155.993,228.425,155.865,228.445,155.742,228.445z"/>
	<path style="fill:#241726;" d="M184.662,252.5c-0.501,0-0.967-0.317-1.132-0.817c-0.997-2.999-3.928-5.338-3.956-5.361   c-0.517-0.409-0.606-1.159-0.198-1.675c0.41-0.516,1.16-0.602,1.675-0.198c0.144,0.113,3.525,2.812,4.744,6.482   c0.207,0.626-0.13,1.3-0.757,1.509C184.913,252.48,184.785,252.5,184.662,252.5z"/>
	<path style="fill:#241726;" d="M177.306,262.436c-0.501,0-0.967-0.317-1.132-0.817c-0.99-2.981-3.926-5.339-3.956-5.363   c-0.515-0.41-0.601-1.16-0.193-1.675c0.41-0.516,1.158-0.602,1.673-0.197c0.144,0.114,3.523,2.813,4.742,6.482   c0.207,0.626-0.13,1.3-0.757,1.509C177.558,262.416,177.429,262.436,177.306,262.436z"/>
	<path style="fill:#241726;" d="M432.478,260.487c-0.601,0-1.118-0.456-1.184-1.068c-0.331-3.123-2.693-6.057-2.717-6.086   c-0.417-0.51-0.34-1.262,0.168-1.678c0.508-0.419,1.261-0.344,1.678,0.167c0.117,0.141,2.838,3.502,3.243,7.348   c0.07,0.655-0.405,1.242-1.06,1.311C432.562,260.485,432.52,260.487,432.478,260.487z"/>
	<path style="fill:#241726;" d="M421.303,264.729c-0.601,0-1.118-0.456-1.184-1.068c-0.331-3.123-2.694-6.057-2.717-6.086   c-0.417-0.51-0.34-1.262,0.168-1.678c0.51-0.417,1.261-0.343,1.678,0.167c0.117,0.141,2.838,3.502,3.243,7.348   c0.07,0.655-0.405,1.242-1.06,1.311C421.387,264.727,421.345,264.729,421.303,264.729z"/>
	<path style="fill:#241726;" d="M423.911,249.883c-0.601,0-1.118-0.456-1.184-1.068c-0.331-3.123-2.694-6.057-2.717-6.086   c-0.417-0.51-0.34-1.262,0.168-1.678c0.508-0.418,1.261-0.344,1.678,0.167c0.117,0.141,2.838,3.502,3.243,7.348   c0.07,0.655-0.405,1.242-1.06,1.311C423.995,249.881,423.953,249.883,423.911,249.883z"/>
	<path style="fill:#241726;" d="M414.598,248.823c-0.601,0-1.118-0.456-1.184-1.068c-0.331-3.123-2.694-6.057-2.717-6.086   c-0.417-0.51-0.34-1.262,0.168-1.678c0.508-0.418,1.261-0.344,1.678,0.167c0.116,0.141,2.838,3.502,3.243,7.348   c0.07,0.655-0.405,1.242-1.06,1.311C414.681,248.821,414.639,248.823,414.598,248.823z"/>
	<path style="fill:#241726;" d="M417.95,235.037c-0.601,0-1.118-0.456-1.184-1.068c-0.331-3.123-2.693-6.057-2.717-6.086   c-0.417-0.51-0.34-1.262,0.168-1.678c0.508-0.418,1.261-0.344,1.678,0.167c0.117,0.141,2.838,3.502,3.243,7.348   c0.07,0.655-0.405,1.242-1.06,1.311C418.034,235.035,417.992,235.037,417.95,235.037z"/>
	<path style="fill:#241726;" d="M441.046,264.729c-0.601,0-1.118-0.456-1.184-1.068c-0.331-3.123-2.694-6.057-2.717-6.086   c-0.417-0.51-0.34-1.262,0.168-1.678c0.508-0.417,1.261-0.343,1.678,0.167c0.116,0.141,2.838,3.502,3.243,7.348   c0.07,0.655-0.405,1.242-1.06,1.311C441.129,264.727,441.088,264.729,441.046,264.729z"/>
	<path style="fill:#241726;" d="M431.733,272.858c-0.601,0-1.118-0.456-1.184-1.068c-0.331-3.123-2.693-6.056-2.717-6.085   c-0.417-0.51-0.342-1.262,0.168-1.678c0.51-0.418,1.261-0.341,1.678,0.167c0.117,0.141,2.838,3.501,3.243,7.347   c0.07,0.655-0.405,1.242-1.06,1.311C431.816,272.856,431.774,272.858,431.733,272.858z"/>
	<path style="fill:#241726;" d="M306.51,118.826c-0.527,0-1.009-0.351-1.151-0.883c-0.822-3.052-3.612-5.557-3.639-5.582   c-0.492-0.438-0.538-1.192-0.1-1.685c0.438-0.493,1.191-0.539,1.685-0.1c0.137,0.121,3.355,3.013,4.357,6.747   c0.172,0.636-0.205,1.291-0.841,1.462C306.715,118.814,306.613,118.826,306.51,118.826z"/>
	<path style="fill:#241726;" d="M296.142,124.771c-0.527,0-1.009-0.351-1.151-0.883c-0.823-3.052-3.612-5.557-3.639-5.582   c-0.492-0.438-0.538-1.192-0.1-1.685c0.436-0.494,1.188-0.538,1.685-0.1c0.137,0.121,3.355,3.013,4.357,6.747   c0.172,0.636-0.205,1.291-0.841,1.462C296.347,124.759,296.244,124.771,296.142,124.771z"/>
	<path style="fill:#241726;" d="M296.382,109.701c-0.527,0-1.009-0.351-1.151-0.883c-0.822-3.052-3.612-5.557-3.639-5.582   c-0.492-0.438-0.538-1.192-0.1-1.685c0.436-0.494,1.191-0.537,1.685-0.1c0.137,0.121,3.355,3.013,4.357,6.747   c0.172,0.636-0.205,1.291-0.841,1.462C296.587,109.688,296.484,109.701,296.382,109.701z"/>
	<path style="fill:#241726;" d="M287.02,110.117c-0.527,0-1.009-0.351-1.151-0.883c-0.822-3.052-3.612-5.557-3.639-5.582   c-0.492-0.438-0.538-1.192-0.1-1.685c0.436-0.495,1.188-0.537,1.685-0.1c0.137,0.121,3.355,3.013,4.357,6.747   c0.172,0.636-0.205,1.291-0.841,1.462C287.225,110.104,287.122,110.117,287.02,110.117z"/>
	<path style="fill:#241726;" d="M288.164,95.976c-0.527,0-1.009-0.351-1.151-0.883c-0.822-3.052-3.612-5.557-3.639-5.582   c-0.492-0.438-0.538-1.192-0.1-1.685c0.436-0.494,1.188-0.538,1.685-0.1c0.137,0.121,3.355,3.013,4.357,6.747   c0.172,0.636-0.205,1.291-0.841,1.462C288.369,95.963,288.266,95.976,288.164,95.976z"/>
	<path style="fill:#241726;" d="M315.637,121.669c-0.527,0-1.009-0.351-1.151-0.883c-0.816-3.035-3.612-5.558-3.639-5.583   c-0.492-0.439-0.536-1.193-0.098-1.683c0.436-0.493,1.186-0.539,1.682-0.1c0.137,0.121,3.355,3.012,4.357,6.747   c0.172,0.636-0.205,1.291-0.841,1.462C315.842,121.656,315.739,121.669,315.637,121.669z"/>
	<path style="fill:#241726;" d="M330.351,137.575c-0.527,0-1.009-0.351-1.151-0.883c-0.823-3.052-3.612-5.557-3.639-5.582   c-0.492-0.438-0.538-1.192-0.1-1.685c0.436-0.495,1.191-0.537,1.685-0.1c0.137,0.121,3.355,3.013,4.357,6.747   c0.172,0.636-0.205,1.291-0.841,1.462C330.556,137.562,330.453,137.575,330.351,137.575z"/>
	<path style="fill:#241726;" d="M320.409,137.178c-0.527,0-1.009-0.351-1.151-0.883c-0.816-3.035-3.612-5.558-3.639-5.583   c-0.492-0.439-0.536-1.193-0.098-1.683c0.433-0.493,1.184-0.541,1.682-0.1c0.137,0.121,3.355,3.012,4.357,6.747   c0.172,0.636-0.205,1.291-0.841,1.462C320.614,137.165,320.511,137.178,320.409,137.178z"/>
	<path style="fill:#241726;" d="M307.719,131.162c-0.527,0-1.009-0.351-1.151-0.883c-0.823-3.052-3.612-5.557-3.639-5.582   c-0.492-0.438-0.538-1.192-0.1-1.685c0.436-0.494,1.188-0.538,1.685-0.1c0.137,0.121,3.355,3.013,4.357,6.747   c0.172,0.636-0.205,1.291-0.841,1.462C307.925,131.149,307.822,131.162,307.719,131.162z"/>
	<path style="fill:#241726;" d="M167.061,73.235L167.061,73.235c-0.659-0.001-1.193-0.535-1.193-1.193   c0-0.083,0.005-2.06,0.405-4.943c0.091-0.654,0.734-1.108,1.344-1.017c0.655,0.091,1.109,0.693,1.018,1.346   c-0.375,2.707-0.382,4.596-0.382,4.616C168.254,72.701,167.72,73.235,167.061,73.235z M211.469,70.421   c-0.431,0-0.869-0.07-1.3-0.209c-0.627-0.202-0.972-0.874-0.769-1.501c0.2-0.627,0.874-0.97,1.501-0.771   c0.96,0.311,1.852-0.202,2.386-1.357c0.277-0.598,0.99-0.859,1.584-0.581c0.599,0.277,0.857,0.986,0.583,1.583   C214.63,69.361,213.139,70.421,211.469,70.421z M208.037,66.467c-0.538,0-1.025-0.365-1.158-0.909   c-0.336-1.367-0.573-3.023-0.706-4.922c-0.044-0.657,0.45-1.227,1.107-1.273c0.701-0.034,1.228,0.451,1.275,1.108   c0.121,1.764,0.338,3.284,0.641,4.519c0.158,0.64-0.233,1.286-0.874,1.442C208.225,66.457,208.13,66.467,208.037,66.467z    M168.366,63.763c-0.096,0-0.193-0.012-0.294-0.036c-0.638-0.162-1.025-0.811-0.862-1.449c0.419-1.664,0.932-3.246,1.524-4.701   c0.245-0.61,0.939-0.908,1.552-0.657c0.61,0.248,0.906,0.944,0.657,1.554c-0.548,1.354-1.025,2.831-1.421,4.389   C169.386,63.403,168.899,63.763,168.366,63.763z M214.768,63.598c-0.559,0-1.058-0.395-1.17-0.965   c-0.256-1.325-0.811-2.661-1.645-3.97c-0.354-0.556-0.189-1.293,0.366-1.647c0.552-0.35,1.291-0.191,1.647,0.366   c0.995,1.562,1.659,3.176,1.976,4.795c0.126,0.647-0.296,1.273-0.944,1.399C214.922,63.591,214.845,63.598,214.768,63.598z    M315.082,62.859c-1.864,0-3.514-0.252-5.028-0.749c-0.624-0.205-0.967-0.88-0.76-1.505c0.203-0.628,0.881-0.973,1.505-0.762   c1.272,0.418,2.67,0.63,4.154,0.63c0.659,0,1.256,0.534,1.256,1.193C316.21,62.326,315.742,62.859,315.082,62.859z M319.808,62.254   c-0.543,0-1.032-0.37-1.16-0.92c-0.151-0.642,0.247-1.284,0.888-1.434c1.375-0.323,2.85-0.79,4.385-1.39   c0.615-0.239,1.307,0.065,1.545,0.677c0.24,0.614-0.063,1.306-0.678,1.546c-1.638,0.641-3.222,1.142-4.707,1.49   C319.989,62.243,319.896,62.254,319.808,62.254z M306.291,59.915c-0.261,0-0.524-0.085-0.743-0.26   c-1.233-0.982-2.4-2.221-3.469-3.681c-0.389-0.531-0.275-1.278,0.256-1.667c0.534-0.393,1.277-0.275,1.668,0.257   c0.944,1.29,1.964,2.374,3.031,3.225c0.515,0.411,0.601,1.162,0.189,1.676C306.988,59.762,306.641,59.915,306.291,59.915z    M207.268,56.976c-0.007,0-0.016,0-0.026,0c-0.659-0.014-1.181-0.559-1.167-1.219c0.019-0.895,0.058-1.809,0.117-2.734   c-0.245-0.163-0.492-0.324-0.746-0.482c-0.557-0.35-0.727-1.086-0.377-1.644c0.31-0.495,0.92-0.687,1.442-0.48   c0.226-0.391,0.671-0.636,1.142-0.591c0.657,0.061,1.139,0.642,1.079,1.298c-0.023,0.243-0.044,0.486-0.063,0.727   c0.722,0.538,1.398,1.097,2.02,1.671c0.485,0.447,0.515,1.202,0.068,1.686c-0.445,0.485-1.2,0.515-1.685,0.069   c-0.189-0.174-0.38-0.345-0.58-0.515c-0.012,0.352-0.023,0.701-0.03,1.047C208.447,56.459,207.915,56.976,207.268,56.976z    M171.996,54.97c-0.219,0-0.44-0.059-0.638-0.185c-0.557-0.353-0.722-1.09-0.368-1.647c0.941-1.483,2.013-2.802,3.185-3.918   c0.475-0.452,1.23-0.435,1.687,0.042c0.454,0.478,0.436,1.233-0.042,1.687c-1.032,0.981-1.978,2.148-2.817,3.468   C172.776,54.774,172.39,54.97,171.996,54.97z M300.578,52.386c-0.433,0-0.853-0.238-1.062-0.652   c-0.676-1.328-1.326-2.788-1.988-4.464c-0.242-0.613,0.058-1.306,0.671-1.547c0.61-0.242,1.307,0.057,1.547,0.671   c0.634,1.605,1.254,2.999,1.894,4.259c0.301,0.587,0.065,1.305-0.522,1.604C300.946,52.344,300.76,52.386,300.578,52.386z    M201.869,50.489c-0.163,0-0.331-0.034-0.489-0.105c-1.351-0.607-2.808-1.171-4.334-1.675c-0.624-0.207-0.965-0.882-0.757-1.508   c0.205-0.626,0.874-0.965,1.508-0.757c1.603,0.53,3.136,1.123,4.562,1.764c0.601,0.27,0.869,0.976,0.599,1.577   C202.759,50.227,202.323,50.489,201.869,50.489z M178.867,48.536c-0.436,0-0.857-0.24-1.065-0.657   c-0.296-0.588-0.061-1.306,0.529-1.602c1.489-0.749,3.115-1.283,4.83-1.589c0.652-0.113,1.27,0.315,1.384,0.965   c0.117,0.649-0.317,1.269-0.965,1.384c-1.489,0.266-2.894,0.727-4.178,1.372C179.23,48.495,179.049,48.536,178.867,48.536z    M192.833,47.473c-0.086,0-0.175-0.009-0.263-0.029c-1.57-0.354-3.092-0.573-4.52-0.652c-0.657-0.035-1.163-0.598-1.125-1.256   c0.037-0.657,0.536-1.175,1.256-1.125c1.561,0.085,3.213,0.323,4.916,0.706c0.641,0.144,1.046,0.783,0.899,1.426   C193.872,47.097,193.381,47.473,192.833,47.473z M208.134,47.468c-0.063,0-0.126-0.005-0.189-0.015   c-0.65-0.103-1.095-0.713-0.993-1.364c0.259-1.634,0.566-3.24,0.916-4.772c0.147-0.64,0.767-1.05,1.428-0.897   c0.641,0.146,1.044,0.785,0.897,1.428c-0.338,1.48-0.634,3.031-0.883,4.613C209.218,47.049,208.71,47.468,208.134,47.468z    M297.011,43.528c-0.499,0-0.965-0.315-1.13-0.814c-0.501-1.49-0.986-3.023-1.466-4.58c-0.196-0.629,0.158-1.298,0.788-1.491   c0.631-0.193,1.298,0.157,1.491,0.788c0.475,1.538,0.955,3.052,1.447,4.526c0.21,0.624-0.126,1.3-0.75,1.51   C297.265,43.508,297.137,43.528,297.011,43.528z M243.464,38.923c-0.426,0-0.839-0.231-1.053-0.634   c-0.31-0.583-0.089-1.305,0.494-1.614c0.68-0.361,1.042-0.989,1.042-1.817c0-0.295-0.044-0.608-0.135-0.931   c-0.175-0.635,0.198-1.292,0.834-1.467c0.631-0.174,1.291,0.199,1.468,0.833c0.144,0.529,0.219,1.056,0.219,1.565   c0,1.716-0.841,3.148-2.309,3.926C243.844,38.879,243.653,38.923,243.464,38.923z M238.87,38.762c-0.224,0-0.45-0.062-0.65-0.192   c-1.307-0.849-2.2-2.57-2.584-4.977c-0.103-0.65,0.34-1.262,0.99-1.365c0.662-0.108,1.263,0.339,1.368,0.99   c0.266,1.672,0.823,2.894,1.526,3.351c0.552,0.359,0.708,1.099,0.35,1.651C239.641,38.571,239.259,38.762,238.87,38.762z    M210.271,38.165c-0.119,0-0.238-0.017-0.356-0.055c-0.629-0.197-0.979-0.867-0.783-1.495c0.513-1.63,1.081-3.176,1.696-4.596   c0.261-0.606,0.965-0.882,1.568-0.621c0.606,0.262,0.883,0.965,0.622,1.569c-0.583,1.343-1.123,2.811-1.608,4.361   C211.25,37.838,210.779,38.165,210.271,38.165z M294.161,34.403c-0.513,0-0.983-0.331-1.142-0.845   c-0.461-1.515-0.932-3.036-1.419-4.548c-0.203-0.627,0.142-1.299,0.769-1.502c0.629-0.198,1.298,0.143,1.501,0.77   c0.492,1.524,0.967,3.057,1.433,4.583c0.191,0.63-0.163,1.297-0.795,1.489C294.394,34.386,294.275,34.403,294.161,34.403z    M242.439,30.813c-0.31,0-0.62-0.121-0.855-0.361c-0.93-0.955-2.109-1.907-3.504-2.827c-0.021-0.014-0.04-0.028-0.058-0.042   c-0.051,0.391-0.096,0.779-0.128,1.163c-0.056,0.658-0.638,1.151-1.291,1.086c-0.657-0.057-1.142-0.635-1.086-1.291   c0.137-1.586,0.417-3.231,0.829-4.891c0.158-0.638,0.797-1.023,1.447-0.869c0.638,0.16,1.028,0.807,0.869,1.447   c-0.107,0.423-0.203,0.845-0.289,1.265c0.338-0.107,0.708-0.065,1.021,0.14c1.538,1.016,2.85,2.077,3.9,3.156   c0.459,0.472,0.45,1.227-0.023,1.687C243.04,30.7,242.74,30.813,242.439,30.813z M214.116,29.449c-0.217,0-0.436-0.058-0.631-0.181   c-0.559-0.348-0.729-1.085-0.38-1.644c0.96-1.54,2.006-2.873,3.113-3.962c0.464-0.46,1.223-0.458,1.687,0.014   c0.461,0.468,0.457,1.224-0.014,1.687c-0.972,0.956-1.901,2.142-2.763,3.524C214.901,29.25,214.512,29.449,214.116,29.449z    M234.594,25.471c-0.177,0-0.356-0.04-0.527-0.122c-1.309-0.645-2.749-1.275-4.278-1.871c-0.615-0.24-0.918-0.932-0.678-1.545   c0.24-0.615,0.93-0.922,1.545-0.678c1.591,0.621,3.094,1.278,4.464,1.953c0.592,0.291,0.834,1.007,0.543,1.597   C235.456,25.226,235.034,25.471,234.594,25.471z M291.193,25.312c-0.487,0-0.946-0.301-1.121-0.785   c-0.543-1.491-1.114-2.958-1.727-4.382c-0.261-0.605,0.019-1.307,0.622-1.567c0.601-0.259,1.307,0.019,1.568,0.623   c0.631,1.466,1.221,2.974,1.778,4.51c0.226,0.62-0.093,1.304-0.713,1.528C291.465,25.289,291.328,25.312,291.193,25.312z    M220.97,23.047c-0.468,0-0.913-0.278-1.104-0.74c-0.249-0.609,0.042-1.306,0.65-1.556c1.64-0.673,3.379-0.942,5.21-0.8   c0.657,0.052,1.146,0.628,1.093,1.285c-0.051,0.658-0.631,1.153-1.284,1.094c-1.435-0.115-2.817,0.094-4.11,0.628   C221.276,23.018,221.122,23.047,220.97,23.047z M238.982,20.597c-0.149,0-0.301-0.028-0.447-0.087   c-0.61-0.246-0.906-0.941-0.659-1.552c0.617-1.527,1.344-3.02,2.165-4.438c0.326-0.572,1.058-0.763,1.629-0.437   c0.571,0.33,0.767,1.059,0.436,1.63c-0.762,1.321-1.44,2.713-2.015,4.137C239.9,20.315,239.452,20.597,238.982,20.597z    M287.374,16.563c-0.424,0-0.834-0.227-1.051-0.627c-0.771-1.432-1.587-2.755-2.423-3.933c-0.382-0.537-0.256-1.282,0.28-1.664   c0.536-0.381,1.282-0.256,1.664,0.282c0.895,1.257,1.762,2.664,2.582,4.182c0.312,0.58,0.096,1.304-0.485,1.616   C287.761,16.518,287.565,16.563,287.374,16.563z M243.772,12.376c-0.263,0-0.529-0.086-0.748-0.264   c-0.515-0.414-0.594-1.165-0.182-1.678c1.055-1.308,2.211-2.516,3.43-3.593c0.499-0.437,1.251-0.389,1.685,0.106   c0.436,0.494,0.389,1.248-0.105,1.683c-1.121,0.987-2.181,2.098-3.15,3.302C244.464,12.224,244.119,12.376,243.772,12.376z    M281.812,8.863c-0.305,0-0.608-0.115-0.841-0.347c-1.09-1.087-2.265-2.038-3.49-2.827c-0.555-0.358-0.715-1.095-0.357-1.65   c0.359-0.556,1.104-0.708,1.647-0.356c1.368,0.881,2.673,1.939,3.882,3.142c0.468,0.465,0.468,1.221,0.005,1.688   C282.425,8.746,282.117,8.863,281.812,8.863z M250.904,6.115c-0.405,0-0.799-0.206-1.023-0.58c-0.34-0.565-0.156-1.298,0.41-1.636   c1.421-0.853,2.936-1.575,4.497-2.149c0.624-0.227,1.305,0.089,1.533,0.708c0.226,0.619-0.091,1.304-0.708,1.531   c-1.424,0.523-2.803,1.181-4.096,1.956C251.326,6.06,251.114,6.115,250.904,6.115z M273.881,3.783c-0.135,0-0.27-0.022-0.405-0.071   c-1.365-0.493-2.831-0.852-4.355-1.066c-0.652-0.092-1.107-0.696-1.016-1.348c0.093-0.652,0.715-1.104,1.347-1.015   c1.687,0.238,3.313,0.636,4.835,1.185c0.62,0.224,0.941,0.906,0.718,1.526C274.827,3.481,274.37,3.783,273.881,3.783z    M259.793,2.83c-0.566,0-1.069-0.407-1.172-0.986c-0.114-0.649,0.319-1.268,0.967-1.382c1.582-0.28,3.239-0.436,4.928-0.463   c0.692,0.006,1.2,0.515,1.212,1.173c0.009,0.659-0.515,1.202-1.174,1.213c-1.561,0.024-3.092,0.168-4.551,0.425   C259.933,2.824,259.863,2.83,259.793,2.83z"/>
	<g>
		<g>
			<path style="fill:#FFFFFF;" d="M128.152,377.495l-1.414-3.42l-0.11-0.366c-0.282-0.955-0.356-1.755-0.221-2.398     c0.133-0.643,0.818-1.149,2.048-1.514c1.233-0.366,2.533-0.403,3.9-0.11c1.368,0.296,2.563,0.906,3.588,1.834     c2.013,1.817,3.441,4.147,4.285,6.988c0.846,2.84,1.302,5.152,1.37,6.929c0.07,1.778-0.182,3.528-0.76,5.245     c2.283,1.181,4.138,3.686,5.566,7.512c0.308,0.876,0.652,1.932,1.032,3.171s0.636,2.493,0.771,3.756     c0.135,1.265,0.107,2.519-0.079,3.756c-0.21,1.247-0.573,2.381-1.09,3.404c-1.151,2.225-3.125,3.754-5.921,4.585     c-0.955,0.284-1.689,0.042-2.207-0.722c-0.368-0.59-0.699-1.337-0.993-2.241l-3.646-14.712L128.152,377.495z M132.521,380.002     l3.017,10.154c2.377-0.781,2.721-4.01,1.032-9.693c-1.687-5.681-3.497-8.355-5.427-8.025     C130.953,373.753,131.412,376.272,132.521,380.002z M140.814,409.495l0.165,0.312l0.909,3.064     c1.426-0.811,2.307-2.057,2.64-3.737c0.333-1.682,0.315-3.15-0.058-4.404c-0.373-1.254-0.685-2.241-0.934-2.966     c-0.252-0.722-0.624-1.589-1.118-2.603c-0.494-1.011-0.993-1.878-1.496-2.598c-1.247-1.754-2.612-2.57-4.096-2.442     c0.671,2.989,1.594,6.459,2.768,10.408L140.814,409.495z"/>
			<path style="fill:#FFFFFF;" d="M166.292,394.199l1.841,4.043c0.147,0.562,0.72,1.871,1.722,3.931     c1.002,2.06,1.591,3.427,1.766,4.099l0.019,0.068c0.261,1.009,0.049,1.757-0.636,2.246c-0.965,0.252-1.757,0.289-2.374,0.116     c-0.62-0.175-1.046-0.711-1.279-1.605c-0.508-1.95-1.58-4.697-3.22-8.244l-7.053,0.757c-0.03,1.636,0.079,3.39,0.329,5.264     c0.247,1.873,0.377,3.25,0.391,4.131c0.04,1.808-0.489,2.857-1.587,3.141c-0.538,0.14-1.081,0.096-1.631-0.133     c-0.55-0.226-0.895-0.61-1.035-1.149l0.009-0.648c-0.012-12.748-0.741-24.975-2.181-36.684c-0.037-0.324-0.21-1.261-0.515-2.808     c-0.65-3.42-0.781-5.671-0.394-6.752l2.321-0.603c0.627-0.163,1.214-0.161,1.759,0.009c0.548,0.168,0.897,0.545,1.049,1.128     c0.909,3.495,2.721,8.563,5.441,15.199C163.753,386.342,165.507,391.174,166.292,394.199z M163.054,396.512     c-0.308-0.638-0.68-1.789-1.114-3.46c-0.433-1.668-1.069-3.716-1.904-6.144c-0.834-2.426-1.857-5.236-3.069-8.425     c-1.214-3.19-2.078-5.506-2.598-6.95c0.918,12.083,1.687,20.567,2.311,25.453C157.601,397.298,159.724,397.139,163.054,396.512z"/>
			<path style="fill:#FFFFFF;" d="M170.85,390.277l-0.944-4.061l-0.37-1.661c-1.526-6.822-2.248-11.643-2.167-14.462     c0.077-3.481,0.697-6.016,1.859-7.605c1.57-2.202,3.861-3.637,6.864-4.311c0.725-0.161,1.298-0.112,1.724,0.149     s0.692,0.627,0.799,1.102c0.105,0.475,0.058,0.93-0.14,1.365c-0.2,0.436-0.51,0.715-0.934,0.832l-3.255,0.729     c-0.948,0.212-1.638,1.007-2.064,2.384c-0.405,1.37-0.569,2.973-0.492,4.807c0.161,3.476,0.496,6.307,1.009,8.493l0.077,0.34     l2.687,13.456c0.631,2.824,1.221,4.744,1.768,5.762c0.548,1.016,1.06,1.822,1.538,2.414c0.475,0.594,0.988,1.056,1.535,1.382     c1.263,0.764,2.707,0.962,4.334,0.599c0.543-0.121,0.995-0.436,1.356-0.944c0.541-0.121,1.055-0.105,1.54,0.047     c0.485,0.154,0.785,0.489,0.902,1.009c0.41,1.829-0.664,3.031-3.215,3.602c-1.042,0.231-2.165,0.322-3.374,0.273     c-1.209-0.049-2.137-0.193-2.782-0.429C175.587,404.248,172.835,399.157,170.85,390.277z"/>
			<path style="fill:#FFFFFF;" d="M195.83,370.018l0.638,4.192c0.375,2.004,1.873,5.599,4.502,10.783     c2.626,5.189,4.639,8.57,6.042,10.145c0.175,0.179,0.555,0.545,1.139,1.095c0.585,0.55,1.03,1.044,1.335,1.482     c0.305,0.438,0.508,0.918,0.606,1.442c0.098,0.524-0.021,1-0.352,1.426c-0.333,0.426-0.762,0.69-1.286,0.788     c-1.093,0.203-2.447-0.741-4.059-2.831c-1.615-2.088-3.19-4.723-4.723-7.899c-2.635-5.42-4.723-10.178-6.263-14.271     c-1.06,3.66-1.149,7.868-0.261,12.626l2.412,12.941c0.203,1.093-0.172,1.727-1.13,1.906c-0.706,0.13-1.305,0.037-1.801-0.284     c-0.496-0.319-0.806-0.82-0.934-1.503l-3.956-21.238c-0.471-2.526-0.953-6.34-1.442-11.443     c-0.492-5.103-0.972-8.905-1.438-11.408c0.245-0.965,0.76-1.519,1.545-1.666s1.426-0.049,1.927,0.294     c0.499,0.343,0.804,0.811,0.916,1.403l0.037,0.205c-0.415,1.184,0.068,5.487,1.452,12.906l0.464,2.493     c0.047-0.126,0.583-1.992,1.608-5.599c2.488-8.754,4.201-13.218,5.135-13.393c0.683-0.126,1.333-0.084,1.95,0.133     c0.615,0.214,0.981,0.629,1.097,1.242c0.007,0.047-0.377,1.083-1.153,3.113C197.447,365.36,196.112,369,195.83,370.018z"/>
			<path style="fill:#FFFFFF;" d="M227.516,396.158l-0.85-5.387c-0.005-0.023-0.075-0.832-0.214-2.423     c-0.263-0.573-1.335-5.827-3.218-15.763c-1.883-9.933-2.994-16.012-3.332-18.232c-0.093,0.012-0.184,0.026-0.275,0.037     c-3.821,0.433-5.818-0.016-5.993-1.347c-0.058-0.436,0.147-0.832,0.613-1.186c0.468-0.352,0.944-0.562,1.424-0.624l9.66-0.608     l1.132-0.184c1.468-0.193,2.276,0.273,2.426,1.396c0.075,0.576-0.105,1.072-0.541,1.491c-0.433,0.419-0.951,0.669-1.547,0.746     l-3.299-0.054l-0.044,0.741c0.587,4.453,1.857,11.07,3.81,19.852c1.953,8.78,3.222,15.408,3.814,19.884     c0.072,0.552-0.117,1.074-0.566,1.563c-0.45,0.492-0.972,0.776-1.568,0.855L227.516,396.158z"/>
			<path style="fill:#FFFFFF;" d="M235.084,374.405l-0.175-2.703c-0.021-0.231-0.065-0.342-0.135-0.338l-0.117-1.279     c-0.669-7.426-0.72-12.745-0.149-15.958c0.473-2.717,1.018-4.415,1.631-5.098c0.613-0.685,1.242-1.055,1.887-1.114     c5.487-0.494,9.52,1.932,12.095,7.277c1.487,3.076,2.44,6.941,2.861,11.599l0.047,0.52l0.864,8.013     c1.226,13.582-1.309,20.658-7.605,21.227c-2.605,0.235-4.73-1.025-6.375-3.784c-1.563-2.647-2.617-5.296-3.157-7.943     C235.909,380.829,235.35,377.357,235.084,374.405z M238.395,364.342l0.245,6.571c0.617,6.848,1.71,12.771,3.278,17.766     c1.445,2.871,2.721,4.52,3.831,4.956c0.853-0.077,1.594-0.494,2.223-1.247c0.629-0.755,1.093-1.734,1.391-2.934     c0.298-1.2,0.529-2.461,0.687-3.777c0.14-1.291,0.214-2.668,0.221-4.133c0.002-2.535-0.075-4.69-0.235-6.466     c-0.161-1.775-0.562-4.483-1.205-8.122c-0.643-3.637-1.046-6.356-1.207-8.155l-0.114-1.244c-0.203-1.727-0.906-3.215-2.111-4.467     c-1.207-1.251-2.652-1.799-4.334-1.647c-1.615,0.144-2.605,1.153-2.971,3.022c-0.301,1.563-0.35,3.462-0.147,5.699     L238.395,364.342z"/>
			<path style="fill:#FFFFFF;" d="M266.744,364.852l0.249-13.272c-0.028-2.2,0.818-3.956,2.537-5.277l0.005,0.452     c0.184-0.116,0.356-0.177,0.52-0.179c1.111-0.014,2.526,1.885,4.241,5.695c1.715,3.81,3.274,7.999,4.676,12.566     c1.4,4.567,2.796,9.176,4.187,13.824c1.391,4.648,2.253,7.375,2.589,8.181c0.823-9.945,1.144-21.979,0.962-36.101l-0.128-1.908     c-0.016-1.412,0.564-2.127,1.745-2.141c0.671-0.009,1.179,0.263,1.521,0.813c0.343,0.552,0.52,1.198,0.529,1.939l0.068,5.385     c0.026,5.58-0.128,13.032-0.461,22.357c-0.333,9.325-0.874,14.595-1.622,15.807c-1.293,0.41-2.188,0.62-2.684,0.624     c-0.499,0.007-0.883-0.156-1.153-0.487c-0.27-0.333-0.492-0.846-0.662-1.538c-0.17-0.692-0.317-1.153-0.436-1.384l0.033-0.312     c-0.023-1.759-1.796-7.33-5.319-16.711c-3.523-9.378-6.072-15.83-7.645-19.353l0.457,35.805c0.047,0.093,0.142,0.254,0.284,0.482     c0.305,0.506,0.464,0.979,0.468,1.419c0.005,0.44-0.203,0.883-0.624,1.328c-0.424,0.445-0.925,0.671-1.503,0.678     c-1.552,0.021-2.346-1.417-2.384-4.311L266.744,364.852z"/>
			<path style="fill:#FFFFFF;" d="M311.541,379.909l0.534,4.411c-0.033,0.578,0.119,1.999,0.452,4.266     c0.333,2.267,0.482,3.747,0.445,4.441l-0.005,0.07c-0.054,1.039-0.482,1.689-1.284,1.948c-0.995-0.051-1.761-0.254-2.3-0.608     c-0.536-0.352-0.781-0.99-0.734-1.915c0.107-2.013-0.086-4.956-0.578-8.831l-6.95-1.41c-0.522,1.549-0.948,3.255-1.279,5.114     c-0.329,1.862-0.62,3.215-0.874,4.059c-0.508,1.736-1.33,2.572-2.463,2.514c-0.555-0.03-1.06-0.235-1.515-0.62     c-0.457-0.382-0.669-0.853-0.638-1.407l0.205-0.615c3.84-12.156,6.843-24.032,9.006-35.626c0.065-0.322,0.184-1.265,0.359-2.833     c0.412-3.458,0.969-5.641,1.666-6.557l2.393,0.126c0.648,0.035,1.207,0.217,1.678,0.541c0.468,0.326,0.687,0.79,0.657,1.391     c-0.191,3.607,0.007,8.987,0.594,16.135C311.495,371.651,311.704,376.786,311.541,379.909z M307.755,381.134     c-0.103-0.701-0.107-1.913-0.016-3.635c0.089-1.722,0.103-3.865,0.042-6.431c-0.063-2.565-0.189-5.552-0.38-8.959     c-0.193-3.406-0.317-5.879-0.375-7.412c-2.777,11.797-4.606,20.117-5.487,24.962C302.319,380.235,304.39,380.727,307.755,381.134     z"/>
			<path style="fill:#FFFFFF;" d="M320.994,394.171l0.422-5.438c0.002-0.023,0.121-0.827,0.354-2.409     c-0.124-0.617,0.054-5.977,0.527-16.077c0.473-10.098,0.802-16.268,0.986-18.507c-0.091-0.009-0.184-0.019-0.275-0.028     c-3.817-0.466-5.655-1.365-5.517-2.701c0.044-0.438,0.336-0.774,0.871-1.011c0.536-0.235,1.048-0.329,1.531-0.277l9.537,1.65     l1.144,0.082c1.473,0.154,2.153,0.795,2.036,1.922c-0.061,0.576-0.35,1.016-0.871,1.323c-0.52,0.308-1.079,0.431-1.678,0.368     l-3.199-0.82l-0.212,0.713c-0.461,4.467-0.762,11.198-0.899,20.192c-0.137,8.996-0.438,15.737-0.902,20.229     c-0.058,0.552-0.363,1.016-0.913,1.389c-0.55,0.375-1.125,0.531-1.724,0.468L320.994,394.171z"/>
			<path style="fill:#FFFFFF;" d="M352.65,367.858l-0.13,1.209c-3.439,20.765-8.174,30.647-14.204,29.65     c-2.335-0.363-3.903-1.598-4.704-3.702c-0.839-2.158-1.223-4.227-1.153-6.212c0.107-3.055,0.454-6.524,1.037-10.406     c0.585-3.882,1.482-9.476,2.694-16.788l1.356-10.089c0.596-0.911,1.174-1.321,1.734-1.228s0.986,0.603,1.277,1.533     c0.294,0.927,0.359,1.871,0.2,2.831l-3.162,19.085c-0.275,1.668-0.522,4.173-0.734,7.519c-0.214,3.344-0.459,5.851-0.736,7.517     c-0.566,3.427,0.634,5.385,3.605,5.879c3.334,0.552,7.086-11.748,11.252-36.898l0.652-3.94l0.158-1.17     c0.091-0.55,0.284-0.939,0.583-1.172c0.296-0.233,0.757-0.296,1.386-0.193c0.629,0.105,1.086,0.287,1.37,0.545     c0.268,0.231,0.44,0.543,0.515,0.93c0.089,0.601,0.068,1.372-0.065,2.311l-1.65,6.981L352.65,367.858z"/>
			<path style="fill:#FFFFFF;" d="M360.5,377.642l-1.838,7.489c-1.44,6.107-2.134,11.021-2.085,14.744l-1.216,1.675l-1.927-0.454     l-0.673-1.228c0.534-2.062,1.104-4.385,1.715-6.964c0.608-2.582,1.713-8.143,3.311-16.688c1.601-8.544,2.892-14.9,3.875-19.069     c0.515-2.186,1.54-3.099,3.073-2.738c2.409,0.569,4.29,1.68,5.636,3.33s1.745,3.646,1.193,5.99l-1.149,4.867     c-0.315,1.33-0.848,2.484-1.601,3.458c-0.755,0.976-1.601,1.992-2.537,3.043c-0.939,1.051-1.456,1.636-1.556,1.755     c-0.019,1.186-0.1,3.497-0.245,6.936c-0.345,7.51-0.065,13.034,0.834,16.578c0.261,1.014,0.331,1.773,0.212,2.279     c-0.119,0.508-0.361,0.902-0.725,1.186c-0.366,0.282-0.783,0.368-1.256,0.256c-0.969-0.228-1.638-1.559-2.004-3.987     c-0.368-2.43-0.501-5.061-0.405-7.894c0.308-8.658,0.377-13.447,0.214-14.365L360.5,377.642z M365.579,357.321l-0.468,0.925     c-0.445,1.892-1.046,4.637-1.799,8.23c-0.753,3.593-1.319,6.2-1.701,7.822c1.214-0.308,2.433-1.57,3.66-3.793     c1.223-2.22,1.988-3.961,2.283-5.224c0.298-1.261,0.485-2.2,0.557-2.812c0.075-0.613,0.082-1.307,0.028-2.081     C368.04,358.794,367.187,357.771,365.579,357.321z"/>
			<path style="fill:#FFFFFF;" d="M378.928,369.824l1.37-5.865c0.967-3.213,2.405-4.534,4.313-3.959     c1.219,0.366,2.796,1.151,4.732,2.351c1.934,1.2,2.77,2.244,2.502,3.129c-0.282,0.932-1.16,1.44-2.638,1.526     c-1.892-1.342-3.479-2.293-4.763-2.85c-0.228,0.997-0.489,1.98-0.783,2.957l-3.246,9.686c-0.012,0.047-0.054,0.419-0.121,1.125     l2.458,0.631c2.195,0.662,3.106,1.612,2.731,2.854c-0.147,0.487-0.475,0.855-0.983,1.1c-0.51,0.247-1.069,0.277-1.68,0.093     c-0.608-0.184-1.256-0.426-1.939-0.729l-1.729-0.522c-0.387,1.771-0.839,3.509-1.354,5.215l-4.017,12.249     c-0.769,2.549-1.109,3.838-1.018,3.863l5.07,1.347c1.729,0.522,2.428,1.337,2.092,2.444c-0.205,0.687-0.655,1.095-1.347,1.226     c-0.692,0.13-1.417,0.082-2.169-0.144l-5.753-1.734c-0.599-0.182-1.081-0.55-1.445-1.107c-0.366-0.557-0.471-1.128-0.319-1.71     l0.541-1.796l3.036-11.636L378.928,369.824z"/>
		</g>
	</g>
	<path style="fill:#241726;" d="M60.092,377.442c-0.324,0-0.648-0.132-0.883-0.39c-0.443-0.488-0.408-1.242,0.082-1.686   c13.283-12.075,34.438-13.381,35.332-13.43c0.673-0.013,1.221,0.47,1.256,1.124c0.037,0.657-0.466,1.221-1.123,1.257   c-0.212,0.013-21.215,1.318-33.862,12.815C60.665,377.34,60.378,377.442,60.092,377.442z"/>
	<path style="fill:#241726;" d="M57.706,388.179c-0.238,0-0.475-0.07-0.685-0.216c-0.538-0.377-0.671-1.122-0.291-1.661   c8.619-12.315,25.16-12.156,25.882-12.158c0.657,0.012,1.181,0.553,1.172,1.213c-0.012,0.651-0.543,1.173-1.193,1.173   c-0.014,0-0.014,0-0.065,0c-0.96,0-16.175,0.189-23.843,11.14C58.451,388.002,58.081,388.179,57.706,388.179z"/>
	<path style="fill:#241726;" d="M459.224,381.613c-0.273,0-0.548-0.093-0.771-0.282c-6.927-5.862-21.667-5.93-21.816-5.93   c-0.659,0-1.193-0.534-1.193-1.193s0.534-1.193,1.193-1.193c0.641,0,15.77,0.073,23.358,6.494c0.503,0.426,0.566,1.179,0.14,1.681   C459.9,381.47,459.562,381.613,459.224,381.613z"/>
	<path style="fill:#241726;" d="M460.352,390.648c-0.228,0-0.459-0.065-0.662-0.2c-3.306-2.204-15.595-8.912-15.718-8.98   c-0.578-0.316-0.792-1.04-0.475-1.618c0.312-0.578,1.037-0.792,1.617-0.477c0.51,0.277,12.508,6.827,15.9,9.089   c0.548,0.366,0.697,1.107,0.331,1.654C461.114,390.461,460.737,390.648,460.352,390.648z"/>
	<path style="fill:#241726;" d="M216.418,419.446c-0.51,0-0.983-0.33-1.139-0.842c-0.196-0.629,0.158-1.297,0.788-1.491   c0.517-0.161,52.36-15.731,106.838-0.006c0.634,0.183,0.997,0.845,0.815,1.477c-0.184,0.631-0.846,0.991-1.477,0.816   c-53.803-15.531-104.965-0.163-105.473-0.006C216.651,419.429,216.534,419.446,216.418,419.446z"/>
	<path style="fill:#241726;" d="M333.867,338.698c-0.105,0-0.21-0.014-0.317-0.043c-60.543-16.661-126.387-2.946-127.047-2.806   c-0.655,0.148-1.277-0.274-1.417-0.917c-0.137-0.644,0.273-1.278,0.918-1.415c0.664-0.141,67.058-13.985,128.179,2.839   c0.634,0.175,1.009,0.831,0.834,1.467C334.871,338.351,334.391,338.698,333.867,338.698z"/>
	<path style="fill:#241726;" d="M93.723,455.706c-0.331,0-0.662-0.137-0.897-0.408c-0.436-0.495-0.384-1.249,0.112-1.683   c8.703-7.613,30.106-10.3,31.013-10.409c0.636-0.099,1.249,0.384,1.328,1.039c0.079,0.654-0.384,1.249-1.039,1.328   c-0.214,0.027-21.581,2.707-29.731,9.839C94.283,455.609,94.003,455.706,93.723,455.706z"/>
	<path style="fill:#241726;" d="M428.892,449.844c-0.338,0-0.676-0.143-0.911-0.423c-5.536-6.543-26.84-11.281-27.054-11.329   c-0.643-0.141-1.051-0.777-0.909-1.421c0.14-0.642,0.769-1.048,1.421-0.909c0.909,0.199,22.31,4.965,28.363,12.117   c0.426,0.503,0.363,1.256-0.14,1.682C429.44,449.751,429.165,449.844,428.892,449.844z"/>
</g>















</svg>
